<svg preserveAspectRatio="none" width="100%" height="100%" overflow="visible" style="display: block;" viewBox="0 0 18.4541 28.3388" fill="none" xmlns="http://www.w3.org/2000/svg">
<g id="Group">
<path id="Vector" d="M16.713 6.99686H12.5866C11.6278 6.99686 10.8455 6.22537 10.8455 5.27056V1.73393C10.8455 0.779118 11.6278 0.0076343 12.5866 0.0076343H16.713C17.6795 0.0076343 18.4541 0.779118 18.4541 1.73393V5.27056C18.4541 6.22537 17.6718 6.99686 16.713 6.99686Z" fill="var(--fill-0, #2D2A29)"/>
<path id="Vector_2" d="M5.85992 17.6678H1.73343C0.774671 17.6678 4.94227e-08 16.8963 4.94227e-08 15.9415V12.3973C4.94227e-08 11.4425 0.774671 10.671 1.73343 10.671H5.85992C6.81868 10.671 7.60102 11.4425 7.60102 12.3973V15.9415C7.60102 16.8963 6.81868 17.6678 5.85992 17.6678Z" fill="var(--fill-0, #2D2A29)"/>
<path id="Vector_3" d="M5.85992 6.99686H1.73343C0.774671 6.99686 0 6.22537 0 5.27056V1.7263C0 0.771484 0.774671 0 1.73343 0H5.85992C6.81868 0 7.60102 0.771484 7.60102 1.7263V5.27056C7.60102 6.22537 6.81868 6.99686 5.85992 6.99686Z" fill="var(--fill-0, #2D2A29)"/>
<path id="Vector_4" d="M16.713 17.6678H12.5866C11.6278 17.6678 10.8455 16.8963 10.8455 15.9415V12.3973C10.8455 11.4425 11.6278 10.671 12.5866 10.671H16.713C17.6795 10.671 18.4541 11.4425 18.4541 12.3973V15.9415C18.4541 16.8963 17.6718 17.6678 16.713 17.6678Z" fill="var(--fill-0, #2D2A29)"/>
<path id="Vector_5" d="M5.85992 28.3388H1.73343C0.774671 28.3388 4.94227e-08 27.5673 4.94227e-08 26.6125V23.0759C4.94227e-08 22.1211 0.774671 21.3496 1.73343 21.3496H5.85992C6.81868 21.3496 7.60102 22.1211 7.60102 23.0759V26.6125C7.60102 27.5673 6.81868 28.3388 5.85992 28.3388Z" fill="var(--fill-0, #2D2A29)"/>
<path id="Vector_6" d="M16.713 28.3388H12.5866C11.6278 28.3388 10.8455 27.5673 10.8455 26.6125V23.0759C10.8455 22.1211 11.6278 21.3496 12.5866 21.3496H16.713C17.6795 21.3496 18.4541 22.1211 18.4541 23.0759V26.6125C18.4541 27.5673 17.6718 28.3388 16.713 28.3388Z" fill="var(--fill-0, #2D2A29)"/>
</g>
</svg>
