<svg preserveAspectRatio="none" width="100%" height="100%" overflow="visible" style="display: block;" viewBox="0 0 21 24" fill="none" xmlns="http://www.w3.org/2000/svg">
<g id="Layer_1" clip-path="url(#clip0_20934_30965)">
<path id="Vector" d="M12.1506 11.408L12.7152 11.9761C12.2154 12.6718 11.525 13.2164 10.7217 13.5296C10.5415 13.6004 10.3555 13.6594 10.1649 13.7052C9.83328 13.7861 9.48755 13.8286 9.13179 13.8286C7.61196 13.8286 6.27086 13.051 5.47071 11.8645C4.97976 11.1375 4.69246 10.2567 4.69246 9.30775C4.69246 8.35884 4.97976 7.47763 5.47071 6.7505C6.27086 5.5645 7.61196 4.78686 9.13179 4.78686C10.6516 4.78686 11.9849 5.55967 12.7861 6.73989L12.2179 7.31106C11.5692 6.27336 10.4296 5.58465 9.13179 5.58465C7.11269 5.58465 5.47586 7.25156 5.47586 9.30775C5.47586 11.3639 7.11269 13.0309 9.13179 13.0309C10.3858 13.0309 11.4924 12.3878 12.1505 11.4081L12.1506 11.408Z" fill="var(--fill-0, #D62E2F)"/>
<path id="Vector_2" d="M14.4 13.6701L14.9593 14.2328C14.4214 14.8924 13.778 15.4587 13.0551 15.9055C12.8222 16.0491 12.5814 16.1805 12.3333 16.2986C12.0769 16.4209 11.8125 16.5283 11.5416 16.6208C11.2575 16.7182 10.9666 16.7984 10.6689 16.8607C10.3555 16.9267 10.0348 16.9729 9.70849 16.998C9.51789 17.0124 9.3257 17.0198 9.13193 17.0198C8.95438 17.0198 8.77894 17.0133 8.60443 17.0011H8.6039C8.15581 16.9697 7.7192 16.899 7.29565 16.791C7.25278 16.7804 7.21004 16.7693 7.1677 16.7576C6.56976 16.5948 6.00098 16.3586 5.47085 16.0603C5.19872 15.9071 4.93755 15.7375 4.68745 15.5524C4.41163 15.3487 4.15006 15.1264 3.90405 14.887C3.62098 14.6121 3.35875 14.3153 3.12066 13.9983C2.824 13.6052 2.56441 13.1818 2.34557 12.7341C1.87189 11.7624 1.59304 10.6742 1.56218 9.52322V9.09242C1.59304 7.94148 1.87189 6.85327 2.34557 5.88152C2.56441 5.43366 2.824 5.01025 3.12066 4.61734C3.35875 4.30032 3.62098 4.00358 3.90405 3.72861C4.15006 3.48923 4.41163 3.26691 4.68745 3.06327C4.93768 2.87816 5.19872 2.7085 5.47085 2.55537C6.55618 1.94376 7.80389 1.59584 9.13193 1.59584C11.5187 1.59584 13.648 2.72073 15.0362 4.47804L14.4753 5.04182C13.2324 3.42918 11.301 2.39363 9.13206 2.39363C7.78357 2.39363 6.52755 2.79353 5.47098 3.48399C5.19569 3.66373 4.93359 3.86321 4.68758 4.08123C4.40451 4.33014 4.14281 4.60296 3.90419 4.89607C3.60436 5.26414 3.34121 5.66458 3.12079 6.09121C2.65331 6.99431 2.3771 8.01549 2.3457 9.0994C2.34359 9.16858 2.34254 9.23817 2.34254 9.30788C2.34254 9.3776 2.34359 9.44719 2.3457 9.51637C2.3771 10.6003 2.65331 11.6215 3.12079 12.5246C3.34121 12.9511 3.60436 13.3516 3.90419 13.7197C4.14281 14.0128 4.40451 14.2856 4.68758 14.5345C4.93359 14.7526 5.19569 14.952 5.47098 15.1318C6.17602 15.5924 6.96984 15.9238 7.82064 16.0929C8.18576 16.1657 8.56064 16.2088 8.94409 16.2195C9.00675 16.2211 9.0694 16.2221 9.13206 16.2221C9.42199 16.2221 9.7081 16.2035 9.98866 16.1679C10.3046 16.1269 10.6132 16.0647 10.9141 15.9817C11.1972 15.9035 11.473 15.8067 11.7399 15.6939C11.9958 15.5854 12.2439 15.4616 12.4825 15.3227C13.2189 14.8967 13.8691 14.3344 14.4003 13.6701H14.4Z" fill="var(--fill-0, #D62E2F)"/>
<path id="Vector_3" d="M13.4991 17.4862C13.2568 17.6202 13.0087 17.7436 12.7538 17.8553L18.7877 24L17.6767 23.9968L11.9495 18.1643C11.6674 18.2574 11.3796 18.3366 11.0867 18.4015L16.5815 23.9973H15.4748L10.1351 18.56H10.1346C9.80558 18.5967 9.47079 18.6154 9.13179 18.6154H9.08695L14.3734 23.9989L13.2646 23.9978L7.89556 18.5309C7.04423 18.4139 6.23063 18.1772 5.47071 17.8384V24H4.68732V17.4427C4.4173 17.2895 4.15613 17.1224 3.90392 16.9432V24H3.12053V16.3183C2.84682 16.0757 2.58828 15.8162 2.34544 15.5418V24H1.56204V14.5249C1.26327 14.0765 1.00223 13.6005 0.783396 13.1011V24.0001H0V0H0.783396V5.51453C1.00223 5.01509 1.26341 4.53916 1.56204 4.09076V0H2.34544V3.07375C2.58828 2.79931 2.84682 2.53978 3.12053 2.29718V0H3.90392V1.67228C4.15613 1.49308 4.4173 1.32597 4.68732 1.17284V0H5.47071V0.777101C6.59153 0.277258 7.82987 0 9.13193 0C11.9553 0 14.4794 1.30368 16.1554 3.35248L15.5966 3.91466C14.0637 2.01213 11.737 0.797922 9.13193 0.797922C7.81892 0.797922 6.57649 1.10634 5.47085 1.65629C5.20136 1.78982 4.93966 1.93812 4.68745 2.10039C4.41532 2.27435 4.15362 2.46416 3.90405 2.66847C3.62824 2.89401 3.36614 3.13755 3.12066 3.39654C2.84075 3.69167 2.58116 4.00707 2.34557 4.34115C2.04522 4.76618 1.78206 5.22035 1.56218 5.69897C1.10525 6.69032 0.831015 7.78659 0.783528 8.94224C0.778252 9.06354 0.775614 9.18524 0.775614 9.30762C0.775614 9.42999 0.778252 9.55169 0.783528 9.67246C0.831015 10.8282 1.10525 11.9244 1.56218 12.9157C1.78206 13.3943 2.04522 13.8487 2.34557 14.2735C2.58116 14.6076 2.84062 14.9229 3.12066 15.2182C3.36614 15.4777 3.62824 15.7208 3.90405 15.9462C4.15362 16.1504 4.41532 16.3403 4.68745 16.5148C4.93966 16.6766 5.20136 16.8249 5.47085 16.9589C5.92315 17.1839 6.39789 17.3685 6.89135 17.5078C7.33324 17.6327 7.79017 17.7217 8.25817 17.7711C8.54547 17.802 8.83685 17.8173 9.13193 17.8173C9.22228 17.8173 9.31158 17.8157 9.40088 17.8125H9.40141C9.74503 17.8019 10.0835 17.7694 10.4156 17.7178C10.7227 17.6694 11.0236 17.604 11.3192 17.5226H11.3197C11.6039 17.4444 11.8822 17.3508 12.1538 17.2439C12.4155 17.1401 12.6709 17.0237 12.9188 16.895C13.1606 16.7695 13.3957 16.6328 13.6234 16.4843C14.3363 16.021 14.9755 15.4504 15.5187 14.7946L16.0776 15.3562C15.5298 16.0094 14.8942 16.5838 14.1896 17.0609L21 23.9958L19.8954 23.9996L13.4991 17.4858V17.4862Z" fill="var(--fill-0, #D62E2F)"/>
<path id="Vector_4" d="M0.783396 8.94237V9.67259C0.77812 9.55183 0.775482 9.42999 0.775482 9.30775C0.775482 9.18551 0.77812 9.06367 0.783396 8.94237Z" fill="var(--fill-0, #D62E2F)"/>
<path id="Vector_5" d="M2.34544 9.09927V9.51623C2.34333 9.44705 2.34227 9.37747 2.34227 9.30775C2.34227 9.23803 2.34333 9.16845 2.34544 9.09927Z" fill="var(--fill-0, #D62E2F)"/>
<path id="Vector_6" d="M13.2776 12.5422L13.8392 13.1065C13.3164 13.7781 12.6571 14.3348 11.9046 14.7344C11.657 14.8663 11.3991 14.9807 11.1326 15.076C10.8505 15.178 10.5592 15.259 10.2601 15.3159C9.93405 15.3799 9.59901 15.416 9.25671 15.4227C9.21542 15.4238 9.17361 15.4245 9.13179 15.4245C7.75363 15.4245 6.48442 14.9518 5.47071 14.1565C5.1887 13.9357 4.92646 13.69 4.68745 13.4224C4.38815 13.0873 4.12473 12.7177 3.90419 12.3209C3.40835 11.4315 3.1258 10.4029 3.1258 9.30802C3.1258 8.21309 3.40835 7.18412 3.90419 6.29485C4.12487 5.89804 4.38815 5.5285 4.68745 5.19335C4.9266 4.92576 5.1887 4.68007 5.47071 4.4595C6.48429 3.66426 7.7535 3.19129 9.13179 3.19129C11.0831 3.19129 12.8165 4.13858 13.9137 5.60655L13.3507 6.17248C12.4007 4.84852 10.8648 3.98921 9.13166 3.98921C7.70561 3.98921 6.41306 4.57086 5.47058 5.5152C5.17181 5.81395 4.90879 6.14897 4.68732 6.51381C4.19372 7.32557 3.90893 8.28294 3.90893 9.30788C3.90893 10.3328 4.19372 11.2899 4.68732 12.1017C4.90879 12.4665 5.17181 12.8015 5.47058 13.1006C6.41293 14.0445 7.70548 14.6266 9.13166 14.6266C9.17519 14.6266 9.21859 14.626 9.26185 14.6248C9.36369 14.6223 9.46512 14.617 9.56537 14.6083C9.88868 14.5812 10.2039 14.5242 10.508 14.4396C10.7887 14.3619 11.0601 14.261 11.3196 14.1387C12.093 13.775 12.7646 13.2233 13.2775 12.5422H13.2776Z" fill="var(--fill-0, #D62E2F)"/>
</g>
<defs>
<clipPath id="clip0_20934_30965">
<rect width="21" height="24" fill="white"/>
</clipPath>
</defs>
</svg>
