<svg preserveAspectRatio="none" width="100%" height="100%" overflow="visible" style="display: block;" viewBox="0 0 101.29 92.4762" fill="none" xmlns="http://www.w3.org/2000/svg">
<g id="Group">
<g id="Group_2">
<path id="Vector" d="M27.5061 46.5474L30.1513 46.5341C30.1513 46.5341 36.488 38.5392 40.7718 38.097L41.1675 15.574C24.7653 15.6297 10.2912 24.8427 3.69687 38.4624L27.5035 46.5474H27.5061Z" fill="url(#paint0_linear_20934_30768)"/>
<path id="Vector_2" d="M59.15 56.5284C57.8061 63.9275 51.0444 69.7456 42.761 70.0024C40.7214 70.066 38.3444 68.8478 38.3444 68.8478C38.3444 68.8478 36.164 68.967 35.7895 68.8214L22.8611 88.7808C28.8712 91.4846 35.6594 92.8114 42.761 92.4035C63.4125 91.2198 79.6474 75.7199 81.4507 57.0581L59.15 56.5258V56.5284Z" fill="url(#paint1_linear_20934_30768)"/>
<path id="Vector_3" d="M18.8137 86.6834L21.4004 86.7735L31.8616 66.6657C27.9576 63.7845 25.4505 59.3011 25.4505 54.2139C25.4505 52.9851 25.5992 51.7881 25.8755 50.6335L4.56797 42.6148L1.97592 42.6439C0.693166 46.3964 1.81864e-06 50.3872 1.81864e-06 54.5237C1.81864e-06 68.2176 7.53451 80.0073 18.8137 86.6808V86.6834Z" fill="url(#paint2_linear_20934_30768)"/>
</g>
<path id="Vector_4" d="M45.292 38.1949C52.8345 39.3151 58.6347 45.1438 59.3226 52.3443L95.792 53.3983C95.792 53.3983 95.792 53.3824 95.792 53.3744C95.792 53.3744 95.792 53.3638 95.792 53.3506C95.792 53.3241 101.29 52.4687 101.29 52.4661C101.29 52.2171 51.4694 0 51.4694 0L45.9427 0.905683C45.9427 0.905683 45.5071 25.7643 45.2893 38.1923L45.292 38.1949Z" fill="url(#paint3_linear_20934_30768)"/>
</g>
<defs>
<linearGradient id="paint0_linear_20934_30768" x1="20.7737" y1="12.0467" x2="28.8677" y2="85.4227" gradientUnits="userSpaceOnUse">
<stop stop-color="#21242D"/>
<stop offset="1" stop-color="#5C5463"/>
</linearGradient>
<linearGradient id="paint1_linear_20934_30768" x1="50.6806" y1="69.9495" x2="82.29" y2="133.975" gradientUnits="userSpaceOnUse">
<stop stop-color="#21242D"/>
<stop offset="1" stop-color="#5C5463"/>
</linearGradient>
<linearGradient id="paint2_linear_20934_30768" x1="0.671918" y1="43.1179" x2="47.0566" y2="102.927" gradientUnits="userSpaceOnUse">
<stop stop-color="#21242D"/>
<stop offset="1" stop-color="#5C5463"/>
</linearGradient>
<linearGradient id="paint3_linear_20934_30768" x1="91.6835" y1="1.56773" x2="60.797" y2="44.7616" gradientUnits="userSpaceOnUse">
<stop stop-color="#21242D"/>
<stop offset="1" stop-color="#5C5463"/>
</linearGradient>
</defs>
</svg>
