<svg preserveAspectRatio="none" width="100%" height="100%" overflow="visible" style="display: block;" viewBox="0 0 24 24" fill="none" xmlns="http://www.w3.org/2000/svg">
<g id="ph:house-bold">
<path id="Vector" d="M20.7712 9.45469L13.2759 2.37938L13.2609 2.36531C12.9165 2.05008 12.4665 1.87525 11.9995 1.87525C11.5326 1.87525 11.0826 2.05008 10.7381 2.36531L10.7222 2.37938L3.22875 9.45469C3.03872 9.6305 2.88702 9.84365 2.78313 10.0808C2.67924 10.3179 2.62541 10.5739 2.625 10.8328V19.5C2.625 19.9973 2.82254 20.4742 3.17417 20.8258C3.52581 21.1775 4.00272 21.375 4.5 21.375H9C9.49728 21.375 9.97419 21.1775 10.3258 20.8258C10.6775 20.4742 10.875 19.9973 10.875 19.5V15.375H13.125V19.5C13.125 19.9973 13.3225 20.4742 13.6742 20.8258C14.0258 21.1775 14.5027 21.375 15 21.375H19.5C19.9973 21.375 20.4742 21.1775 20.8258 20.8258C21.1775 20.4742 21.375 19.9973 21.375 19.5V10.8328C21.3746 10.5739 21.3208 10.3179 21.2169 10.0808C21.113 9.84365 20.9613 9.6305 20.7712 9.45469ZM19.125 19.125H15.375V15C15.375 14.7538 15.3265 14.51 15.2323 14.2825C15.138 14.055 14.9999 13.8483 14.8258 13.6742C14.6517 13.5001 14.445 13.362 14.2175 13.2677C13.99 13.1735 13.7462 13.125 13.5 13.125H10.5C10.0027 13.125 9.52581 13.3225 9.17417 13.6742C8.82254 14.0258 8.625 14.5027 8.625 15V19.125H4.875V10.995L12 4.26844L19.125 10.995V19.125Z" fill="var(--fill-0, #D62E2F)"/>
</g>
</svg>
