<svg preserveAspectRatio="none" width="100%" height="100%" overflow="visible" style="display: block;" viewBox="0 0 21 22" fill="none" xmlns="http://www.w3.org/2000/svg">
<path id="Vector" d="M11.0833 2.37838C11.0833 3.03243 10.8551 3.59254 10.3985 4.0587C9.94194 4.52487 9.39244 4.75755 8.75 4.75676C8.49722 4.75676 8.26389 4.72187 8.05 4.65211C7.83611 4.58234 7.62222 4.46858 7.40833 4.31081C6.94167 4.46937 6.56755 4.75676 6.286 5.17297C6.00444 5.58919 5.86328 6.04505 5.8625 6.54054H21L19.8333 14.8649H14.1167V12.4865H17.8208C17.9181 11.8919 18.0009 11.2973 18.0693 10.7027C18.1378 10.1081 18.2202 9.51351 18.3167 8.91892H2.68333C2.78056 9.51351 2.86339 10.1081 2.93183 10.7027C3.00028 11.2973 3.08272 11.8919 3.17917 12.4865H6.88333V14.8649H1.16667L0 6.54054H3.5C3.5 5.56937 3.7625 4.68739 4.2875 3.89459C4.8125 3.1018 5.52222 2.51712 6.41667 2.14054C6.475 1.52613 6.72778 1.01596 7.175 0.610054C7.62222 0.204144 8.14722 0.000792793 8.75 0C9.39167 0 9.94117 0.233081 10.3985 0.699243C10.8558 1.16541 11.0841 1.72512 11.0833 2.37838ZM7.90417 19.6216H13.0958L13.7667 12.4865H7.23333L7.90417 19.6216ZM5.83333 22L4.95833 12.7243C4.88056 12.0306 5.075 11.4214 5.54167 10.8965C6.00833 10.3717 6.58194 10.1089 7.2625 10.1081H13.7375C14.4181 10.1081 14.9917 10.3709 15.4583 10.8965C15.925 11.4222 16.1194 12.0314 16.0417 12.7243L15.1667 22H5.83333Z" fill="var(--fill-0, #D62E2F)"/>
</svg>
