<svg preserveAspectRatio="none" width="100%" height="100%" overflow="visible" style="display: block;" viewBox="0 0 53.9154 19.0748" fill="none" xmlns="http://www.w3.org/2000/svg">
<path id="Vector" d="M53.9127 9.59162V18.1877L53.7826 18.193L53.5675 18.2089L0 19.0748V8.8925C1.59348 16.4849 3.19493 18.2512 4.47768 18.2883C6.55717 18.3492 7.63808 13.8552 10.7693 13.593C13.8686 13.3282 14.8964 17.568 17.2122 17.3058C21.597 16.8053 22.7788 0.932011 26.319 0.704266C29.1208 0.524189 31.0118 10.349 33.4684 9.84849C35.2637 9.48569 35.6939 3.95891 37.051 3.9642C38.2807 3.9695 38.3285 8.50851 39.9432 8.86072C42.3069 9.37712 44.5962 0.169332 47.8336 0.00249527C49.4616 -0.0848953 51.4614 2.10516 53.7852 9.41948C53.8038 9.47774 53.9154 9.53601 53.9154 9.59427L53.9127 9.59162Z" fill="var(--fill-0, white)"/>
</svg>
