<svg preserveAspectRatio="none" width="100%" height="100%" overflow="visible" style="display: block;" viewBox="0 0 16 21.814" fill="none" xmlns="http://www.w3.org/2000/svg">
<g id="Group">
<g id="Vector">
</g>
<path id="Vector_2" d="M9.586 0C10.0556 0.000114731 10.5101 0.165434 10.87 0.467L11 0.586L15.414 5C15.746 5.33202 15.9506 5.77028 15.992 6.238L16 6.414V18C16.0002 18.5046 15.8096 18.9906 15.4665 19.3605C15.1234 19.7305 14.6532 19.9572 14.15 19.995L14 20H2C1.49542 20.0002 1.00943 19.8096 0.639452 19.4665C0.269471 19.1234 0.0428434 18.6532 0.00500021 18.15L1.00268e-07 18V2C-0.000159579 1.49542 0.190406 1.00943 0.533497 0.639452C0.876587 0.269471 1.34684 0.0428433 1.85 0.00500011L2 0H9.586ZM8 2H2V18H14V8H9.5C9.10218 8 8.72064 7.84196 8.43934 7.56066C8.15804 7.27936 8 6.89782 8 6.5V2ZM8 9C8.26522 9 8.51957 9.10536 8.70711 9.29289C8.89464 9.48043 9 9.73478 9 10V12.708L9.414 12.294C9.6026 12.1118 9.8552 12.011 10.1174 12.0133C10.3796 12.0156 10.6304 12.1208 10.8158 12.3062C11.0012 12.4916 11.1064 12.7424 11.1087 13.0046C11.111 13.2668 11.0102 13.5194 10.828 13.708L8.708 15.83C8.61513 15.923 8.50484 15.9967 8.38344 16.0471C8.26204 16.0974 8.13192 16.1233 8.0005 16.1233C7.86908 16.1233 7.73896 16.0974 7.61756 16.0471C7.49616 15.9967 7.38587 15.923 7.293 15.83L5.172 13.708C5.07649 13.6158 5.00031 13.5054 4.9479 13.3834C4.89549 13.2614 4.8679 13.1302 4.86675 12.9974C4.8656 12.8646 4.8909 12.7329 4.94118 12.61C4.99146 12.4872 5.06571 12.3755 5.15961 12.2816C5.2535 12.1877 5.36515 12.1135 5.48805 12.0632C5.61094 12.0129 5.74262 11.9876 5.8754 11.9887C6.00818 11.9899 6.1394 12.0175 6.2614 12.0699C6.38341 12.1223 6.49375 12.1985 6.586 12.294L7 12.708V10C7 9.73478 7.10536 9.48043 7.29289 9.29289C7.48043 9.10536 7.73478 9 8 9ZM10 2.414V6H13.586L10 2.414Z" fill="var(--fill-0, #D62E2F)"/>
</g>
</svg>
