<svg preserveAspectRatio="none" width="100%" height="100%" overflow="visible" style="display: block;" viewBox="0 0 95.6839 11.6945" fill="none" xmlns="http://www.w3.org/2000/svg">
<g id="Group">
<path id="Vector" d="M3.07569 0.267352H92.6082C94.1499 0.267352 95.4078 1.51242 95.4078 3.0554V11.4119H0.276122V3.0554C0.276122 1.52006 1.52634 0.267352 3.07569 0.267352Z" fill="var(--fill-0, #005F8F)"/>
<path id="Vector_2" d="M95.4078 11.6945H0.276122C0.122721 11.6945 0 11.5723 0 11.4196V3.06304C0 1.37493 1.38061 0 3.07569 0H92.6082C94.3033 0 95.6839 1.37493 95.6839 3.06304V11.4196C95.6839 11.5723 95.5612 11.6945 95.4078 11.6945ZM0.559914 11.1369H95.1317V3.0554C95.1317 1.67283 94.0042 0.549973 92.6159 0.549973H3.07569C1.68741 0.549973 0.559914 1.67283 0.559914 3.0554V11.1369Z" fill="var(--fill-0, #000100)"/>
</g>
</svg>
