<svg preserveAspectRatio="none" width="100%" height="100%" overflow="visible" style="display: block;" viewBox="0 0 56.7951 106.236" fill="none" xmlns="http://www.w3.org/2000/svg">
<path id="Vector" d="M25.0734 106.236C13.9441 106.236 0.813022 103.173 0.667291 103.135L0 102.982L0.222426 102.341C1.08147 99.8428 2.33936 81.9992 2.88394 72.9094L2.91461 72.4358L10.3546 70.8776C8.96629 69.1589 5.62214 64.8432 2.60781 59.4198L3.68929 58.8164C7.53199 65.7292 11.9116 70.8165 11.9499 70.8623L12.6402 71.6567L4.09581 73.4441C3.88104 76.9273 2.60781 97.2762 1.56469 102.073C4.70941 102.768 19.1521 105.763 29.4223 104.808C41.1498 103.708 48.3904 100.729 52.2177 95.4201C55.9991 90.1648 56.5666 82.2895 53.9435 71.3359C48.5131 48.5885 35.7808 17.9428 5.99031 1.07702L6.61158 0C36.7856 17.0873 49.6636 48.069 55.1553 71.0456C57.8552 82.3659 57.2263 90.5696 53.2302 96.1304C49.1804 101.752 41.6561 104.899 29.545 106.03C28.1184 106.16 26.6151 106.221 25.0734 106.221V106.236Z" fill="var(--fill-0, #2D2A29)"/>
</svg>
