<svg preserveAspectRatio="none" width="100%" height="100%" overflow="visible" style="display: block;" viewBox="0 0 21.3279 20" fill="none" xmlns="http://www.w3.org/2000/svg">
<g id="Group">
<path id="Vector" d="M5.66417 7C7.32103 7 8.66417 5.65685 8.66417 4C8.66417 2.34315 7.32103 1 5.66417 1C4.00732 1 2.66417 2.34315 2.66417 4C2.66417 5.65685 4.00732 7 5.66417 7Z" stroke="var(--stroke-0, #D62E2F)" stroke-width="2"/>
<path id="Vector_2" d="M8.66417 11H4.48217C3.76677 11 3.07493 11.2557 2.53144 11.7209C1.98794 12.1861 1.62858 12.8302 1.51817 13.537L1.02417 16.69C0.979383 16.9755 0.996983 17.2672 1.07576 17.5453C1.15454 17.8233 1.29263 18.0809 1.48051 18.3004C1.6684 18.52 1.90163 18.6962 2.16414 18.817C2.42665 18.9377 2.71221 19.0002 3.00117 19H7.66417M20.3042 16.691L19.8102 13.537C19.6998 12.8302 19.3404 12.1861 18.7969 11.7209C18.2534 11.2557 17.5616 11 16.8462 11H14.4822C13.7668 11 13.0749 11.2557 12.5314 11.7209C11.9879 12.1861 11.6286 12.8302 11.5182 13.537L11.0252 16.691C10.9806 16.9763 10.9983 17.2679 11.077 17.5457C11.1558 17.8235 11.2939 18.081 11.4816 18.3004C11.6694 18.5198 11.9024 18.6959 12.1647 18.8167C12.427 18.9375 12.7124 19 13.0012 19H18.3272C18.6159 19 18.9013 18.9375 19.1636 18.8167C19.4259 18.6959 19.659 18.5198 19.8467 18.3004C20.0345 18.081 20.1725 17.8235 20.2513 17.5457C20.3301 17.2679 20.3488 16.9763 20.3042 16.691Z" stroke="var(--stroke-0, #D62E2F)" stroke-width="2" stroke-linecap="round" stroke-linejoin="round"/>
<path id="Vector_3" d="M15.6642 7C17.321 7 18.6642 5.65685 18.6642 4C18.6642 2.34315 17.321 1 15.6642 1C14.0073 1 12.6642 2.34315 12.6642 4C12.6642 5.65685 14.0073 7 15.6642 7Z" stroke="var(--stroke-0, #D62E2F)" stroke-width="2"/>
</g>
</svg>
