<svg preserveAspectRatio="none" width="100%" height="100%" overflow="visible" style="display: block;" viewBox="0 0 3.36616 8.67627" fill="none" xmlns="http://www.w3.org/2000/svg">
<path id="Vector" d="M2.26932 8.6445L2.41008 6.59479C2.41008 6.59479 3.14839 6.06516 3.25728 5.32366L3.36616 4.57951C3.36616 4.57951 3.27853 3.88834 2.31447 3.52818C2.09669 3.44609 1.92406 3.27395 1.86032 3.04885C1.66911 2.37886 1.27871 1.0071 1.16716 0.660182C1.0928 0.432437 0.888302 0.209987 0.69974 0.0457984C0.569606 -0.0654259 0.373076 0.0405062 0.399634 0.207343L0.856432 3.12036C0.856432 3.12036 0.224352 3.23159 0.242943 3.793C0.242943 3.793 -0.115587 4.3041 0.0384492 4.84433C0.192485 5.38456 0.819255 6.58155 0.819255 6.58155L0.824563 8.67627L2.27198 8.6445H2.26932Z" fill="url(#paint0_linear_20934_31331)"/>
<defs>
<linearGradient id="paint0_linear_20934_31331" x1="1.15471" y1="-0.349224" x2="2.57231" y2="13.3027" gradientUnits="userSpaceOnUse">
<stop stop-color="#FF8F88"/>
<stop offset="1" stop-color="#FF574C"/>
</linearGradient>
</defs>
</svg>
