<svg preserveAspectRatio="none" width="100%" height="100%" overflow="visible" style="display: block;" viewBox="0 0 189.524 168.327" fill="none" xmlns="http://www.w3.org/2000/svg">
<g id="Group">
<path id="Vector" d="M186.427 110.114L184.725 8.0309C184.69 5.93882 182.929 4.18307 180.807 4.1354L4.80488 0.00156553C2.12518 -0.0619912 -0.0392958 1.81823 0.000541212 4.18042L1.8835 116.999L2.26063 139.53C2.30046 141.892 4.52602 143.695 7.20307 143.537L182.964 133.203C185.083 133.079 186.783 131.265 186.748 129.17L186.43 110.111L186.427 110.114Z" fill="var(--fill-0, #42AFE4)"/>
<path id="Vector_2" d="M126.56 156.788C123.373 155.792 120.959 153.149 120.237 149.863L115.244 127.173L75.805 129.226L71.3433 153.022C70.7192 156.356 73.4971 159.643 76.6522 160.813L93.2695 166.981C96.3609 168.128 99.67 168.551 102.945 168.215L137.786 164.659C138.803 164.555 139.611 163.742 139.711 162.715C139.812 161.687 140.508 160.525 139.531 160.217L126.557 156.783L126.56 156.788Z" fill="var(--fill-0, #42AFE4)"/>
<path id="Vector_3" d="M126.926 155.395C123.742 154.413 121.333 151.804 120.611 148.56L115.629 126.156L77.1515 128.177L72.6897 151.677C72.0656 154.969 73.9167 158.226 77.0692 159.383L93.6679 165.469C96.7566 166.6 100.06 167.018 103.332 166.687L138.139 163.17C139.156 163.067 139.961 162.265 140.062 161.25C140.163 160.236 139.534 159.291 138.559 158.989L126.924 155.398L126.926 155.395Z" fill="url(#paint0_linear_20934_31078)"/>
<path id="Vector_4" d="M189.205 110.114L187.503 8.0309C187.468 5.93882 185.707 4.18307 183.585 4.1354L7.58285 0.00156506C4.9058 -0.0619917 2.73867 1.81823 2.77851 4.18042L4.66147 116.999L189.205 110.114Z" fill="var(--fill-0, #9AE6FF)"/>
<path id="Vector_5" d="M183.633 21.881L183.482 12.8612C183.45 10.9386 181.83 9.33381 179.878 9.29409L12.682 5.85143C10.2466 5.80112 8.27601 7.52245 8.31319 9.67808L8.48316 19.7915L9.95448 107.918C9.99166 110.119 12.0605 111.827 14.5437 111.713L181.389 104.211C183.381 104.121 184.98 102.442 184.945 100.482L183.633 21.8836V21.881Z" fill="url(#paint1_linear_20934_31078)"/>
<path id="Vector_6" d="M4.66147 116.999L5.03859 139.53C5.07843 141.892 7.30399 143.695 9.97838 143.536L185.739 133.203C187.858 133.079 189.558 131.265 189.524 129.17L189.194 109.457L4.66147 116.996V116.999Z" fill="url(#paint2_linear_20934_31078)"/>
</g>
<defs>
<linearGradient id="paint0_linear_20934_31078" x1="105.377" y1="135.434" x2="106.345" y2="157.854" gradientUnits="userSpaceOnUse">
<stop offset="0.49" stop-color="#B1FAFF"/>
<stop offset="1" stop-color="white"/>
</linearGradient>
<linearGradient id="paint1_linear_20934_31078" x1="8.31319" y1="58.7836" x2="184.945" y2="58.7836" gradientUnits="userSpaceOnUse">
<stop offset="0.49" stop-color="#B1FAFF"/>
<stop offset="1" stop-color="white"/>
</linearGradient>
<linearGradient id="paint2_linear_20934_31078" x1="120.903" y1="205.899" x2="96.4056" y2="121.828" gradientUnits="userSpaceOnUse">
<stop offset="0.49" stop-color="#B1FAFF"/>
<stop offset="1" stop-color="white"/>
</linearGradient>
</defs>
</svg>
