<svg preserveAspectRatio="none" width="100%" height="100%" overflow="visible" style="display: block;" viewBox="0 0 24 24" fill="none" xmlns="http://www.w3.org/2000/svg">
<g id="jam:store">
<path id="Vector" d="M8 4H5C4.73479 4 4.48043 4.10536 4.2929 4.29289C4.10536 4.48043 4 4.73478 4 5V7C4 7.26522 4.10536 7.51957 4.2929 7.70711C4.48043 7.89464 4.73479 8 5 8H7C7.26522 8 7.51957 7.89464 7.70711 7.70711C7.89465 7.51957 8 7.26522 8 7V4ZM5.01 10V19.965H7V15C7 14.4696 7.21072 13.9609 7.58579 13.5858C7.96086 13.2107 8.46957 13 9 13H11C11.5304 13 12.0391 13.2107 12.4142 13.5858C12.7893 13.9609 13 14.4696 13 15V19.965H19.013V10H17C16.232 10 15.53 9.711 15 9.236C14.4505 9.72888 13.7381 10.001 13 10H11C10.232 10 9.53 9.711 9 9.236C8.45054 9.72888 7.73814 10.001 7 10H5.01ZM3.01 9.246C2.69197 8.96469 2.43744 8.61893 2.2633 8.23169C2.08916 7.84445 1.99941 7.42459 2 7V5C2 4.20435 2.31607 3.44129 2.87868 2.87868C3.44129 2.31607 4.20435 2 5 2L19 2C19.7957 2 20.5587 2.31607 21.1213 2.87868C21.6839 3.44129 22 4.20435 22 5V7C22 7.882 21.62 8.676 21.013 9.225V19.965C21.013 20.4954 20.8023 21.0041 20.4272 21.3792C20.0521 21.7543 19.5434 21.965 19.013 21.965H11.373C11.25 21.9883 11.1252 22 11 22H9C8.87485 22 8.74998 21.9883 8.627 21.965H5.011C4.48057 21.965 3.97186 21.7543 3.59679 21.3792C3.22172 21.0041 3.011 20.4954 3.011 19.965V9.245L3.01 9.246ZM11 19.966V15H9V19.965L11 19.966ZM14 4H10V7C10 7.26522 10.1054 7.51957 10.2929 7.70711C10.4804 7.89464 10.7348 8 11 8H13C13.2652 8 13.5196 7.89464 13.7071 7.70711C13.8946 7.51957 14 7.26522 14 7V4ZM16 4V7C16 7.26522 16.1054 7.51957 16.2929 7.70711C16.4804 7.89464 16.7348 8 17 8H19C19.2652 8 19.5196 7.89464 19.7071 7.70711C19.8946 7.51957 20 7.26522 20 7V5C20 4.73478 19.8946 4.48043 19.7071 4.29289C19.5196 4.10536 19.2652 4 19 4H16ZM16 13H17C17.2652 13 17.5196 13.1054 17.7071 13.2929C17.8946 13.4804 18 13.7348 18 14V17C18 17.2652 17.8946 17.5196 17.7071 17.7071C17.5196 17.8946 17.2652 18 17 18H16C15.7348 18 15.4804 17.8946 15.2929 17.7071C15.1054 17.5196 15 17.2652 15 17V14C15 13.7348 15.1054 13.4804 15.2929 13.2929C15.4804 13.1054 15.7348 13 16 13Z" fill="var(--fill-0, #D62E2F)"/>
</g>
</svg>
