<svg preserveAspectRatio="none" width="100%" height="100%" overflow="visible" style="display: block;" viewBox="0 0 20.9994 22.814" fill="none" xmlns="http://www.w3.org/2000/svg">
<g id="Group">
<g id="Vector">
</g>
<path id="Vector_2" fill-rule="evenodd" clip-rule="evenodd" d="M8.49928 1C9.07928 1 9.64928 1.058 10.1983 1.17C10.4582 1.22278 10.6865 1.37664 10.833 1.59775C10.9794 1.81886 11.0321 2.08909 10.9793 2.349C10.9265 2.60891 10.7726 2.83721 10.5515 2.98368C10.3304 3.13014 10.0602 3.18278 9.80028 3.13C8.54077 2.87306 7.23335 2.99534 6.04333 3.48139C4.85331 3.96743 3.83412 4.7954 3.11463 5.86063C2.39513 6.92586 2.00764 8.1805 2.00113 9.46594C1.99463 10.7514 2.3694 12.0099 3.07808 13.0823C3.78676 14.1548 4.79752 14.993 5.98256 15.4911C7.1676 15.9892 8.47371 16.1247 9.73575 15.8805C10.9978 15.6363 12.1591 15.0234 13.0729 14.1193C13.9866 13.2152 14.6118 12.0604 14.8693 10.801C14.8954 10.6723 14.9466 10.55 15.02 10.4411C15.0934 10.3322 15.1875 10.2388 15.297 10.1663C15.4065 10.0938 15.5292 10.0435 15.6581 10.0184C15.787 9.99334 15.9196 9.99387 16.0483 10.02C16.177 10.0461 16.2993 10.0974 16.4082 10.1708C16.5171 10.2441 16.6104 10.3383 16.683 10.4477C16.7555 10.5572 16.8057 10.6799 16.8308 10.8088C16.8559 10.9377 16.8554 11.0703 16.8293 11.199C16.5857 12.3916 16.0888 13.518 15.3723 14.502L15.1753 14.762L18.8273 18.414C19.0085 18.5935 19.1143 18.8356 19.123 19.0905C19.1316 19.3455 19.0425 19.5942 18.8738 19.7856C18.7051 19.977 18.4697 20.0967 18.2157 20.1202C17.9616 20.1437 17.7082 20.0692 17.5073 19.912L17.4133 19.828L13.7613 16.176C12.6967 17.015 11.447 17.5872 10.1163 17.8449C8.78562 18.1026 7.4126 18.0384 6.11179 17.6576C4.81098 17.2768 3.6201 16.5904 2.63851 15.6557C1.65692 14.7211 0.913084 13.5652 0.469055 12.2846C0.0250263 11.004 -0.106316 9.63574 0.0859852 8.29404C0.278287 6.95235 0.788656 5.67609 1.57451 4.57175C2.36037 3.46742 3.39893 2.56702 4.60353 1.94569C5.80814 1.32436 7.14387 1.00012 8.49928 1ZM16.9993 0C17.1864 -4.16657e-07 17.3697 0.052478 17.5284 0.151471C17.6872 0.250465 17.815 0.392002 17.8973 0.56L17.9453 0.677L18.0753 1.055C18.2125 1.45718 18.4336 1.82563 18.7239 2.13594C19.0142 2.44625 19.3671 2.69135 19.7593 2.855L19.9443 2.925L20.3223 3.054C20.5095 3.11786 20.6735 3.2358 20.7937 3.3929C20.9138 3.54999 20.9847 3.7392 20.9973 3.93658C21.01 4.13396 20.9638 4.33065 20.8646 4.50178C20.7655 4.67291 20.6178 4.8108 20.4403 4.898L20.3223 4.946L19.9443 5.076C19.5421 5.2132 19.1736 5.43428 18.8633 5.72459C18.553 6.01491 18.3079 6.36783 18.1443 6.76L18.0743 6.945L17.9453 7.323C17.8813 7.51014 17.7633 7.6741 17.6061 7.79416C17.449 7.91423 17.2597 7.98499 17.0624 7.99752C16.865 8.01004 16.6683 7.96376 16.4973 7.86452C16.3262 7.76528 16.1884 7.61755 16.1013 7.44L16.0533 7.323L15.9233 6.945C15.7861 6.54282 15.565 6.17437 15.2747 5.86406C14.9844 5.55375 14.6314 5.30865 14.2393 5.145L14.0543 5.075L13.6763 4.946C13.4891 4.88214 13.325 4.7642 13.2049 4.6071C13.0847 4.45001 13.0138 4.2608 13.0012 4.06342C12.9886 3.86604 13.0348 3.66935 13.1339 3.49822C13.2331 3.32709 13.3808 3.1892 13.5583 3.102L13.6763 3.054L14.0543 2.924C14.4565 2.7868 14.8249 2.56572 15.1352 2.27541C15.4455 1.98509 15.6906 1.63217 15.8543 1.24L15.9243 1.055L16.0533 0.677C16.1207 0.479587 16.2481 0.308185 16.4177 0.18679C16.5873 0.0653942 16.7907 8.32272e-05 16.9993 0ZM16.9993 3.196C16.7627 3.4937 16.493 3.76344 16.1953 4C16.4939 4.23667 16.7619 4.50467 16.9993 4.804C17.2359 4.50533 17.5039 4.23733 17.8033 4C17.5056 3.76344 17.2358 3.4937 16.9993 3.196Z" fill="var(--fill-0, #D62E2F)"/>
</g>
</svg>
