<svg preserveAspectRatio="none" width="100%" height="100%" overflow="visible" style="display: block;" viewBox="0 0 173.398 123.88" fill="none" xmlns="http://www.w3.org/2000/svg">
<g id="Icon Registration">
<path id="1" d="M124.085 72.1158H104.371C102.753 72.1158 101.422 71.4052 100.348 70.3313C99.2885 69.272 98.6265 67.8009 98.6265 66.1826C98.6265 62.946 101.282 60.1994 104.518 60.1994H135.119C136.737 60.1994 138.245 60.96 139.304 62.0339C140.378 63.0932 141.04 64.5643 141.04 66.1826C141.04 69.4192 138.355 72.1158 135.119 72.1158H132.912" stroke="var(--stroke-0, #D62E2F)" stroke-width="3" stroke-miterlimit="10"/>
<path id="2" d="M168.07 114.549L166.793 111.69C166.793 111.69 165.859 109.639 165.984 108.392C166.109 107.144 166.443 104.699 166.109 101.07C165.775 97.442 165.075 93.7273 162.61 88.7797M140.371 88.6267L131.057 67.7671C130.198 65.8428 127.919 64.9704 125.993 65.8296C124.222 66.6196 123.419 68.716 124.209 70.4858L136.728 98.5262C137.218 99.6252 133.359 99.0985 131.333 97.617C129.309 96.1356 120.514 93.08 118.77 99.4795C122.583 100.854 126.437 103.481 126.437 103.481C126.437 103.481 133.525 111.115 136.31 111.846C139.129 112.586 143.029 113.379 146.984 117.286C147.787 118.081 148.468 118.911 148.974 119.612C150.55 123.142 150.628 122.29 150.628 122.29M141.121 90.3068L136.603 80.1867C136.113 79.0877 137.118 77.0031 139.094 76.1027C141.071 75.2009 142.836 76.091 143.326 77.1884L147.844 87.3086M148.595 88.9886L144.817 80.5265C144.213 79.1745 144.825 77.5754 146.179 76.9722L147.493 76.3867C149.115 75.6628 151.035 76.3984 151.761 78.0197L156.07 87.6705M162.612 88.7812L159.873 82.6465C159.106 80.9311 157.095 80.1617 155.378 80.9267L155.29 80.9664C154.27 81.421 153.811 82.617 154.267 83.6366L156.818 89.3506M30.6661 19.154V39.7503M30.6661 60.3466V80.9429M19.7251 72.519C26.6616 66.8167 23.0469 55.1534 23.0469 55.1534C23.0469 55.1534 25.2507 50.9355 25.3375 46.0101C25.4243 41.0831 20.8476 39.1868 20.8417 39.5237C20.8358 39.8591 18.1097 49.2437 18.1097 49.2437C18.1097 49.2437 13.1798 54.7252 12.0279 56.4965C10.876 58.2678 9.42103 64.5144 9.42103 64.5144L1.50028 68.8558M30.6661 48.5772V51.5196M74.801 29.4521H92.455M61.5605 29.4521H70.3875M149.83 35.3368H54.2047M130.705 97.1257H135.119M160.129 82.414V10.327H39.4931V97.1257H118.936M166.606 104.264C169.672 103.194 171.898 100.74 171.898 97.2728V10.327C171.898 5.45155 168.093 1.5 163.218 1.5H29.1949C24.3195 1.5 20.368 5.45155 20.368 10.327V41.0743M129.234 82.414H52.7336V22.0963H149.83V75.0582M10.9834 87.4925L20.3709 82.8009M20.368 72.1144V98.4482C20.368 103.324 24.3195 107.275 29.1949 107.275H129.234M124.731 71.6554C124.731 71.6554 126.615 73.7194 129.122 72.466C130.539 71.7569 131.383 70.4549 131.445 68.638M60.0894 52.9893H96.8685V42.6911H60.0894V52.9893ZM104.224 52.9893H141.003V42.6911H104.224V52.9893Z" stroke="var(--stroke-0, white)" stroke-width="3" stroke-linecap="round" stroke-linejoin="round"/>
</g>
</svg>
