<svg preserveAspectRatio="none" width="100%" height="100%" overflow="visible" style="display: block;" viewBox="0 0 15.5147 21.5" fill="none" xmlns="http://www.w3.org/2000/svg">
<path id="Vector" d="M4.00745 16.75H11.5075V18.25H4.00745V16.75ZM5.50745 19.75H10.0075V21.25H5.50745V19.75ZM7.75745 0.25C5.76833 0.25 3.86067 1.04018 2.45415 2.4467C1.04763 3.85322 0.25745 5.76088 0.25745 7.75C0.206731 8.84 0.415531 9.92647 0.866672 10.92C1.31781 11.9136 1.9984 12.7858 2.85245 13.465C3.60245 14.1625 4.00745 14.56 4.00745 15.25H5.50745C5.50745 13.87 4.67495 13.0975 3.86495 12.355C3.16397 11.8182 2.6053 11.1177 2.23789 10.3149C1.87047 9.51205 1.70551 8.63138 1.75745 7.75C1.75745 6.1587 2.38959 4.63258 3.51481 3.50736C4.64003 2.38214 6.16615 1.75 7.75745 1.75C9.34875 1.75 10.8749 2.38214 12.0001 3.50736C13.1253 4.63258 13.7575 6.1587 13.7575 7.75C13.8085 8.63203 13.6424 9.51312 13.2737 10.316C12.9049 11.1189 12.3448 11.819 11.6425 12.355C10.84 13.105 10.0075 13.855 10.0075 15.25H11.5075C11.5075 14.56 11.905 14.1625 12.6625 13.4575C13.5159 12.7795 14.1962 11.9085 14.6473 10.9163C15.0985 9.92403 15.3076 8.83884 15.2575 7.75C15.2575 6.76509 15.0635 5.78982 14.6865 4.87987C14.3096 3.96993 13.7572 3.14314 13.0608 2.4467C12.3643 1.75026 11.5375 1.19781 10.6276 0.820904C9.71763 0.443993 8.74236 0.25 7.75745 0.25Z" fill="var(--fill-0, #D62E2F)" stroke="var(--stroke-0, #D62E2F)" stroke-width="0.5" stroke-linejoin="round"/>
</svg>
