<svg preserveAspectRatio="none" width="100%" height="100%" overflow="visible" style="display: block;" viewBox="0 0 22 22" fill="none" xmlns="http://www.w3.org/2000/svg">
<path id="Vector" d="M19.963 2.35712H12.2222V1.17856C12.2222 0.865987 12.0935 0.566216 11.8642 0.345193C11.635 0.124169 11.3242 0 11 0C10.6758 0 10.365 0.124169 10.1358 0.345193C9.90655 0.566216 9.77778 0.865987 9.77778 1.17856V2.35712H2.03704C1.49678 2.35712 0.978653 2.56407 0.596634 2.93244C0.214616 3.30081 0 3.80043 0 4.32139V16.107C0 16.628 0.214616 17.1276 0.596634 17.4959C0.978653 17.8643 1.49678 18.0713 2.03704 18.0713H5.19444L3.52407 20.0846C3.32148 20.3287 3.22773 20.6404 3.26345 20.9511C3.29916 21.2618 3.46143 21.5461 3.71454 21.7415C3.96765 21.9369 4.29087 22.0273 4.6131 21.9928C4.93534 21.9584 5.23018 21.8019 5.43278 21.5578L8.32537 18.0713H13.6685L16.5611 21.5578C16.6614 21.6787 16.7854 21.7793 16.9261 21.8539C17.0667 21.9286 17.2212 21.9758 17.3808 21.9928C17.5403 22.0099 17.7018 21.9965 17.856 21.9533C18.0102 21.9102 18.154 21.8382 18.2794 21.7415C18.4047 21.6448 18.509 21.5252 18.5864 21.3896C18.6638 21.254 18.7128 21.105 18.7304 20.9511C18.7481 20.7973 18.7342 20.6415 18.6895 20.4929C18.6448 20.3442 18.5701 20.2055 18.4698 20.0846L16.8056 18.0713H19.963C20.5032 18.0713 21.0213 17.8643 21.4034 17.4959C21.7854 17.1276 22 16.628 22 16.107V4.32139C22 3.80043 21.7854 3.30081 21.4034 2.93244C21.0213 2.56407 20.5032 2.35712 19.963 2.35712ZM19.5556 15.7141H2.44444V4.71424H19.5556V15.7141Z" fill="var(--fill-0, #D62E2F)"/>
</svg>
