<svg preserveAspectRatio="none" width="100%" height="100%" overflow="visible" style="display: block;" viewBox="0 0 22.2545 15.7091" fill="none" xmlns="http://www.w3.org/2000/svg">
<g id="Group">
<path id="Vector" fill-rule="evenodd" clip-rule="evenodd" d="M13.0909 0H3.92727C2.8857 0 1.88678 0.413765 1.15027 1.15027C0.413765 1.88678 0 2.8857 0 3.92727V11.7818C0 12.8234 0.413765 13.8223 1.15027 14.5588C1.88678 15.2953 2.8857 15.7091 3.92727 15.7091H13.0909C14.1325 15.7091 15.1314 15.2953 15.8679 14.5588C16.6044 13.8223 17.0182 12.8234 17.0182 11.7818V3.92727C17.0182 2.8857 16.6044 1.88678 15.8679 1.15027C15.1314 0.413765 14.1325 0 13.0909 0ZM2.61818 3.92727C2.61818 3.58008 2.7561 3.24711 3.00161 3.00161C3.24711 2.7561 3.58008 2.61818 3.92727 2.61818H13.0909C13.4381 2.61818 13.7711 2.7561 14.0166 3.00161C14.2621 3.24711 14.4 3.58008 14.4 3.92727V11.7818C14.4 12.129 14.2621 12.462 14.0166 12.7075C13.7711 12.953 13.4381 13.0909 13.0909 13.0909H3.92727C3.58008 13.0909 3.24711 12.953 3.00161 12.7075C2.7561 12.462 2.61818 12.129 2.61818 11.7818V3.92727Z" fill="var(--fill-0, #D62E2F)"/>
<path id="Vector_2" fill-rule="evenodd" clip-rule="evenodd" d="M20.2045 1.53949L15.6646 4.65644C15.4911 4.77552 15.3489 4.93467 15.25 5.12039C15.1511 5.30611 15.0984 5.51294 15.0964 5.72335L15.0545 9.93207C15.0525 10.1467 15.1032 10.3585 15.2023 10.5489C15.3014 10.7393 15.4457 10.9024 15.6227 11.0239L20.2045 14.1696C20.4011 14.3045 20.6307 14.3832 20.8687 14.3972C21.1067 14.4112 21.344 14.3599 21.555 14.2489C21.766 14.1379 21.9427 13.9713 22.066 13.7673C22.1892 13.5632 22.2544 13.3293 22.2545 13.0909V2.61818C22.2544 2.37977 22.1892 2.1459 22.066 1.94183C21.9427 1.73776 21.766 1.57123 21.555 1.46021C21.344 1.34919 21.1067 1.2979 20.8687 1.31187C20.6307 1.32584 20.4011 1.40455 20.2045 1.53949ZM19.6364 10.6036L17.6793 9.26051L17.7081 6.42895L19.6364 5.10545V10.6036Z" fill="var(--fill-0, #D62E2F)"/>
</g>
</svg>
