<svg preserveAspectRatio="none" width="100%" height="100%" overflow="visible" style="display: block;" viewBox="0 0 36 36" fill="none" xmlns="http://www.w3.org/2000/svg">
<g id="Group 78">
<circle id="Ellipse 6" cx="18" cy="18" r="18" fill="var(--fill-0, #D62E2F)"/>
<g id="cib:linkedin-in">
<path id="Vector" d="M14.3924 23.875H11.3085V13.9438H14.3924V23.875ZM12.8486 12.5891C11.8626 12.5891 11.0625 11.7721 11.0625 10.7861C11.0625 10.3124 11.2507 9.85808 11.5856 9.52313C11.9206 9.18817 12.3749 9 12.8486 9C13.3223 9 13.7765 9.18817 14.1115 9.52313C14.4465 9.85808 14.6346 10.3124 14.6346 10.7861C14.6346 11.7721 13.8346 12.5891 12.8486 12.5891ZM25.9343 23.875H22.8573V19.0406C22.8573 17.8883 22.8339 16.4109 21.254 16.4109C19.6507 16.4109 19.4047 17.6626 19.4047 18.9577V23.875H16.324V13.9438H19.2815V15.2985H19.3245C19.7362 14.5181 20.7419 13.6947 22.2421 13.6947C25.3632 13.6947 25.937 15.7501 25.937 18.4196V23.875H25.9343Z" fill="var(--fill-0, white)"/>
</g>
</g>
</svg>
