<svg preserveAspectRatio="none" width="100%" height="100%" overflow="visible" style="display: block;" viewBox="0 0 3.35948 3.34566" fill="none" xmlns="http://www.w3.org/2000/svg">
<g id="Group">
<path id="Vector" d="M3.07569 1.67283C3.07569 2.44432 2.44675 3.06304 1.67974 3.06304C0.912736 3.06304 0.283792 2.43668 0.283792 1.67283C0.283792 0.908983 0.912736 0.282627 1.67974 0.282627C2.44675 0.282627 3.07569 0.908983 3.07569 1.67283Z" fill="var(--fill-0, #2D2A29)"/>
<path id="Vector_2" d="M1.67974 3.34566C0.751665 3.34566 0 2.59709 0 1.67283C0 0.748574 0.751665 0 1.67974 0C2.60782 0 3.35948 0.748574 3.35948 1.67283C3.35948 2.59709 2.60782 3.34566 1.67974 3.34566ZM1.67974 0.557613C1.05847 0.557613 0.559914 1.05411 0.559914 1.67283C0.559914 2.29155 1.06614 2.78805 1.67974 2.78805C2.29335 2.78805 2.79957 2.29155 2.79957 1.67283C2.79957 1.05411 2.29335 0.557613 1.67974 0.557613Z" fill="var(--fill-0, #000100)"/>
</g>
</svg>
