<svg preserveAspectRatio="none" width="100%" height="100%" overflow="visible" style="display: block;" viewBox="0 0 96.5218 101.918" fill="none" xmlns="http://www.w3.org/2000/svg">
<g id="Group">
<path id="Vector" d="M45.9148 50.7656L29.3859 2.41391C29.3859 2.41391 15.7332 7.17269 0.669188 10.1517C0.669188 10.1517 -0.680742 50.4295 10.2491 71.7638C40.1009 130.007 76.1732 84.1076 76.1732 84.1076L95.7855 0.779272C95.7855 0.779272 67.1225 -4.50656 45.9225 50.7656H45.9148Z" fill="var(--fill-0, #A3C0CE)"/>
<path id="Vector_2" d="M39.4873 101.256C28.3504 98.7277 18.341 88.9275 9.69684 72.0541C-1.18696 50.8267 0.0325739 10.5413 0.047914 10.1364L0.0632537 9.64757L0.546467 9.54827C15.3957 6.61509 29.033 1.87922 29.1711 1.83338L29.7617 1.62715L29.9611 2.21531L45.9378 48.9629C67.0151 -4.48365 94.6964 -0.0456832 95.8852 0.175833L96.5218 0.290412L96.3684 0.924408L76.6411 84.4972C76.4877 84.6881 61.4083 103.586 42.7931 101.798C41.6733 101.691 40.5688 101.516 39.472 101.264L39.4873 101.256ZM1.27512 10.6635C1.17541 15.3153 0.715209 51.7968 10.8013 71.4888C20.0974 89.6226 30.8892 99.3922 42.9312 100.561C60.1658 102.218 74.3861 85.3221 75.6056 83.8326L95.0185 1.31397C90.6619 1.00079 65.4811 1.50493 46.4978 50.9871L45.8842 52.5912L29.0024 3.20832C26.2488 4.13257 14.2759 8.0664 1.28279 10.6711L1.27512 10.6635Z" fill="var(--fill-0, #2D2A29)"/>
</g>
</svg>
