<svg preserveAspectRatio="none" width="100%" height="100%" overflow="visible" style="display: block;" viewBox="0 0 156.35 163.213" fill="none" xmlns="http://www.w3.org/2000/svg">
<g id="Group">
<path id="Vector" d="M63.329 127.71C81.898 127.71 96.9512 112.643 96.9512 94.0578C96.9512 75.4724 81.898 60.4059 63.329 60.4059C44.76 60.4059 29.7068 75.4724 29.7068 94.0578C29.7068 112.643 44.76 127.71 63.329 127.71Z" fill="var(--fill-0, #2D2A29)"/>
<path id="Vector_2" d="M115.599 90.3807C126.032 86.0552 130.987 74.0835 126.665 63.6409C122.344 53.1984 110.382 48.2396 99.9491 52.565C89.5158 56.8904 84.5613 68.8622 88.8829 79.3047C93.2045 89.7472 105.166 94.7061 115.599 90.3807Z" fill="var(--fill-0, #2D2A29)"/>
<path id="Vector_3" d="M49.543 91.0143L103.127 62.0454C109.522 58.5861 117.501 60.7354 121.294 66.9402L131.553 83.7034L87.0761 112.915L49.543 91.0064V91.0143Z" fill="var(--fill-0, #005F8F)"/>
<path id="Vector_4" d="M82.4512 75.0588C99.6067 67.9464 107.753 48.2611 100.647 31.0904C93.5413 13.9197 73.8734 5.76578 56.7179 12.8781C39.5623 19.9905 31.4156 39.6758 38.5216 56.8465C45.6277 74.0172 65.2956 82.1711 82.4512 75.0588Z" fill="var(--fill-0, #2D2A29)"/>
<path id="Vector_5" d="M58.9166 65.6223C59.9433 65.7008 60.9464 65.6537 61.9418 65.5125L65.7899 81.1383L56.1265 85.8135L56.0559 85.8527C60.8681 94.2147 67.3025 99.337 74.3797 99.337C86.5276 99.337 96.7945 84.2682 100.18 63.5436C95.9402 64.8771 91.8334 66.8068 88.001 69.3719L84.1528 53.7304C85.0149 54.0363 85.9162 54.1619 86.8254 54.0442C91.0889 53.5029 93.9103 48.2316 93.0012 42.3719C92.1626 36.9594 88.2439 32.9509 84.2704 33.4216C81.3941 33.7589 79.1761 36.2612 78.2905 39.6343C77.4206 29.1229 70.8372 20.7766 62.2631 20.1413C52.4743 19.4196 43.7905 29.0131 42.8579 41.5718C41.9331 54.1305 49.1199 64.8928 58.9087 65.6145L58.9166 65.6223Z" fill="var(--fill-0, #A3C0CE)"/>
<path id="Vector_6" d="M79.3797 35.6887C79.2073 35.8221 79.0349 35.9554 78.8546 36.0809C68.8855 43.1251 53.5165 38.7323 44.5427 26.2756C44.4408 26.1344 44.3468 25.9932 44.2449 25.852C47.1604 22.5809 50.8831 20.3296 55.1545 19.5766C65.0766 17.8273 76.4564 19.2236 79.3719 35.6887H79.3797Z" fill="var(--fill-0, #2D2A29)"/>
<path id="Vector_7" d="M62.4354 66.1793C62.0827 66.1793 61.7692 65.944 61.6751 65.591C61.5654 65.1753 61.8162 64.7438 62.2394 64.634C67.177 63.3632 71.5032 59.3784 74.0973 53.707C74.2776 53.3147 74.74 53.1422 75.1397 53.3226C75.5316 53.503 75.704 53.9658 75.5237 54.3659C72.7258 60.4687 68.0312 64.7674 62.6313 66.1637C62.5686 66.1793 62.4981 66.1872 62.4354 66.1872V66.1793Z" fill="var(--fill-0, #073146)"/>
<path id="Vector_8" d="M48.0852 43.478C48.5006 43.9565 47.7482 45.2743 46.4159 46.4196C45.0835 47.5648 43.665 48.0982 43.2574 47.6197C42.8499 47.1412 43.5944 45.8234 44.9268 44.6781C46.2591 43.5329 47.6777 42.9995 48.0852 43.478Z" fill="var(--fill-0, #070A17)"/>
<path id="Vector_9" d="M63.7992 43.1093C63.7757 43.8938 61.9966 44.4899 59.8178 44.435C57.639 44.3801 55.8913 43.6977 55.9148 42.9054C55.9383 42.1131 57.7174 41.5248 59.8962 41.5797C62.0749 41.6346 63.8227 42.3171 63.7992 43.1093Z" fill="var(--fill-0, #070A17)"/>
<path id="Vector_10" d="M53.0542 54.0681C52.9131 54.0681 52.7721 54.0289 52.6467 53.9504C51.6356 53.3307 51.0243 52.209 51.0478 51.0245L51.1419 45.8708C51.1497 45.4394 51.5024 45.0785 51.9413 45.1021C52.3724 45.1099 52.7172 45.4708 52.7094 45.9022L52.6153 51.0559C52.5996 51.6991 52.921 52.2796 53.4696 52.6169C53.8379 52.8444 53.9555 53.3307 53.7282 53.6994C53.5793 53.9426 53.3207 54.0759 53.062 54.0759L53.0542 54.0681Z" fill="var(--fill-0, #073146)"/>
<path id="Vector_11" d="M55.6403 60.6316C55.1309 60.6316 54.5588 60.5375 53.9083 60.3022C53.5007 60.1531 53.2891 59.706 53.438 59.2981C53.587 58.8902 54.0337 58.6784 54.4412 58.8275C56.3614 59.5178 56.91 58.5372 57.004 58.3411C57.1843 57.9567 57.6389 57.7685 58.0307 57.9411C58.4226 58.1136 58.6107 58.5529 58.4461 58.953C58.164 59.6354 57.2705 60.6395 55.6403 60.6395V60.6316Z" fill="var(--fill-0, #073146)"/>
<path id="Vector_12" d="M82.2874 44.4824C81.9269 44.4824 81.6055 44.2314 81.5193 43.8627C81.0256 41.6192 81.2842 39.7366 82.2717 38.2462C83.6981 36.1047 86.1277 35.6498 86.2296 35.6262C86.6528 35.5478 87.0603 35.8302 87.1387 36.2616C87.2171 36.6852 86.9349 37.0931 86.5117 37.1715C86.4725 37.1715 84.6072 37.5559 83.5649 39.1326C82.8282 40.2465 82.6557 41.7291 83.0476 43.5254C83.1417 43.949 82.8752 44.3647 82.452 44.4589C82.3971 44.4746 82.3422 44.4746 82.2795 44.4746L82.2874 44.4824Z" fill="var(--fill-0, #073146)"/>
<path id="Vector_13" d="M47.8424 50.6321C47.8973 51.5577 47.4584 52.3343 46.8549 52.3735C46.2593 52.4127 45.7263 51.691 45.6715 50.7654C45.6166 49.8398 46.0555 49.0632 46.659 49.024C47.2546 48.9848 47.7875 49.7064 47.8424 50.6321Z" fill="var(--fill-0, #070A17)"/>
<path id="Vector_14" d="M60.2959 48.1299C60.3507 49.0555 59.9118 49.8321 59.3084 49.8713C58.7127 49.9105 58.1798 49.1889 58.1249 48.2632C58.0701 47.3376 58.5089 46.561 59.1124 46.5218C59.7081 46.4826 60.241 47.2043 60.2959 48.1299Z" fill="var(--fill-0, #070A17)"/>
<path id="Vector_15" d="M14.0556 74.8317H149.438C153.255 74.8317 156.35 77.9302 156.35 81.7503V156.294C156.35 160.115 153.255 163.213 149.438 163.213H14.0556C10.2388 163.213 7.14302 160.115 7.14302 156.294V81.7503C7.14302 77.9302 10.2388 74.8317 14.0556 74.8317Z" fill="var(--fill-0, white)"/>
<path id="Vector_16" d="M18.4757 82.3307C18.4757 83.7113 17.3549 84.8331 15.9755 84.8331C14.5962 84.8331 13.4754 83.7113 13.4754 82.3307C13.4754 80.9502 14.5962 79.8284 15.9755 79.8284C17.3549 79.8284 18.4757 80.9502 18.4757 82.3307Z" fill="var(--fill-0, #D62E2F)"/>
<path id="Vector_17" d="M24.385 84.8331C25.7658 84.8331 26.8852 83.7127 26.8852 82.3307C26.8852 80.9488 25.7658 79.8284 24.385 79.8284C23.0043 79.8284 21.8849 80.9488 21.8849 82.3307C21.8849 83.7127 23.0043 84.8331 24.385 84.8331Z" fill="var(--fill-0, #005F8F)"/>
<path id="Vector_18" d="M32.7867 84.8331C34.1675 84.8331 35.2868 83.7127 35.2868 82.3307C35.2868 80.9488 34.1675 79.8284 32.7867 79.8284C31.4059 79.8284 30.2866 80.9488 30.2866 82.3307C30.2866 83.7127 31.4059 84.8331 32.7867 84.8331Z" fill="var(--fill-0, #A3C0CE)"/>
<g id="Group_2">
<path id="Vector_19" d="M6.81386 104.161L6.85305 109.558L3.24787 106.107C1.85282 104.773 0.990719 102.985 0.81046 101.063C0.653713 99.3528 1.25718 98.4664 3.31057 97.2113L14.181 91.0535L14.6747 93.6108C15.0274 95.4385 14.4004 97.3133 13.021 98.5526L6.8217 104.161H6.81386Z" fill="var(--fill-0, #A3C0CE)"/>
<path id="Vector_20" d="M6.85297 110.343C6.65704 110.343 6.4611 110.264 6.31219 110.123L2.70701 106.672C1.17873 105.205 0.222578 103.236 0.026644 101.133C-0.184964 98.8822 0.873074 97.784 2.89511 96.5368L13.789 90.3633C14.0085 90.2378 14.2749 90.23 14.5022 90.3319C14.7295 90.4418 14.8941 90.6457 14.9411 90.8967L15.427 93.454C15.8267 95.5327 15.0979 97.7055 13.5304 99.1254L7.58968 104.499L7.62887 109.543C7.62887 109.856 7.44861 110.147 7.15863 110.272C7.05674 110.319 6.95485 110.335 6.84513 110.335L6.85297 110.343ZM13.6166 92.2695L3.69452 97.886C1.77437 99.0626 1.46871 99.7215 1.58627 100.984C1.75086 102.718 2.52675 104.334 3.78857 105.534L6.05356 107.707L6.03005 104.169C6.03005 103.942 6.1241 103.73 6.28868 103.581L12.488 97.9722C13.6558 96.9211 14.1966 95.3052 13.8987 93.7599L13.6166 92.2773V92.2695Z" fill="var(--fill-0, #073146)"/>
</g>
<g id="Group_3">
<path id="Vector_21" d="M6.86104 111.26L6.90023 116.657L3.29505 113.206C1.9 111.872 1.03789 110.084 0.857634 108.162C0.700887 106.452 1.73542 104.859 3.35775 104.31L17.2142 99.4077L17.4258 102.961C17.5355 104.797 16.5558 106.53 14.9257 107.377L6.86888 111.268L6.86104 111.26Z" fill="var(--fill-0, #A3C0CE)"/>
<path id="Vector_22" d="M6.9079 117.434C6.71197 117.434 6.51603 117.355 6.36712 117.214L2.76195 113.763C1.23366 112.296 0.285346 110.335 0.0815755 108.225C-0.114358 106.146 1.13178 104.224 3.11462 103.557L16.9632 98.6546C17.1905 98.5761 17.4491 98.6075 17.6607 98.7408C17.8645 98.8742 17.9977 99.1017 18.0134 99.3448L18.225 102.898C18.3504 105.04 17.2062 107.064 15.3017 108.06L7.66813 111.747L7.70731 116.641C7.70731 116.955 7.52705 117.245 7.23707 117.371C7.13518 117.418 7.0333 117.434 6.92357 117.434H6.9079ZM16.493 100.482L3.61621 105.04C2.31521 105.479 1.50797 106.726 1.63337 108.083C1.79795 109.817 2.57385 111.433 3.83566 112.633L6.10066 114.806L6.07714 111.268C6.07714 110.962 6.24956 110.688 6.52387 110.554L14.5807 106.664C15.913 105.965 16.7359 104.522 16.6419 103L16.493 100.49V100.482Z" fill="var(--fill-0, #073146)"/>
</g>
<g id="Group_4">
<path id="Vector_23" d="M6.91558 118.352L6.95476 123.749L3.34959 120.297C1.95454 118.964 1.09243 117.175 0.912172 115.253C0.755425 113.543 1.78996 111.951 3.41229 111.402L16.0931 106.97L16.3047 110.523C16.4144 112.359 15.4348 114.092 13.8046 114.94L6.92341 118.36L6.91558 118.352Z" fill="var(--fill-0, #A3C0CE)"/>
<path id="Vector_24" d="M6.96264 124.533C6.7667 124.533 6.57077 124.455 6.42186 124.313L2.81668 120.862C1.2884 119.395 0.340081 117.434 0.13631 115.324C-0.0596233 113.245 1.18651 111.323 3.16936 110.657L15.8423 106.225C16.0775 106.146 16.3283 106.177 16.532 106.311C16.7358 106.444 16.8612 106.672 16.8769 106.915L17.0885 110.468C17.2139 112.61 16.0696 114.634 14.1652 115.63L7.71502 118.838L7.7542 123.741C7.7542 124.055 7.57395 124.345 7.28397 124.47C7.18208 124.517 7.08019 124.533 6.97047 124.533H6.96264ZM15.3721 108.044L3.67095 112.139C2.37779 112.578 1.56271 113.826 1.69594 115.183C1.86052 116.916 2.63642 118.532 3.89823 119.732L6.16322 121.905L6.13971 118.367C6.13971 118.069 6.3043 117.795 6.57077 117.661L13.452 114.241C14.7921 113.543 15.6151 112.1 15.521 110.57L15.3721 108.06V108.044Z" fill="var(--fill-0, #073146)"/>
</g>
<g id="Group_5">
<path id="Vector_25" d="M6.97058 125.098L7.00977 130.495L3.40459 127.043C2.00954 125.71 1.14744 123.921 0.967177 121.999C0.81043 120.289 1.84496 118.697 3.46729 118.148L14.4709 114.429L14.6825 117.983C14.7923 119.818 13.8126 121.552 12.1824 122.399L6.97842 125.105L6.97058 125.098Z" fill="var(--fill-0, #A3C0CE)"/>
<path id="Vector_26" d="M7.00979 131.279C6.81386 131.279 6.61792 131.2 6.46901 131.059L2.86383 127.608C1.33555 126.141 0.379396 124.18 0.183463 122.07C-0.0124709 119.991 1.23367 118.069 3.21652 117.402L14.2201 113.684C14.4553 113.606 14.7061 113.637 14.9098 113.778C15.1136 113.912 15.239 114.139 15.2547 114.382L15.4663 117.936C15.5917 120.077 14.4474 122.101 12.543 123.097L7.77001 125.584L7.8092 130.494C7.8092 130.808 7.62894 131.099 7.33896 131.224C7.23707 131.271 7.13519 131.287 7.02547 131.287L7.00979 131.279ZM13.7421 115.496L3.71027 118.885C2.42494 119.316 1.60986 120.571 1.74309 121.921C1.90768 123.654 2.68358 125.27 3.94539 126.47L6.21038 128.643L6.18687 125.105C6.18687 124.807 6.34361 124.541 6.61008 124.407L11.8141 121.701C13.1699 120.995 13.985 119.552 13.8988 118.03L13.7499 115.504L13.7421 115.496Z" fill="var(--fill-0, #073146)"/>
</g>
<g id="Vector_27">
</g>
<g id="Group_6">
<path id="Vector_28" d="M93.7456 72.1019L91.99 69.5839C91.3631 68.6818 90.3285 68.1406 89.2313 68.1406H85.6731C84.3565 68.1406 83.1652 68.9015 82.6166 70.1016L81.0883 73.4198C80.6494 74.3689 80.6807 75.4749 81.1667 76.4006L83.8706 81.5386H88.5494C89.7407 81.5386 90.8458 80.911 91.4493 79.8834L93.8867 75.7495C94.5607 74.6121 94.5058 73.1923 93.7534 72.1098L93.7456 72.1019Z" fill="var(--fill-0, #A3C0CE)"/>
<path id="Vector_29" d="M88.5416 82.3153H83.8628C83.5728 82.3153 83.3063 82.1506 83.1731 81.8995L80.4692 76.7615C79.8735 75.6241 79.8344 74.2514 80.3751 73.0826L81.9034 69.7645C82.5774 68.2976 84.0587 67.3484 85.6732 67.3484H89.2313C90.5872 67.3484 91.8647 68.0152 92.6327 69.1291L94.3883 71.6471C95.3131 72.9806 95.3836 74.7377 94.5529 76.134L92.1155 80.2679C91.3709 81.523 89.9994 82.3074 88.5416 82.3074V82.3153ZM84.333 80.7464H88.5416C89.4508 80.7464 90.305 80.2601 90.7675 79.4757L93.2049 75.3417C93.7221 74.471 93.6751 73.3728 93.103 72.5492L91.3474 70.0312C90.8615 69.3409 90.0699 68.9251 89.2313 68.9251H85.6732C84.67 68.9251 83.7452 69.5134 83.3298 70.4234L81.8015 73.7415C81.4645 74.471 81.488 75.326 81.8642 76.032L84.3487 80.7464H84.333Z" fill="var(--fill-0, #073146)"/>
</g>
<g id="Group_7">
<path id="Vector_30" d="M97.2646 74.7137L103.409 74.7608L99.4747 70.6426C97.9543 69.0502 95.9166 68.0618 93.73 67.8578C91.7863 67.6774 89.968 68.8541 89.3411 70.7132L83.753 86.5194L87.7971 86.7547C89.8897 86.8802 91.8568 85.7585 92.8287 83.8994L97.2646 74.7059V74.7137Z" fill="var(--fill-0, #A3C0CE)"/>
<path id="Vector_31" d="M88.1105 87.5551C87.993 87.5551 87.8754 87.5551 87.75 87.5472L83.706 87.3119C83.463 87.2962 83.2357 87.1707 83.1025 86.9589C82.9692 86.755 82.9379 86.4961 83.0163 86.2608L88.6043 70.4546C89.3488 68.2582 91.4884 66.8619 93.8083 67.0815C96.183 67.3012 98.401 68.3758 100.047 70.1016L103.981 74.2198C104.201 74.4473 104.255 74.7846 104.138 75.0748C104.013 75.3651 103.738 75.5298 103.409 75.5455L97.7583 75.4984L93.5418 84.2448C92.4759 86.2921 90.3834 87.5551 88.1184 87.5551H88.1105ZM84.8424 85.798L87.8441 85.9784C89.6231 86.0803 91.3082 85.1312 92.1311 83.5388L96.5514 74.3689C96.6846 74.0943 96.9589 73.9217 97.2567 73.9217L101.544 73.9531L98.8947 71.1762C97.5075 69.725 95.6422 68.823 93.6437 68.6347C92.0449 68.4857 90.5793 69.4427 90.0699 70.9566L84.8267 85.7901L84.8424 85.798Z" fill="var(--fill-0, #073146)"/>
</g>
<g id="Group_8">
<path id="Vector_32" d="M105.345 74.7763L111.489 74.8234L107.555 70.7052C106.034 69.1128 103.997 68.1244 101.81 67.9205C99.8665 67.74 98.0482 68.9167 97.4212 70.7758L92.374 85.2406L96.418 85.4759C98.5106 85.6014 100.478 84.4797 101.45 82.6206L105.353 74.7685L105.345 74.7763Z" fill="var(--fill-0, #A3C0CE)"/>
<path id="Vector_33" d="M96.7315 86.2763C96.614 86.2763 96.4964 86.2763 96.371 86.2685L92.3269 86.0331C92.084 86.0174 91.8567 85.8919 91.7235 85.688C91.5902 85.484 91.551 85.2252 91.6373 84.9977L96.6845 70.5329C97.4291 68.3286 99.5686 66.9402 101.889 67.1598C104.263 67.3795 106.481 68.4541 108.127 70.1799L112.061 74.2981C112.281 74.5256 112.336 74.8629 112.218 75.1531C112.093 75.4434 111.811 75.6238 111.489 75.6238L105.839 75.5767L102.155 82.9896C101.097 85.0291 98.9965 86.292 96.7394 86.292L96.7315 86.2763ZM93.4555 84.5192L96.4651 84.6996C98.252 84.8016 99.9292 83.8524 100.752 82.2679L104.647 74.4315C104.78 74.1648 105.063 73.9843 105.353 74L109.64 74.0314L106.991 71.2545C105.603 69.8033 103.738 68.9013 101.74 68.713C100.149 68.5639 98.6752 69.5209 98.1658 71.0349L93.4555 84.527V84.5192Z" fill="var(--fill-0, #073146)"/>
</g>
<g id="Group_9">
<path id="Vector_34" d="M113.026 74.8318L119.17 74.8789L115.236 70.7606C113.715 69.1683 111.678 68.1799 109.491 67.9759C107.547 67.7955 105.729 68.9721 105.102 70.8312L100.87 83.3821L104.914 83.6174C107.007 83.7429 108.974 82.6212 109.946 80.7621L113.033 74.824L113.026 74.8318Z" fill="var(--fill-0, #A3C0CE)"/>
<path id="Vector_35" d="M105.219 84.4175C105.102 84.4175 104.984 84.4175 104.859 84.4097L100.815 84.1744C100.572 84.1587 100.345 84.0332 100.211 83.8292C100.078 83.6253 100.039 83.3743 100.117 83.1389L104.349 70.5881C105.094 68.376 107.241 66.9876 109.553 67.2072C111.928 67.4269 114.146 68.5015 115.792 70.2273L119.726 74.3455C119.946 74.573 120.001 74.9103 119.883 75.2005C119.758 75.4908 119.452 75.6633 119.154 75.6712L113.488 75.6241L110.619 81.1308C109.569 83.1546 107.469 84.4175 105.204 84.4175H105.219ZM101.936 82.6604L104.953 82.8408C106.732 82.9507 108.417 81.9937 109.24 80.4091L112.328 74.471C112.461 74.2121 112.728 74.0474 113.025 74.0474L117.312 74.0788L114.663 71.3019C113.276 69.8507 111.411 68.9486 109.412 68.7604C107.821 68.6113 106.348 69.5683 105.839 71.0823L101.928 82.6604H101.936Z" fill="var(--fill-0, #073146)"/>
</g>
<path id="Vector_36" d="M85.3125 135.492H77.3185V145.469H85.3125V135.492Z" fill="var(--fill-0, #99CDE0)"/>
<path id="Vector_37" d="M101.301 117.528H93.3067V145.477H101.301V117.528Z" fill="var(--fill-0, #D62E2F)"/>
<path id="Vector_38" d="M117.289 129.506H109.295V145.477H117.289V129.506Z" fill="var(--fill-0, #99CDE0)"/>
<path id="Vector_39" d="M133.277 99.5645H125.283V145.477H133.277V99.5645Z" fill="var(--fill-0, #D62E2F)"/>
<path id="Vector_40" d="M57.1844 100.349H29.2051C28.774 100.349 28.4213 99.9963 28.4213 99.5648C28.4213 99.1334 28.774 98.7804 29.2051 98.7804H57.1844C57.6155 98.7804 57.9681 99.1334 57.9681 99.5648C57.9681 99.9963 57.6155 100.349 57.1844 100.349Z" fill="var(--fill-0, #005F8F)"/>
<path id="Vector_41" d="M43.1947 104.679H29.2051C28.774 104.679 28.4213 104.326 28.4213 103.895C28.4213 103.463 28.774 103.11 29.2051 103.11H43.1947C43.6258 103.11 43.9785 103.463 43.9785 103.895C43.9785 104.326 43.6258 104.679 43.1947 104.679Z" fill="var(--fill-0, #005F8F)"/>
</g>
</svg>
