<svg preserveAspectRatio="none" width="100%" height="100%" overflow="visible" style="display: block;" viewBox="0 0 42.4707 17.4841" fill="none" xmlns="http://www.w3.org/2000/svg">
<g id="Group">
<path id="Vector" d="M2.32648 16.2579C2.32648 16.9411 1.80594 17.4893 1.16324 17.484C0.520538 17.4761 9.70201e-08 16.9147 9.70201e-08 16.2314C9.70201e-08 15.5482 0.520538 14.9974 1.16324 15.008C1.80594 15.0159 2.32648 15.5773 2.32648 16.2606V16.2579Z" fill="var(--fill-0, white)"/>
<path id="Vector_2" d="M10.1744 9.27727C10.1744 9.95785 9.65915 10.5034 9.02176 10.4928C8.38436 10.4822 7.86647 9.92078 7.86647 9.24019C7.86647 8.5596 8.38436 8.01407 9.02176 8.02466C9.65915 8.03526 10.1744 8.59668 10.1744 9.27727Z" fill="var(--fill-0, white)"/>
<path id="Vector_3" d="M17.9585 13.8904C17.9585 14.5684 17.4459 15.1112 16.8139 15.1033C16.1818 15.0954 15.6692 14.5366 15.6692 13.8586C15.6692 13.1807 16.1818 12.6352 16.8139 12.6458C17.4459 12.6537 17.9585 13.2125 17.9585 13.8904Z" fill="var(--fill-0, white)"/>
<path id="Vector_4" d="M25.6789 4.41782C25.6789 5.09311 25.1717 5.63335 24.5449 5.62011C23.9181 5.60951 23.4082 5.05074 23.4082 4.37545C23.4082 3.70016 23.9181 3.15993 24.5449 3.17317C25.1717 3.18641 25.6789 3.74253 25.6789 4.41782Z" fill="var(--fill-0, white)"/>
<path id="Vector_5" d="M33.3409 11.2396C33.3409 11.9122 32.8363 12.4498 32.2148 12.4419C31.5934 12.4339 31.0888 11.8778 31.0888 11.2052C31.0888 10.5325 31.5934 9.99228 32.2148 10.0029C32.8363 10.0135 33.3409 10.5669 33.3409 11.2396Z" fill="var(--fill-0, white)"/>
<path id="Vector_6" d="M42.0652 2.13773L42.4636 0.347545C42.4848 0.25221 42.4583 0.14893 42.3919 0.0800769C42.3255 0.0112238 42.2325 -0.0152573 42.1449 0.00857648L40.5116 0.495844C40.4239 0.522326 40.3575 0.596475 40.3363 0.694459C40.315 0.789794 40.3416 0.893074 40.408 0.961927L41.6403 2.26219C41.7067 2.33104 41.7996 2.35752 41.8873 2.33104C41.9749 2.30456 42.0413 2.23041 42.0625 2.13243L42.0652 2.13773Z" fill="var(--fill-0, white)"/>
<path id="Vector_7" d="M1.35977 16.4936L0.969373 15.9957L8.98191 8.86944L16.7448 13.4694L24.5077 3.95439L32.1936 10.7947L41.8288 0.434935L42.2405 0.890425L32.2361 11.65L24.5821 4.84154L16.8829 14.2797L9.05892 9.64537L1.35977 16.4936Z" fill="var(--fill-0, white)"/>
</g>
</svg>
