<svg preserveAspectRatio="none" width="100%" height="100%" overflow="visible" style="display: block;" viewBox="0 0 20 22" fill="none" xmlns="http://www.w3.org/2000/svg">
<path id="Vector" d="M19.1649 12.0943C19.9527 12.0943 20.3005 13.0753 19.686 13.5625L14.4435 17.7175V19.5255C14.4435 20.1818 14.1801 20.8112 13.7113 21.2752C13.2424 21.7393 12.6065 22 11.9434 22H8.05877C7.39569 22 6.75977 21.7393 6.29091 21.2752C5.82205 20.8112 5.55864 20.1818 5.55864 19.5255V17.7175L0.31393 13.5625C-0.300546 13.0753 0.0472499 12.0943 0.836179 12.0943H19.1649ZM16.7903 13.744H3.21074L6.91315 16.6771C7.01055 16.7543 7.08918 16.8522 7.14322 16.9636C7.19727 17.0749 7.22535 17.1969 7.22539 17.3204V19.5255C7.22539 19.9808 7.59874 20.3503 8.05877 20.3503H11.9434C12.1644 20.3503 12.3764 20.2634 12.5327 20.1087C12.689 19.9541 12.7768 19.7443 12.7768 19.5255V17.3215C12.7768 17.198 12.8049 17.076 12.859 16.9647C12.913 16.8533 12.9916 16.7554 13.089 16.6782L16.7903 13.744ZM6.39202 7.69846H13.609C14.0971 7.69848 14.5672 7.88011 14.9262 8.20731C15.2852 8.5345 15.5068 8.98333 15.5469 9.46471L15.5536 9.62198V10.9978H13.8868V9.62308C13.8868 9.56128 13.8657 9.5013 13.827 9.45282C13.7883 9.40433 13.7342 9.37017 13.6735 9.35583L13.609 9.34813H6.39202C6.32943 9.34823 6.26872 9.36925 6.21971 9.40778C6.1707 9.4463 6.13627 9.50008 6.122 9.56039L6.11422 9.62308V10.9978H4.44747V9.62308C4.44751 9.13989 4.63118 8.67439 4.962 8.31906C5.29281 7.96372 5.74656 7.74454 6.23312 7.70506L6.39202 7.69846ZM10.0033 0C10.8874 0 11.7353 0.347608 12.3605 0.966354C12.9856 1.5851 13.3368 2.4243 13.3368 3.29934C13.3368 4.17438 12.9856 5.01358 12.3605 5.63233C11.7353 6.25107 10.8874 6.59868 10.0033 6.59868C9.11921 6.59868 8.27132 6.25107 7.64617 5.63233C7.02101 5.01358 6.66981 4.17438 6.66981 3.29934C6.66981 2.4243 7.02101 1.5851 7.64617 0.966354C8.27132 0.347608 9.11921 0 10.0033 0ZM10.0033 1.64967C9.56126 1.64967 9.13731 1.82347 8.82474 2.13285C8.51216 2.44222 8.33656 2.86182 8.33656 3.29934C8.33656 3.73686 8.51216 4.15646 8.82474 4.46583C9.13731 4.77521 9.56126 4.94901 10.0033 4.94901C10.4454 4.94901 10.8693 4.77521 11.1819 4.46583C11.4945 4.15646 11.6701 3.73686 11.6701 3.29934C11.6701 2.86182 11.4945 2.44222 11.1819 2.13285C10.8693 1.82347 10.4454 1.64967 10.0033 1.64967Z" fill="var(--fill-0, #D62E2F)"/>
</svg>
