<svg preserveAspectRatio="none" width="100%" height="100%" overflow="visible" style="display: block;" viewBox="0 0 46.1223 59.6538" fill="none" xmlns="http://www.w3.org/2000/svg">
<path id="Vector" d="M46.1196 3.99759C39.9316 1.90551 30.4929 -0.411663 18.9455 0.0623647C12.2582 0.337777 6.50573 1.4818 1.95103 2.75293C1.33489 6.18765 0.718738 9.625 0.102593 13.0597C-0.0381641 16.505 -0.0859658 21.1711 0.304437 26.682C0.692183 32.1956 1.07196 32.2777 1.96165 40.0581C3.41172 52.7456 2.80619 56.0611 5.36107 57.5839C7.0236 58.5743 7.62646 57.3773 16.1144 56.5405C21.8058 55.979 24.7086 55.7169 27.5928 56.6888C31.518 58.0129 32.83 60.2374 34.45 59.5117C36.0037 58.8179 36.2002 56.1459 36.3888 51.4851C36.6782 44.2979 36.6597 39.4119 36.6862 37.6615C36.8084 29.6374 38.8454 23.5095 41.456 15.6629C43.0894 10.7558 44.8076 6.78349 46.1223 3.99229L46.1196 3.99759Z" fill="url(#paint0_linear_20934_30641)"/>
<defs>
<linearGradient id="paint0_linear_20934_30641" x1="33.8976" y1="50.4072" x2="4.52594" y2="-17.6545" gradientUnits="userSpaceOnUse">
<stop stop-color="#325087"/>
<stop offset="1" stop-color="#334570"/>
</linearGradient>
</defs>
</svg>
