<svg preserveAspectRatio="none" width="100%" height="100%" overflow="visible" style="display: block;" viewBox="0 0 11.7778 34.0426" fill="none" xmlns="http://www.w3.org/2000/svg">
<path id="Vector" d="M7.5669 4.5886C7.11437 2.00679 6.79223 0.402703 5.94852 0.0895252C5.03578 -0.231292 3.64751 0.326317 2.44331 1.50265C0.579484 3.32061 -0.0494604 5.78784 0.771235 8.10231C2.10582 11.9063 1.43086 15.2061 0.771235 18.4066C-0.179851 23.0279 -1.16162 27.8173 3.83926 34.0426L4.59092 33.4468C-0.126162 27.5728 0.771235 23.2112 1.71465 18.5976C2.39729 15.2825 3.10293 11.8452 1.6763 7.78913C0.656185 4.8865 2.52001 2.77064 3.1106 2.19011C4.0847 1.24294 5.19686 0.830458 5.5957 0.983228C5.99454 1.22766 6.37804 3.43519 6.60815 4.75665C6.86893 6.23088 7.1067 7.61344 7.4902 8.40021C8.29556 10.0883 10.8267 19.0559 10.8497 19.1476L11.7778 18.8879C11.6704 18.5136 9.20062 9.75222 8.35692 7.98773C8.04245 7.31554 7.797 5.92534 7.5669 4.58096V4.5886Z" fill="var(--fill-0, #00222A)"/>
</svg>
