<svg preserveAspectRatio="none" width="100%" height="100%" overflow="visible" style="display: block;" viewBox="0 0 23.9999 24.0001" fill="none" xmlns="http://www.w3.org/2000/svg">
<g id="Group">
<path id="Vector" d="M8.49868 4.54395C7.33869 4.58862 6.29003 5.00261 5.72937 5.56394C5.66743 5.62584 5.5939 5.67493 5.51299 5.70841C5.43208 5.74189 5.34537 5.75911 5.2578 5.75908C5.17023 5.75904 5.08353 5.74177 5.00265 5.70823C4.92176 5.67469 4.84827 5.62555 4.78637 5.56361C4.72448 5.50167 4.67539 5.42814 4.64191 5.34723C4.60842 5.26632 4.59121 5.17961 4.59124 5.09204C4.59127 5.00448 4.60855 4.91778 4.64209 4.83689C4.67562 4.756 4.72477 4.68251 4.78671 4.62061C5.65137 3.75595 7.05936 3.26529 8.44668 3.21129C9.84334 3.15729 11.368 3.53929 12.436 4.60728C12.561 4.73237 12.6312 4.902 12.6311 5.07885C12.6311 5.25569 12.5607 5.42527 12.4357 5.55027C12.3106 5.67528 12.1409 5.74547 11.9641 5.74541C11.7872 5.74535 11.6177 5.67503 11.4927 5.54994C10.766 4.82261 9.65 4.49862 8.49868 4.54328" fill="var(--fill-0, #D62E2F)"/>
<path id="Vector_2" fill-rule="evenodd" clip-rule="evenodd" d="M15.2906 14.2559C16.6124 12.6938 17.3364 10.7129 17.3332 8.66661C17.3332 3.87997 13.4532 0 8.66661 0C3.87997 0 0 3.87997 0 8.66661C0 13.4532 3.87997 17.3332 8.66661 17.3332C10.7966 17.3332 12.7466 16.5652 14.2559 15.2906L13.9999 16.7625L19.0092 21.7718L21.7718 19.0092L16.7625 13.9999L15.2906 14.2559ZM8.66661 15.3332C12.3486 15.3332 15.3332 12.3486 15.3332 8.66661C15.3332 4.98463 12.3486 1.99999 8.66661 1.99999C4.98463 1.99999 1.99999 4.98463 1.99999 8.66661C1.99999 12.3486 4.98463 15.3332 8.66661 15.3332Z" fill="var(--fill-0, #D62E2F)"/>
<path id="Vector_3" d="M19.9518 22.7147L22.7144 19.952L23.6184 20.856C24.1271 21.3647 24.1271 22.1893 23.6184 22.6973L22.6971 23.6187C22.1885 24.1273 21.3638 24.1273 20.8558 23.6187L19.9518 22.7147Z" fill="var(--fill-0, #D62E2F)"/>
</g>
</svg>
