<svg preserveAspectRatio="none" width="100%" height="100%" overflow="visible" style="display: block;" viewBox="0 0 24 24" fill="none" xmlns="http://www.w3.org/2000/svg">
<g id="carbon:ibm-cloud-internet-services">
<path id="Vector" d="M7.50101 13.5C6.75933 13.5 6.03431 13.7199 5.41763 14.132C4.80094 14.544 4.32029 15.1297 4.03647 15.8149C3.75264 16.5002 3.67837 17.2542 3.82307 17.9816C3.96776 18.709 4.32492 19.3772 4.84936 19.9017C5.37381 20.4261 6.042 20.7833 6.76943 20.9279C7.49685 21.0726 8.25085 20.9984 8.93608 20.7145C9.6213 20.4307 10.207 19.9501 10.619 19.3334C11.0311 18.7167 11.251 17.9917 11.251 17.25C11.251 16.2554 10.8559 15.3016 10.1527 14.5983C9.4494 13.8951 8.49558 13.5 7.50101 13.5ZM7.50101 18.75C7.20434 18.75 6.91433 18.662 6.66766 18.4972C6.42098 18.3324 6.22873 18.0981 6.11519 17.824C6.00166 17.5499 5.97196 17.2483 6.02984 16.9574C6.08771 16.6664 6.23058 16.3991 6.44035 16.1893C6.65013 15.9796 6.91741 15.8367 7.20838 15.7788C7.49935 15.7209 7.80095 15.7506 8.07504 15.8642C8.34913 15.9777 8.5834 16.17 8.74822 16.4166C8.91304 16.6633 9.00101 16.9533 9.00101 17.25C9.00101 17.6478 8.84298 18.0294 8.56167 18.3107C8.28037 18.592 7.89884 18.75 7.50101 18.75ZM4.50101 12C4.27838 12.0002 4.0607 11.9343 3.87553 11.8107C3.69037 11.6871 3.54604 11.5113 3.46081 11.3056C3.37559 11.1 3.35331 10.8736 3.39679 10.6553C3.44028 10.4369 3.54756 10.2364 3.70508 10.0791L4.78226 9L3.70508 7.92094C3.49373 7.70959 3.375 7.42295 3.375 7.12406C3.375 6.82518 3.49373 6.53853 3.70508 6.32719C3.91642 6.11584 4.20307 5.99711 4.50195 5.99711C4.80084 5.99711 5.08748 6.11584 5.29883 6.32719L6.37601 7.40625L7.45508 6.32906C7.66642 6.11772 7.95307 5.99899 8.25195 5.99899C8.55084 5.99899 8.83748 6.11772 9.04883 6.32906C9.26017 6.54041 9.3789 6.82705 9.3789 7.12594C9.3789 7.42482 9.26017 7.71147 9.04883 7.92281L7.96976 9L9.04976 10.0791C9.26111 10.2904 9.37984 10.5771 9.37984 10.8759C9.37984 11.1748 9.26111 11.4615 9.04976 11.6728C8.83842 11.8842 8.55177 12.0029 8.25289 12.0029C7.954 12.0029 7.66736 11.8842 7.45601 11.6728L6.37601 10.5938L5.29695 11.6709C5.1924 11.7754 5.06829 11.8582 4.93172 11.9147C4.79515 11.9711 4.64879 12.0001 4.50101 12ZM21.797 19.0791C22.0083 19.2904 22.127 19.5771 22.127 19.8759C22.127 20.1748 22.0083 20.4615 21.797 20.6728C21.5856 20.8842 21.299 21.0029 21.0001 21.0029C20.7012 21.0029 20.4145 20.8842 20.2032 20.6728L19.126 19.5938L18.047 20.6738C17.8356 20.8851 17.549 21.0038 17.2501 21.0038C16.9512 21.0038 16.6645 20.8851 16.4532 20.6738C16.2419 20.4624 16.1231 20.1758 16.1231 19.8769C16.1231 19.578 16.2419 19.2913 16.4532 19.08L17.5323 18L16.4523 16.9209C16.2409 16.7096 16.1222 16.4229 16.1222 16.1241C16.1222 15.8252 16.2409 15.5385 16.4523 15.3272C16.6636 15.1158 16.9503 14.9971 17.2491 14.9971C17.548 14.9971 17.8347 15.1158 18.046 15.3272L19.126 16.4062L20.2051 15.3262C20.4164 15.1149 20.7031 14.9962 21.002 14.9962C21.3008 14.9962 21.5875 15.1149 21.7988 15.3262C22.0102 15.5376 22.1289 15.8242 22.1289 16.1231C22.1289 16.422 22.0102 16.7087 21.7988 16.92L20.7198 18L21.797 19.0791ZM17.7282 10.3959C17.2398 12.5522 15.541 14.4769 13.501 15.1978C13.3617 15.2471 13.2141 15.2684 13.0665 15.2606C12.919 15.2528 12.7744 15.216 12.6411 15.1523C12.3718 15.0237 12.1647 14.7934 12.0652 14.512C11.9658 14.2307 11.9822 13.9214 12.1108 13.6521C12.2394 13.3828 12.4697 13.1757 12.751 13.0762C14.0701 12.6075 15.2138 11.3034 15.5326 9.89813C15.7548 8.9175 15.5701 7.94438 15.0001 7.035V7.87875C15.0001 8.17712 14.8816 8.46327 14.6706 8.67425C14.4596 8.88522 14.1734 9.00375 13.8751 9.00375C13.5767 9.00375 13.2906 8.88522 13.0796 8.67425C12.8686 8.46327 12.7501 8.17712 12.7501 7.87875V4.125C12.7501 3.82663 12.8686 3.54048 13.0796 3.3295C13.2906 3.11853 13.5767 3 13.8751 3H17.6251C17.9234 3 18.2096 3.11853 18.4206 3.3295C18.6316 3.54048 18.7501 3.82663 18.7501 4.125C18.7501 4.42337 18.6316 4.70952 18.4206 4.9205C18.2096 5.13147 17.9234 5.25 17.6251 5.25H16.501C17.6982 6.80719 18.1341 8.6025 17.7282 10.3959Z" fill="var(--fill-0, #D62E2F)"/>
</g>
</svg>
