<svg preserveAspectRatio="none" width="100%" height="100%" overflow="visible" style="display: block;" viewBox="0 0 39.355 39.4163" fill="none" xmlns="http://www.w3.org/2000/svg">
<g id="Group">
<path id="Vector" d="M31.4958 29.4025C32.9166 30.1228 34.704 29.4608 35.4848 27.9275C36.2656 26.3915 35.7477 24.5643 34.3269 23.844C34.2525 23.8069 34.1781 23.7751 34.1038 23.746C34.3667 22.8959 34.5659 22.0405 34.7013 21.1852C34.7837 21.1852 34.8633 21.1852 34.9483 21.1772C36.571 21.0342 37.8591 19.5459 37.8246 17.8564C37.79 16.1668 36.4489 14.9142 34.8262 15.0572C34.7412 15.0652 34.6588 15.0784 34.5765 15.0917C34.4065 14.2548 34.1755 13.4365 33.8834 12.6447C33.9577 12.6023 34.0321 12.5573 34.1038 12.5044C35.4928 11.5351 35.9363 9.62048 35.0944 8.23018C34.2552 6.83988 32.4466 6.49826 31.0602 7.4675C30.9885 7.51781 30.9221 7.57079 30.8557 7.6264C30.3087 7.02261 29.7058 6.46119 29.0551 5.95009C29.1003 5.87594 29.1454 5.79914 29.1852 5.71969C29.9661 4.18374 30.9885 2.50743 29.5544 1.81095C26.24 0.198201 24.8165 1.57791 24.0357 3.11386C23.9958 3.19331 23.9613 3.27541 23.9268 3.35486C23.13 3.13241 22.32 2.97882 21.5073 2.89407C21.5126 2.80933 21.5153 2.72193 21.5153 2.63719C21.4808 0.94764 21.9827 0.0340085 20.3547 0.00223009C16.8039 -0.066623 15.6061 1.46934 15.6407 3.15889C15.6407 3.24628 15.6486 3.33367 15.6593 3.41841C14.8466 3.6488 14.0472 3.94539 13.269 4.3029C13.2319 4.22875 13.1947 4.15196 13.1495 4.08046C12.3103 2.69016 10.5017 2.34854 9.11538 3.31778C7.72639 4.28702 7.28288 6.20167 8.12477 7.59197C8.16726 7.66347 8.21506 7.72967 8.26287 7.79587C7.64938 8.40761 7.07307 9.07496 6.54191 9.78732C6.47286 9.74495 6.40381 9.70257 6.32945 9.6655C4.90859 8.94519 3.12124 9.60724 2.34044 11.1405C1.55963 12.6765 2.07751 14.5038 3.49836 15.2241C3.57273 15.2612 3.64709 15.2929 3.72145 15.3221C3.45853 16.1721 3.25934 17.0275 3.1239 17.8829C3.04157 17.8829 2.96189 17.8829 2.87691 17.8908C1.25421 18.0338 -0.0338472 19.5221 0.000678162 21.2116C0.0352035 22.9012 1.37638 24.1538 2.99908 24.0081C3.08406 24.0002 3.16639 23.987 3.24872 23.9737C3.41869 24.8105 3.64975 25.6288 3.94188 26.4206C3.86752 26.463 3.79316 26.508 3.72145 26.561C2.33247 27.5302 1.88895 29.4449 2.73084 30.8352C3.57007 32.2255 6.35335 32.8717 7.74233 31.9024C7.81404 31.8521 6.9031 31.4946 6.96949 31.439C7.51659 32.0428 8.11945 32.6042 8.77012 33.1153C8.72498 33.1894 8.67983 33.2662 8.63999 33.3457C7.85919 34.8816 8.37707 36.7089 9.79792 37.4292C11.2188 38.1495 13.0061 37.4875 13.7869 35.9542C13.8268 35.8747 13.8613 35.7926 13.8958 35.7132C14.6926 35.9356 15.5026 36.0892 16.3152 36.174C16.3099 36.2587 16.3073 36.3461 16.3073 36.4308C16.3418 38.1204 17.683 39.373 19.3057 39.2273C20.9284 39.0843 22.2164 37.596 22.1819 35.9065C22.1819 35.8191 22.1739 35.7317 22.1633 35.647C22.976 35.4166 23.7754 35.12 24.5535 34.7625C24.5907 34.8366 24.6279 34.9134 24.673 34.9849C25.5123 36.3752 27.3209 36.7168 28.7072 35.7476C30.0935 34.7784 30.5397 32.8637 29.6978 31.4734C29.6553 31.4019 29.6075 31.3357 29.5597 31.2695C30.1732 30.6578 30.7495 29.9904 31.2807 29.278C31.3497 29.3204 31.4188 29.3628 31.4931 29.3999L31.4958 29.4025ZM13.771 29.6276C8.60812 27.0138 6.72516 20.3775 9.56155 14.803C12.4006 9.22855 18.8861 6.82929 24.0463 9.44306C29.2091 12.0568 31.0921 18.6932 28.2557 24.2677C25.4167 29.8421 18.9312 32.2414 13.7683 29.6276H13.771Z" fill="url(#paint0_linear_20934_30553)"/>
<path id="Vector_2" d="M34.9457 21.1746C36.5684 21.0316 37.8564 19.5433 37.8219 17.8537C37.7874 16.1642 36.4462 14.9116 34.8235 15.0546C34.7385 15.0625 34.6562 15.0758 34.5739 15.089C34.4039 14.2522 34.1728 13.4339 33.8807 12.6421C33.9551 12.5997 34.0294 12.5547 34.1011 12.5017C35.4901 11.5325 37.2058 9.18883 36.2258 7.89121C34.3667 5.42839 32.4439 6.4956 31.0576 7.46484C30.9859 7.51516 30.9195 7.56813 30.8531 7.62374C30.306 7.01995 29.7031 6.45853 29.0525 5.94743C29.0976 5.87328 29.1428 5.79648 29.1826 5.71704C29.6075 4.88021 29.6447 3.96128 29.3658 3.17741C28.0247 5.52901 26.7021 7.89121 25.4034 10.2666C29.5225 13.275 30.8318 19.2069 28.2584 24.2624C26.078 28.5471 21.741 30.9517 17.5077 30.6498C17.3191 31.1371 17.1332 31.6296 16.9314 32.1143C16.3816 33.4278 15.7602 34.7122 15.1334 35.9965C15.5265 36.0707 15.9195 36.1289 16.3152 36.1687C16.3099 36.2534 16.3073 36.3408 16.3073 36.4255C16.3418 38.1151 17.3696 39.5504 20.3096 39.3942C21.9349 39.3094 22.2164 37.5934 22.1819 35.9038C22.1819 35.8164 22.1739 35.7291 22.1633 35.6443C22.976 35.4139 23.7754 35.1173 24.5535 34.7598C24.5907 34.834 24.6279 34.9108 24.673 34.9823C25.5123 36.3726 28.4283 36.9631 29.8173 35.9939C31.2063 35.0246 30.5397 32.8611 29.6978 31.4708C29.6553 31.3993 29.6075 31.333 29.5597 31.2668C30.1732 30.6551 30.7495 29.9878 31.2807 29.2754C31.3497 29.3178 31.4188 29.3601 31.4931 29.3972C32.914 30.1175 34.7013 29.4555 35.4821 27.9222C36.263 26.3862 35.7451 24.559 34.3242 23.8386C34.2499 23.8016 34.1755 23.7698 34.1011 23.7407C34.3641 22.8906 34.5632 22.0352 34.6987 21.1799C34.781 21.1799 34.8607 21.1799 34.9457 21.1719V21.1746Z" fill="url(#paint1_linear_20934_30553)"/>
<path id="Vector_3" d="M33.0255 29.5773C34.4464 30.2976 36.2337 29.6355 37.0145 28.1022C37.7953 26.5663 37.2775 24.739 35.8566 24.0187C35.7823 23.9816 35.7079 23.9499 35.6335 23.9207C35.8964 23.0707 36.0956 22.2153 36.2311 21.3599C36.3134 21.3599 36.3931 21.3599 36.4781 21.352C38.1008 21.209 39.3888 19.7207 39.3543 18.0311C39.3198 16.3416 37.9786 15.089 36.3559 15.232C36.2709 15.2399 36.1886 15.2532 36.1063 15.2664C35.9363 14.4296 35.7052 13.6113 35.4131 12.8195C35.4875 12.7771 35.5618 12.7321 35.6335 12.6791C37.0225 11.7099 37.466 9.79526 36.6241 8.40496C35.7823 7.01465 33.9763 6.67304 32.59 7.64228C32.5183 7.69259 32.4519 7.74555 32.3855 7.80116C31.8384 7.19737 31.2355 6.63595 30.5849 6.12485C30.63 6.0507 30.6752 5.9739 30.715 5.89446C31.4958 4.3585 30.9779 2.53125 29.5571 1.81094C28.1362 1.09063 26.3489 1.75268 25.5681 3.28599C25.5282 3.36543 25.4937 3.44752 25.4592 3.52697C24.6624 3.30452 23.8524 3.15093 23.0397 3.06618C23.045 2.98144 23.0477 2.89406 23.0477 2.80932C23.0132 1.11977 21.672 -0.13283 20.0493 0.0128208C18.4266 0.155823 17.1385 1.6441 17.1731 3.33365C17.1731 3.42104 17.181 3.50843 17.1917 3.59317C16.379 3.82357 15.5796 4.12017 14.8014 4.47768C14.7643 4.40353 14.7271 4.32672 14.6819 4.25522C13.8427 2.86492 12.0341 2.5233 10.6478 3.49254C9.25879 4.46178 8.81527 6.37643 9.65716 7.76673C9.69965 7.83823 9.74746 7.90444 9.79526 7.97065C9.18177 8.58238 8.60546 9.24972 8.0743 9.96208C8.00525 9.91971 7.9362 9.87735 7.86184 9.84028C6.44099 9.11997 4.65364 9.78202 3.87283 11.3153C3.09203 12.8513 3.60991 14.6785 5.03076 15.3988C5.10512 15.4359 5.17948 15.4677 5.25385 15.4968C4.99092 16.3469 4.79174 17.2023 4.65629 18.0576C4.57396 18.0576 4.49163 18.0576 4.4093 18.0656C2.78661 18.2112 1.49855 19.6969 1.53307 21.3864C1.5676 23.076 2.90878 24.3286 4.53147 24.1856C4.61646 24.1776 4.69879 24.1644 4.78112 24.1511C4.95109 24.988 5.18214 25.8062 5.47693 26.5981C5.40257 26.6404 5.32821 26.6855 5.2565 26.7384C3.86752 27.7077 3.424 29.6223 4.26589 31.0126C5.10512 32.4029 6.91372 32.7445 8.30005 31.7753C8.37175 31.725 8.43815 31.672 8.50455 31.6164C9.05164 32.2202 9.6545 32.7816 10.3052 33.2927C10.26 33.3669 10.2149 33.4437 10.175 33.5231C9.39424 35.0591 9.91212 36.8863 11.333 37.6066C12.7538 38.3269 14.5412 37.6649 15.322 36.1316C15.3618 36.0521 15.3963 35.97 15.4309 35.8906C16.2276 36.113 17.0376 36.2666 17.8503 36.3514C17.845 36.4361 17.8423 36.5235 17.8423 36.6083C17.8769 38.2978 19.218 39.5504 20.8407 39.4048C22.4634 39.2618 23.7515 37.7735 23.717 36.0839C23.717 35.9965 23.709 35.9091 23.6984 35.8244C24.511 35.594 25.3104 35.2974 26.0886 34.9399C26.1258 35.014 26.163 35.0908 26.2081 35.1623C27.0473 36.5526 28.8559 36.8943 30.2423 35.925C31.6312 34.9558 32.0748 33.0411 31.2329 31.6508C31.1904 31.5793 31.1426 31.5131 31.0948 31.4469C31.7083 30.8352 32.2846 30.1678 32.8157 29.4555C32.8848 29.4978 32.9538 29.5402 33.0282 29.5773H33.0255ZM15.3007 29.8024C10.1379 27.1886 8.2549 20.5522 11.0913 14.9778C13.9303 9.40331 20.4158 7.00405 25.576 9.61782C30.7389 12.2316 32.6219 18.868 29.7855 24.4424C26.9464 30.0169 20.4609 32.4162 15.2981 29.8024H15.3007Z" fill="url(#paint2_linear_20934_30553)"/>
</g>
<defs>
<linearGradient id="paint0_linear_20934_30553" x1="41.1629" y1="32.1805" x2="18.9506" y2="19.1223" gradientUnits="userSpaceOnUse">
<stop stop-color="#21242D"/>
<stop offset="1" stop-color="#5C5463"/>
</linearGradient>
<linearGradient id="paint1_linear_20934_30553" x1="14.2092" y1="16.8845" x2="19.1495" y2="19.1143" gradientUnits="userSpaceOnUse">
<stop stop-color="#21242D"/>
<stop offset="1" stop-color="#5C5463"/>
</linearGradient>
<linearGradient id="paint2_linear_20934_30553" x1="35.3334" y1="38.5203" x2="-18.8521" y2="-30.3118" gradientUnits="userSpaceOnUse">
<stop stop-color="#FF6B74"/>
<stop offset="1" stop-color="#8B1D3A"/>
</linearGradient>
</defs>
</svg>
