<svg preserveAspectRatio="none" width="100%" height="100%" overflow="visible" style="display: block;" viewBox="0 0 20 20" fill="none" xmlns="http://www.w3.org/2000/svg">
<g id="carbon:ibm-cloud-internet-services" clip-path="url(#clip0_20934_31423)">
<path id="Vector" fill-rule="evenodd" clip-rule="evenodd" d="M9.99572 0.0128218C9.02575 -0.000728392 8.06275 0.178617 7.16268 0.540437C6.26262 0.902257 5.44343 1.43934 4.75271 2.12047C4.06199 2.80161 3.51352 3.61322 3.13916 4.50814C2.76481 5.40307 2.57203 6.36347 2.57203 7.33354C2.57203 8.30361 2.76481 9.264 3.13916 10.1589C3.51352 11.0539 4.06199 11.8655 4.75271 12.5466C5.44343 13.2277 6.26262 13.7648 7.16268 14.1266C8.06275 14.4885 9.02575 14.6678 9.99572 14.6543C11.9375 14.6543 13.7997 13.8829 15.1728 12.5099C16.5458 11.1368 17.3172 9.27459 17.3172 7.33282C17.3172 5.39106 16.5458 3.52882 15.1728 2.15579C13.7997 0.782756 11.9375 0.0128218 9.99572 0.0128218ZM10.2857 3.47425L11.2614 5.43711C11.2831 5.48663 11.3176 5.52951 11.3612 5.56138C11.4049 5.59325 11.4562 5.61297 11.51 5.61854L13.6757 5.94711C13.7377 5.95504 13.7962 5.98049 13.8443 6.02049C13.8923 6.06049 13.928 6.11337 13.947 6.17291C13.9661 6.23246 13.9677 6.29621 13.9518 6.35667C13.9359 6.41713 13.9031 6.4718 13.8572 6.51425L12.26 8.03425C12.2362 8.07965 12.2238 8.13014 12.2238 8.18139C12.2238 8.23265 12.2362 8.28313 12.26 8.32854L12.5657 10.4828C12.5786 10.5449 12.5732 10.6093 12.5503 10.6683C12.5274 10.7274 12.4879 10.7786 12.4366 10.8157C12.3853 10.8529 12.3243 10.8744 12.261 10.8777C12.1978 10.8809 12.1349 10.8659 12.08 10.8343L10.1514 9.81425C10.1014 9.79156 10.0471 9.77982 9.99215 9.77982C9.93721 9.77982 9.8829 9.79156 9.83287 9.81425L7.90429 10.8343C7.8494 10.8659 7.78653 10.8809 7.72326 10.8777C7.66 10.8744 7.59903 10.8529 7.54771 10.8157C7.49638 10.7786 7.45688 10.7274 7.43397 10.6683C7.41107 10.6093 7.40572 10.5449 7.41858 10.4828L7.78001 8.32854C7.79549 8.27858 7.79837 8.22556 7.7884 8.17422C7.77843 8.12287 7.75592 8.07479 7.72287 8.03425L6.1243 6.50282C6.08136 6.45995 6.05113 6.40603 6.03696 6.34703C6.0228 6.28803 6.02524 6.22627 6.04403 6.16857C6.06282 6.11088 6.09721 6.05952 6.1434 6.02017C6.18959 5.98083 6.24578 5.95505 6.30572 5.94568L8.47287 5.62996C8.52664 5.6244 8.57798 5.60468 8.62165 5.57281C8.66531 5.54094 8.69975 5.49805 8.72144 5.44854L9.69715 3.48568C9.72312 3.42997 9.7642 3.38266 9.81572 3.34913C9.86724 3.3156 9.92713 3.29719 9.98859 3.296C10.05 3.29481 10.1106 3.31088 10.1634 3.34239C10.2162 3.3739 10.259 3.41959 10.2872 3.47425H10.2857ZM17.5714 12.3857C16.3402 14.2307 14.4789 15.5639 12.3357 16.1357L14.3529 19.63C14.4234 19.7523 14.5287 19.851 14.6554 19.9136C14.782 19.9761 14.9244 19.9997 15.0644 19.9814C15.2045 19.963 15.3359 19.9036 15.4422 19.8105C15.5485 19.7174 15.6248 19.595 15.6614 19.4585L16.39 16.7457L19.1014 17.4728C19.2379 17.5092 19.382 17.5044 19.5157 17.4589C19.6494 17.4134 19.7666 17.3294 19.8525 17.2173C19.9384 17.1052 19.9892 16.9702 19.9984 16.8293C20.0076 16.6884 19.9749 16.548 19.9043 16.4257L17.5714 12.3857ZM7.66287 16.1371C5.5195 15.5675 3.65714 14.2364 2.4243 12.3928L0.0957243 16.4257C0.0251495 16.548 -0.00759504 16.6884 0.0016272 16.8293C0.0108494 16.9702 0.0616247 17.1052 0.147539 17.2173C0.233452 17.3294 0.35065 17.4134 0.484325 17.4589C0.618001 17.5044 0.762157 17.5092 0.898581 17.4728L3.61144 16.7457L4.33858 19.4585C4.37525 19.595 4.45154 19.7174 4.5578 19.8105C4.66407 19.9036 4.79554 19.963 4.9356 19.9814C5.07566 19.9997 5.21802 19.9761 5.34467 19.9136C5.47132 19.851 5.57659 19.7523 5.64715 19.63L7.66287 16.1371Z" fill="var(--fill-0, #D62E2F)"/>
</g>
<defs>
<clipPath id="clip0_20934_31423">
<rect width="20" height="20" fill="white"/>
</clipPath>
</defs>
</svg>
