<svg preserveAspectRatio="none" width="100%" height="100%" overflow="visible" style="display: block;" viewBox="0 0 24 24" fill="none" xmlns="http://www.w3.org/2000/svg">
<g id="Group">
<g id="Vector">
</g>
<path id="Vector_2" fill-rule="evenodd" clip-rule="evenodd" d="M10.92 2.868C11.03 2.67916 11.1877 2.52247 11.3772 2.41357C11.5667 2.30467 11.7814 2.24736 12 2.24736C12.2186 2.24736 12.4333 2.30467 12.6228 2.41357C12.8123 2.52247 12.97 2.67916 13.08 2.868L15.875 7.666L21.303 8.842C21.5165 8.8884 21.7141 8.98995 21.8762 9.13653C22.0382 9.28312 22.159 9.46961 22.2265 9.67742C22.2939 9.88524 22.3058 10.1071 22.2608 10.3209C22.2158 10.5347 22.1155 10.733 21.97 10.896L18.27 15.037L18.83 20.562C18.8521 20.7796 18.8167 20.9991 18.7274 21.1987C18.6381 21.3983 18.498 21.571 18.3211 21.6996C18.1442 21.8281 17.9367 21.908 17.7192 21.9312C17.5018 21.9544 17.2821 21.9202 17.082 21.832L12 19.592L6.918 21.832C6.71792 21.9202 6.49819 21.9544 6.28075 21.9312C6.06332 21.908 5.85578 21.8281 5.67887 21.6996C5.50196 21.571 5.36186 21.3983 5.27257 21.1987C5.18327 20.9991 5.14791 20.7796 5.17 20.562L5.73 15.037L2.03 10.897C1.88423 10.734 1.78376 10.5357 1.73861 10.3217C1.69347 10.1078 1.70524 9.88573 1.77274 9.67776C1.84025 9.46978 1.96112 9.28315 2.12331 9.1365C2.28549 8.98985 2.4833 8.8883 2.697 8.842L8.125 7.666L10.92 2.868ZM12 4.987L9.687 8.959C9.59954 9.10892 9.48182 9.23899 9.34133 9.34091C9.20084 9.44283 9.04066 9.51438 8.871 9.551L4.379 10.524L7.441 13.951C7.675 14.213 7.788 14.561 7.753 14.91L7.29 19.483L11.496 17.629C11.6548 17.559 11.8265 17.5229 12 17.5229C12.1735 17.5229 12.3452 17.559 12.504 17.629L16.71 19.483L16.247 14.91C16.2294 14.7373 16.248 14.5629 16.3015 14.3978C16.3551 14.2326 16.4424 14.0805 16.558 13.951L19.621 10.524L15.129 9.551C14.9593 9.51438 14.7992 9.44283 14.6587 9.34091C14.5182 9.23899 14.4005 9.10892 14.313 8.959L12 4.987Z" fill="var(--fill-0, #D62E2F)"/>
</g>
</svg>
