<svg preserveAspectRatio="none" width="100%" height="100%" overflow="visible" style="display: block;" viewBox="0 0 24 24" fill="none" xmlns="http://www.w3.org/2000/svg">
<g id="tdesign:education">
<path id="Vector" d="M12 0.807L23.835 8.5L22 9.693V16H20V10.993L19 11.643V17.5C19 18.97 17.986 20.115 16.747 20.839C15.482 21.576 13.802 21.999 12 21.999C10.198 21.999 8.517 21.576 7.253 20.839C6.013 20.115 5 18.969 5 17.499V11.643L0.165 8.5L12 0.807ZM7 12.943V17.5C7 17.963 7.33 18.567 8.261 19.11C9.169 19.64 10.488 20 12 20C13.512 20 14.831 19.64 15.739 19.11C16.671 18.567 16.999 17.963 16.999 17.5V12.943L11.999 16.193L7 12.943ZM20.165 8.5L12 3.193L3.835 8.5L12 13.807L20.165 8.5Z" fill="var(--fill-0, #D62E2F)"/>
</g>
</svg>
