<svg preserveAspectRatio="none" width="100%" height="100%" overflow="visible" style="display: block;" viewBox="0 0 18.0002 17.9706" fill="none" xmlns="http://www.w3.org/2000/svg">
<g id="Group">
<path id="Vector" d="M17.0001 7.9853C16.7555 6.22565 15.9391 4.59523 14.6768 3.34516C13.4144 2.09509 11.7761 1.29471 10.0141 1.0673C8.44066 0.863203 6.84191 1.12571 5.41633 1.82223C3.99075 2.51876 2.80112 3.61863 1.99512 4.9853M1.00012 9.9853C1.23147 11.6504 1.97516 13.2023 3.12809 14.4257C4.28102 15.6492 5.78606 16.4836 7.43452 16.8133C9.08297 17.143 10.7932 16.9516 12.328 16.2657C13.8628 15.5798 15.1461 14.4333 16.0001 12.9853" stroke="var(--stroke-0, #D62E2F)" stroke-width="2" stroke-linecap="round" stroke-linejoin="round"/>
<path id="Vector_2" d="M15.0001 12.9853C15.0001 13.2505 15.1055 13.5049 15.293 13.6924C15.4806 13.8799 15.7349 13.9853 16.0001 13.9853C16.2653 13.9853 16.5197 13.8799 16.7072 13.6924C16.8948 13.5049 17.0001 13.2505 17.0001 12.9853C17.0001 12.7201 16.8948 12.4657 16.7072 12.2782C16.5197 12.0907 16.2653 11.9853 16.0001 11.9853C15.7349 11.9853 15.4806 12.0907 15.293 12.2782C15.1055 12.4657 15.0001 12.7201 15.0001 12.9853ZM1.00012 4.9853C1.00012 5.25052 1.10548 5.50487 1.29302 5.69241C1.48055 5.87995 1.73491 5.9853 2.00012 5.9853C2.26534 5.9853 2.51969 5.87995 2.70723 5.69241C2.89477 5.50487 3.00012 5.25052 3.00012 4.9853C3.00012 4.72009 2.89477 4.46573 2.70723 4.2782C2.51969 4.09066 2.26534 3.9853 2.00012 3.9853C1.73491 3.9853 1.48055 4.09066 1.29302 4.2782C1.10548 4.46573 1.00012 4.72009 1.00012 4.9853ZM6.00012 8.9853C6.00012 9.78095 6.31619 10.544 6.8788 11.1066C7.44141 11.6692 8.20447 11.9853 9.00012 11.9853C9.79577 11.9853 10.5588 11.6692 11.1214 11.1066C11.6841 10.544 12.0001 9.78095 12.0001 8.9853C12.0001 8.18965 11.6841 7.42659 11.1214 6.86398C10.5588 6.30137 9.79577 5.9853 9.00012 5.9853C8.20447 5.9853 7.44141 6.30137 6.8788 6.86398C6.31619 7.42659 6.00012 8.18965 6.00012 8.9853Z" stroke="var(--stroke-0, #D62E2F)" stroke-width="2" stroke-linecap="round" stroke-linejoin="round"/>
</g>
</svg>
