<svg preserveAspectRatio="none" width="100%" height="100%" overflow="visible" style="display: block;" viewBox="0 0 16.5 21" fill="none" xmlns="http://www.w3.org/2000/svg">
<g id="Group">
<path id="Vector" d="M3.75 5.25H6.75M3.75 10.5H12.75M3.75 13.5H12.75M3.75 16.5H6.75M2.25 20.25H14.25C14.6478 20.25 15.0294 20.092 15.3107 19.8107C15.592 19.5294 15.75 19.1478 15.75 18.75V2.25C15.75 1.85218 15.592 1.47064 15.3107 1.18934C15.0294 0.908035 14.6478 0.75 14.25 0.75H2.25C1.85218 0.75 1.47064 0.908035 1.18934 1.18934C0.908035 1.47064 0.75 1.85218 0.75 2.25V18.75C0.75 19.1478 0.908035 19.5294 1.18934 19.8107C1.47064 20.092 1.85218 20.25 2.25 20.25Z" stroke="var(--stroke-0, #D62E2F)" stroke-width="1.5" stroke-linecap="round" stroke-linejoin="round"/>
<path id="Vector_2" d="M12.75 5.625C12.9571 5.625 13.125 5.45711 13.125 5.25C13.125 5.04289 12.9571 4.875 12.75 4.875C12.5429 4.875 12.375 5.04289 12.375 5.25C12.375 5.45711 12.5429 5.625 12.75 5.625Z" fill="var(--fill-0, #D62E2F)" stroke="var(--stroke-0, #D62E2F)" stroke-width="0.75"/>
</g>
</svg>
