<svg preserveAspectRatio="none" width="100%" height="100%" overflow="visible" style="display: block;" viewBox="0 0 24 24" fill="none" xmlns="http://www.w3.org/2000/svg">
<g id="carbon:ibm-cloud-internet-services">
<path id="Vector" d="M12 3C10.22 3 8.47991 3.52784 6.99987 4.51677C5.51983 5.50571 4.36627 6.91131 3.68508 8.55585C3.0039 10.2004 2.82567 12.01 3.17293 13.7558C3.5202 15.5016 4.37737 17.1053 5.63604 18.364C6.89471 19.6226 8.49836 20.4798 10.2442 20.8271C11.99 21.1743 13.7996 20.9961 15.4442 20.3149C17.0887 19.6337 18.4943 18.4802 19.4832 17.0001C20.4722 15.5201 21 13.78 21 12V11H23V12C23 18.075 18.075 23 12 23C5.925 23 1 18.075 1 12C1 5.925 5.925 1 12 1H13V3H12ZM12 7C10.842 7.00001 9.71987 7.40198 8.82525 8.13728C7.93062 8.87258 7.31897 9.89561 7.09471 11.0317C6.87045 12.1678 7.04749 13.3465 7.5956 14.3666C8.14372 15.3867 9.02892 16.1849 10.1001 16.6249C11.1712 17.065 12.3619 17.1196 13.4688 16.7794C14.5758 16.4392 15.5303 15.7254 16.1695 14.7597C16.8086 13.7941 17.0928 12.6365 16.9734 11.4846C16.8541 10.3328 16.3386 9.25808 15.515 8.444L14.804 7.741L16.21 6.318L16.92 7.021C18.0732 8.1606 18.7951 9.66517 18.9623 11.2778C19.1296 12.8904 18.7319 14.5111 17.8372 15.8631C16.9424 17.2152 15.6061 18.2147 14.0564 18.691C12.5066 19.1674 10.8396 19.091 9.33992 18.475C7.84024 17.859 6.60089 16.7415 5.83349 15.3133C5.06608 13.8852 4.81822 12.2349 5.13221 10.6443C5.44621 9.05372 6.30259 7.62145 7.55513 6.59204C8.80768 5.56263 10.3787 4.99993 12 5H13V7H12ZM12 11C11.8022 11 11.6089 11.0586 11.4444 11.1685C11.28 11.2784 11.1518 11.4346 11.0761 11.6173C11.0004 11.8 10.9806 12.0011 11.0192 12.1951C11.0578 12.3891 11.153 12.5673 11.2929 12.7071C11.4327 12.847 11.6109 12.9422 11.8049 12.9808C11.9989 13.0194 12.2 12.9996 12.3827 12.9239C12.5654 12.8482 12.7216 12.72 12.8315 12.5556C12.9414 12.3911 13 12.1978 13 12V11H15V12C15 12.5933 14.8241 13.1734 14.4944 13.6667C14.1648 14.1601 13.6962 14.5446 13.1481 14.7716C12.5999 14.9987 11.9967 15.0581 11.4147 14.9424C10.8328 14.8266 10.2982 14.5409 9.87868 14.1213C9.45912 13.7018 9.1734 13.1672 9.05764 12.5853C8.94189 12.0033 9.0013 11.4001 9.22836 10.8519C9.45542 10.3038 9.83994 9.83524 10.3333 9.50559C10.8266 9.17595 11.4067 9 12 9H13V11H12Z" fill="var(--fill-0, #D62E2F)"/>
</g>
</svg>
