<svg preserveAspectRatio="none" width="100%" height="100%" overflow="visible" style="display: block;" viewBox="0 0 193.185 158.984" fill="none" xmlns="http://www.w3.org/2000/svg">
<g id="Group">
<g id="Group_2">
<path id="Vector" d="M64.0187 58.1384C64.0187 58.1384 63.3915 65.9791 65.1059 73.2777C65.1059 73.2777 41.9822 66.146 34.9573 66.146C34.9573 66.146 36.4626 59.0142 36.0445 54.6351L64.0187 58.1801V58.1384Z" fill="var(--fill-0, white)"/>
<path id="Vector_2" d="M65.1059 73.6948C65.1059 73.6948 65.0222 73.6948 64.9804 73.6948C64.7295 73.6114 41.8149 66.563 34.9573 66.563C34.8318 66.563 34.7064 66.5213 34.6228 66.3962C34.5391 66.3128 34.4973 66.1877 34.5391 66.0626C34.5391 65.9791 36.0445 58.9725 35.6263 54.6768C35.6263 54.5517 35.6263 54.4265 35.7518 54.3431C35.8354 54.2597 35.9609 54.218 36.0863 54.218L64.0605 57.763C64.2696 57.763 64.4368 57.9716 64.4368 58.2218C64.4368 58.3052 63.8514 66.1043 65.4822 73.236C65.4822 73.3611 65.4822 73.528 65.3568 73.6531C65.2731 73.7365 65.1895 73.7782 65.0641 73.7782L65.1059 73.6948ZM35.4591 65.7289C42.3167 66.0209 60.6735 71.4844 64.5205 72.6521C63.2242 66.5213 63.4751 60.1403 63.5587 58.472L36.4626 55.0521C36.7135 58.8474 35.7518 64.0607 35.4173 65.6872L35.4591 65.7289Z" fill="var(--fill-0, #000100)"/>
</g>
<g id="Group_3">
<path id="Vector_3" d="M87.5605 158.525H0.418149C0.418149 99.5943 34.9573 66.1043 34.9573 66.1043C34.9573 66.1043 70.8345 66.6464 78.1521 73.8616C84.5916 80.2009 87.5605 158.483 87.5605 158.483V158.525Z" fill="var(--fill-0, #A3C0CE)"/>
<path id="Vector_4" d="M87.5605 158.942H0.418149C0.16726 158.942 0 158.775 0 158.525C0 100.095 34.2883 66.146 34.6646 65.8123C34.7482 65.7289 34.8318 65.6872 34.9573 65.6872C36.4208 65.6872 71.0854 66.3128 78.4448 73.5697C84.9262 79.9507 87.8532 155.272 87.9787 158.483C87.9787 158.609 87.9786 158.692 87.8532 158.775C87.7696 158.859 87.6859 158.9 87.5605 158.9V158.942ZM0.836299 158.108H87.1005C86.8496 151.81 83.839 80.1175 77.8176 74.1953C70.96 67.4389 37.8007 66.6047 35.0827 66.563C32.8665 68.8152 1.00356 102.055 0.836299 158.108Z" fill="var(--fill-0, #000100)"/>
</g>
<path id="Vector_5" d="M73.887 34.2408C73.887 32.5308 74.8906 31.2796 76.145 29.6948C77.9849 27.3175 80.3265 24.3981 80.661 18.4341C80.8283 15.5564 80.1592 13.2626 78.6121 11.6777C77.1486 10.1346 75.1415 9.50901 73.5107 9.30047C77.3576 7.38199 78.4867 3.87867 78.5285 3.71185L78.7794 2.79431L77.8594 3.12796C77.8594 3.12796 77.4413 3.25308 76.2286 3.25308C74.1797 3.25308 70.0818 2.87773 62.137 1.04265C59.1263 0.33365 56.3665 8.66753e-07 53.9413 8.66753e-07C44.6584 8.66753e-07 42.2331 5.12986 41.6477 7.04834C40.4769 6.33934 39.2642 5.96398 38.0516 5.96398C34.9155 5.96398 31.863 8.38294 29.5214 12.7621C24.4617 22.146 23.7091 38.4531 31.1939 49.4218C35.9609 56.4284 42.1495 59.9735 49.5089 59.9735C56.8683 59.9735 64.5205 56.7621 73.0925 50.4645C79.4066 45.8351 77.1486 41.7062 75.3505 38.4114C74.5142 36.91 73.7616 35.4919 73.7616 34.1991L73.887 34.2408Z" fill="var(--fill-0, black)"/>
<g id="Group_4">
<path id="Vector_6" d="M75.7269 46.7943C75.3505 41.5393 73.8034 31.3213 72.7162 26.2332C70.1655 14.472 62.0116 19.1848 62.0116 19.1848C50.2197 16.182 39.306 22.3545 38.7625 26.3583C38.5116 28.4019 38.3861 32.364 38.5116 36.4512C38.5116 36.4512 38.4697 36.4512 38.4279 36.4512C34.5391 36.4512 31.403 39.5791 31.403 43.4161C31.403 47.2531 34.5391 50.381 38.4279 50.381C38.9297 50.381 39.4315 50.3393 39.9333 50.2142C40.7278 55.5109 41.6895 62.3507 46.2055 66.3962C49.0907 68.982 55.0285 65.7289 56.8683 70.6919C63.6423 70.3583 69.6637 68.6066 74.0543 63.5185C77.3158 59.7232 76.145 52.0493 75.7269 46.7943Z" fill="var(--fill-0, white)"/>
<path id="Vector_7" d="M56.8265 71.109C56.8265 71.109 56.492 70.9839 56.4502 70.8588C55.4466 68.2313 53.1886 68.1479 50.8052 68.0645C49.0071 67.981 47.1673 67.9393 45.871 66.7299C41.355 62.6844 40.3096 56.0948 39.5151 50.7147C39.1388 50.7564 38.7625 50.7981 38.3861 50.7981C34.2883 50.7981 30.9431 47.5033 30.9431 43.4161C30.9431 39.3289 34.0792 36.2009 38.0516 36.0341C37.968 32.0303 38.0516 28.2351 38.3443 26.3166C38.5534 24.8986 39.8078 23.3137 41.9404 21.854C45.9964 19.1431 53.6068 16.6825 61.9279 18.7678C62.597 18.3924 65.3986 17.1412 68.1584 18.3507C70.5836 19.3934 72.2562 22.0209 73.1343 26.1498C74.1797 30.9877 75.7687 41.2474 76.1868 46.7526C76.2286 47.4199 76.3123 48.1706 76.3541 48.8796C76.8141 53.9678 77.3577 60.3488 74.3888 63.7687C70.3746 68.3981 64.8132 70.7336 56.8683 71.109H56.8265ZM39.8496 49.7972C39.8496 49.7972 40.0169 49.7972 40.1005 49.8806C40.1842 49.964 40.2678 50.0474 40.2678 50.1725C41.0623 55.5526 42.024 62.1839 46.4146 66.1043C47.5018 67.0635 49.1326 67.1469 50.8052 67.1886C53.1468 67.272 55.8229 67.3555 57.0774 70.2332C64.6041 69.8161 69.9146 67.6057 73.6779 63.2265C76.4377 60.0569 75.8941 53.9261 75.4342 48.963C75.3505 48.2123 75.3087 47.5033 75.2669 46.7943C74.8906 41.3308 73.3016 31.1128 72.2562 26.3166C71.4199 22.4796 69.9146 20.0607 67.782 19.1014C65.0641 17.8919 62.2206 19.5185 62.1788 19.5602C62.0952 19.6019 61.9697 19.6436 61.8861 19.6019C53.774 17.5166 46.331 19.8938 42.4004 22.5213C40.4769 23.8142 39.306 25.2322 39.1388 26.4C38.8879 28.3602 38.7625 32.3223 38.8879 36.4095C38.8879 36.5346 38.8879 36.618 38.7625 36.7014C38.6788 36.7848 38.5952 36.8265 38.4697 36.8265C34.7482 36.8265 31.7794 39.746 31.7794 43.3744C31.7794 47.0028 34.7482 49.9223 38.3861 49.9223C38.8461 49.9223 39.306 49.8806 39.766 49.7555C39.766 49.7555 39.8078 49.7555 39.8496 49.7555V49.7972Z" fill="var(--fill-0, #000100)"/>
</g>
<path id="Vector_8" d="M75.7687 46.7943C75.7269 46.127 75.6432 45.2512 75.5178 44.2919C73.887 45.3346 71.8381 45.9602 69.4128 45.9602C66.4021 45.9602 64.6877 44.709 62.3879 44.3337C59.2936 43.8332 56.3247 44.6256 54.2758 46.0853C51.7251 47.8787 49.4253 49.672 45.3274 49.672C43.0694 49.672 41.1877 49.1716 39.5988 48.254C40.4769 53.7592 41.0623 61.8085 46.1637 66.3962C49.0489 68.982 54.9867 65.7289 56.8265 70.6919C63.6005 70.4 69.6219 68.6066 74.0125 63.5185C77.274 59.7232 76.1032 52.0493 75.7269 46.7943H75.7687ZM63.3078 53.3005C62.4297 53.6341 61.5098 53.8009 60.5899 53.8009C58.29 53.8009 56.5338 52.6749 55.823 51.5905C55.4048 50.9649 55.3212 50.2976 55.5721 49.7555C55.5721 49.672 55.823 49.5469 56.5756 49.5469C56.9101 49.5469 57.3283 49.5469 57.7883 49.5886C58.3737 49.5886 59.0845 49.672 59.8372 49.672C62.2625 49.672 64.3532 49.2967 66.4021 48.5043C66.9875 48.254 67.6566 48.254 67.782 48.4209C67.8657 48.5043 67.8657 48.7128 67.782 48.963C67.4475 50.1308 66.0258 52.2995 63.3915 53.3005H63.3078Z" fill="var(--fill-0, black)"/>
<path id="Vector_9" d="M65.3986 27.5261L65.7331 28.4019C65.7331 28.4019 68.3674 27.4844 72.8834 28.9858L73.1762 28.0682C68.2838 26.4417 65.4822 27.4427 65.3568 27.4844L65.3986 27.5261Z" fill="var(--fill-0, black)"/>
<path id="Vector_10" d="M47.8781 28.8607L48.3799 29.6531C52.4778 27.1924 55.1957 27.4844 55.2375 27.4844L55.363 26.5251C55.363 26.5251 52.2687 26.1498 47.8781 28.819V28.8607Z" fill="var(--fill-0, black)"/>
<path id="Vector_11" d="M51.3069 34.3242C50.387 34.3242 49.6762 35.0332 49.6762 35.9507C49.6762 36.8682 50.387 37.5773 51.3069 37.5773C52.2269 37.5773 52.9377 36.8682 52.9377 35.9507C52.9377 35.0332 52.1851 34.3242 51.3069 34.3242Z" fill="var(--fill-0, black)"/>
<path id="Vector_12" d="M68.2838 32.4057C67.3639 32.4057 66.653 33.1147 66.653 34.0322C66.653 34.9498 67.4057 35.6588 68.2838 35.6588C69.1619 35.6588 69.9146 34.9498 69.9146 34.0322C69.9146 33.1147 69.1619 32.4057 68.2838 32.4057Z" fill="var(--fill-0, black)"/>
<path id="Vector_13" d="M60.8826 38.9536L60.6735 39.8711C61.0498 39.9545 61.468 40.1213 61.5934 40.4133C61.7189 40.7886 61.3007 41.3725 61.1753 41.5393L61.8861 42.1649C61.8861 42.1649 62.806 41.0806 62.5133 40.1213C62.3043 39.5374 61.8025 39.1621 60.9244 38.9536H60.8826Z" fill="var(--fill-0, black)"/>
<g id="Group_5">
<path id="Vector_14" d="M173.365 144.387C162.66 144.387 153.335 150.142 153.335 157.191C153.335 157.608 153.335 158.025 153.461 158.525H192.641C192.725 158.066 192.767 157.608 192.767 157.191C192.767 150.142 184.069 144.387 173.365 144.387Z" fill="var(--fill-0, #005F8F)"/>
<path id="Vector_15" d="M192.641 158.9H153.461C153.461 158.9 153.085 158.775 153.043 158.567C152.959 158.066 152.917 157.608 152.917 157.191C152.917 150.017 162.284 143.97 173.365 143.97C184.446 143.97 193.185 149.892 193.185 157.191C193.185 157.608 193.185 158.066 193.06 158.567C193.06 158.775 192.851 158.9 192.641 158.9ZM153.795 158.066H192.265C192.307 157.733 192.349 157.441 192.349 157.149C192.349 150.309 183.818 144.762 173.365 144.762C162.911 144.762 153.754 150.434 153.754 157.149C153.754 157.441 153.754 157.733 153.837 158.066H153.795Z" fill="var(--fill-0, #005F8F)"/>
</g>
<g id="Group_6">
<path id="Vector_16" d="M167.302 130.123C167.302 130.123 167.009 130.123 166.925 130.165C164.5 130.874 160.109 134.169 156.555 136.838C153.879 138.84 151.788 140.425 150.743 140.8C150.576 140.842 150.367 140.883 150.032 140.883C145.6 140.883 128.915 137.005 128.915 137.005L120.72 158.483C125.278 158.567 135.94 158.483 153.921 158.483C171.901 158.483 175.665 157.191 176.083 156.982C177.295 156.273 178.006 155.522 178.132 154.73C178.299 153.937 177.797 153.312 177.797 153.312L177.379 152.811L177.923 152.436C178.383 152.144 178.633 151.81 178.633 151.393C178.675 150.267 177.17 148.808 176.543 148.307L175.915 147.807L176.543 147.348C177.421 146.764 177.839 146.097 177.797 145.388C177.714 143.594 174.954 141.592 173.908 140.967L174.494 139.966C174.494 139.966 178.299 141.968 179.762 143.594C181.895 145.888 184.613 146.722 186.327 146.722C187.038 146.722 187.456 146.555 187.498 146.514C187.498 146.514 187.54 146.18 187.164 145.471C184.613 140.883 171.274 130.123 167.302 130.123Z" fill="var(--fill-0, white)"/>
<path id="Vector_17" d="M127.327 158.942C124.399 158.942 122.225 158.942 120.72 158.942C120.594 158.942 120.469 158.859 120.385 158.775C120.302 158.65 120.302 158.525 120.343 158.4L128.497 136.921C128.497 136.921 128.79 136.629 128.999 136.671C129.166 136.671 145.683 140.508 150.032 140.508C150.283 140.508 150.45 140.508 150.576 140.425C151.579 140.049 153.754 138.423 156.304 136.546C159.9 133.877 164.333 130.582 166.8 129.831C166.925 129.79 167.093 129.748 167.302 129.748C171.483 129.748 184.864 140.508 187.54 145.346C187.749 145.721 188.084 146.472 187.875 146.806C187.875 146.806 187.875 146.847 187.791 146.889C187.582 147.098 186.996 147.223 186.327 147.223C184.529 147.223 181.686 146.389 179.47 143.97C178.299 142.677 175.623 141.175 174.661 140.633L174.494 140.925C175.456 141.551 178.173 143.511 178.257 145.471C178.257 146.347 177.839 147.098 176.835 147.765L176.668 147.89L176.835 148.015C176.835 148.015 179.135 149.85 179.052 151.435C179.052 151.977 178.717 152.436 178.173 152.811L178.006 152.895L178.132 153.02C178.132 153.02 178.717 153.854 178.55 154.772C178.383 155.689 177.588 156.565 176.292 157.316C175.581 157.691 171.901 158.859 153.921 158.859C146.854 158.859 140.916 158.859 136.066 158.859C132.637 158.859 129.752 158.859 127.368 158.859L127.327 158.942ZM121.305 158.066C124.149 158.066 128.957 158.066 136.024 158.066C140.916 158.066 146.812 158.066 153.879 158.066C172.11 158.066 175.372 156.857 175.832 156.607C176.877 155.981 177.546 155.314 177.672 154.646C177.797 154.021 177.421 153.562 177.421 153.562L177.003 153.062C177.003 153.062 176.877 152.853 176.919 152.728C176.919 152.603 177.003 152.519 177.086 152.436L177.63 152.061C178.09 151.769 178.132 151.518 178.132 151.352C178.132 150.434 176.835 149.141 176.208 148.641L175.581 148.14C175.581 148.14 175.414 147.932 175.414 147.807C175.414 147.682 175.497 147.556 175.581 147.473L176.208 147.014C176.961 146.514 177.295 145.972 177.295 145.429C177.254 144.011 174.996 142.176 173.616 141.342C173.407 141.217 173.365 140.967 173.448 140.758L174.034 139.757C174.034 139.757 174.368 139.507 174.577 139.591C174.745 139.674 178.466 141.634 179.972 143.302C181.979 145.513 184.613 146.305 186.202 146.305C186.536 146.305 186.787 146.305 186.913 146.222C186.913 146.097 186.787 145.888 186.662 145.638C184.195 141.217 170.94 130.499 167.134 130.499C167.009 130.499 166.925 130.499 166.883 130.499C164.542 131.208 160.151 134.461 156.639 137.088C153.921 139.132 151.788 140.717 150.701 141.092C150.492 141.175 150.199 141.217 149.865 141.217C145.767 141.217 131.508 138.006 128.999 137.422L121.18 158.025L121.305 158.066Z" fill="var(--fill-0, #000100)"/>
</g>
<g id="Group_7">
<path id="Vector_18" d="M35.7936 39.3706C34.1628 40.0379 33.2011 41.5393 33.2429 43.3327C33.3683 46.6692 36.5881 47.8787 38.2607 48.0455L38.3443 47.0863C38.3443 47.0863 34.3301 46.6692 34.2046 43.291C34.1628 41.873 34.8737 40.7886 36.1699 40.2464C37.5498 39.6626 39.1806 39.9545 40.1005 40.872L40.8114 40.2047C39.6406 38.9953 37.5498 38.6199 35.8354 39.3706H35.7936Z" fill="var(--fill-0, black)"/>
<path id="Vector_19" d="M36.7553 41.9564C36.5044 41.4142 36.5463 40.7469 36.9226 39.9128L36.0445 39.5374C35.5427 40.6218 35.5009 41.6227 35.919 42.4152C36.5463 43.6246 37.968 44 38.0098 44L38.2189 43.0825C38.2189 43.0825 37.1735 42.8322 36.7553 41.9981V41.9564Z" fill="var(--fill-0, black)"/>
</g>
<path id="Vector_20" d="M115.618 118.988C99.645 109.979 87.5605 81.7858 78.1521 73.9033L38.637 102.597C60.6317 129.831 93.3728 158.525 115.075 158.525H143.634L148.067 131.833C148.067 131.833 129.25 126.662 115.577 118.946L115.618 118.988Z" fill="var(--fill-0, #A3C0CE)"/>
<path id="Vector_21" d="M143.634 158.942H115.075C93.2891 158.942 60.8407 130.791 38.3025 102.847C38.177 102.681 38.177 102.389 38.3861 102.264C38.5534 102.138 38.8461 102.138 38.9715 102.347C61.3843 130.123 93.5819 158.108 115.075 158.108H143.3L147.607 132.167C144.931 131.416 127.912 126.411 115.409 119.363C105.625 113.858 97.4288 101.429 90.2367 90.4607C85.5534 83.3706 81.5391 77.2815 77.9012 74.237C77.734 74.0701 77.6922 73.8199 77.8594 73.6531C78.0267 73.4863 78.2776 73.4445 78.4448 73.6114C82.2082 76.7393 86.2642 82.9118 90.9475 90.0436C98.0979 100.929 106.252 113.232 115.869 118.654C129.334 126.245 148.067 131.458 148.234 131.5C148.443 131.541 148.569 131.75 148.527 131.958L144.094 158.65C144.094 158.65 143.885 158.984 143.676 158.984L143.634 158.942Z" fill="var(--fill-0, #000100)"/>
</g>
</svg>
