<svg preserveAspectRatio="none" width="100%" height="100%" overflow="visible" style="display: block;" viewBox="0 0 176.459 175.583" fill="none" xmlns="http://www.w3.org/2000/svg">
<g id="Group">
<path id="Vector" d="M104.956 133.877H71.5036V175.583H104.956V133.877Z" fill="var(--fill-0, #000100)"/>
<g id="Group_2">
<path id="Vector_2" d="M171.525 0.417062H4.93417C2.44004 0.417062 0.418151 2.43369 0.418151 4.92133V129.373C0.418151 131.86 2.44004 133.877 4.93417 133.877H171.525C174.019 133.877 176.041 131.86 176.041 129.373V4.92133C176.041 2.43369 174.019 0.417062 171.525 0.417062Z" fill="var(--fill-0, #DAE6ED)"/>
<path id="Vector_3" d="M171.525 134.294H4.93417C2.21619 134.294 0 132.083 0 129.373V4.92133C0 2.21043 2.21619 0 4.93417 0H171.525C174.243 0 176.459 2.21043 176.459 4.92133V129.373C176.459 132.083 174.243 134.294 171.525 134.294ZM4.93417 0.834123C2.67616 0.834123 0.836298 2.66919 0.836298 4.92133V129.373C0.836298 131.625 2.67616 133.46 4.93417 133.46H171.525C173.783 133.46 175.623 131.625 175.623 129.373V4.92133C175.623 2.66919 173.783 0.834123 171.525 0.834123H4.93417Z" fill="var(--fill-0, #000100)"/>
</g>
<g id="Group_3">
<path id="Vector_4" d="M169.141 51.6739C166.256 48.4209 162.326 49.3384 158.771 48.7128C156.681 48.3374 154.715 47.5867 152.666 47.0028C152.541 46.836 152.499 46.6692 152.499 46.5024C151.454 45.9185 149.739 47.128 149.238 45.0844C149.07 44.5005 148.736 44.9175 148.318 45.2512C146.436 46.6275 143.969 47.2948 142.213 46.0853C139.871 44.4588 137.362 45.1678 134.895 44.4171C134.853 43.4995 136.693 44 136.108 42.7488C135.731 41.9564 135.146 41.6227 134.31 41.4976C129.083 40.8303 124.525 42.3735 120.511 45.7934C118.922 47.7118 118.378 46.1687 117.751 44.9175C116.162 44.2085 116.162 46.7526 114.782 46.4607C115.702 47.0028 116.036 47.8787 116.12 49.4218C115.075 48.0038 113.946 47.2531 112.44 47.5033C112.608 48.963 111.562 48.6711 110.768 48.7545C109.388 48.9213 107.883 48.5877 106.837 49.9223C106.377 50.4645 106.126 50.4227 106.126 49.6303C106.126 49.3801 105.917 49.1299 105.792 48.9213C103.116 52.091 102.279 46.9194 100.147 47.5867C99.4359 47.6284 98.976 47.3365 99.0178 46.5024C97.6379 46.0853 96.3416 46.5024 95.0036 46.7109C94.9199 47.3365 94.5436 47.5867 93.9582 47.545C92.7456 49.1299 91.4911 50.7564 90.2785 52.3412C90.0694 52.9668 89.5676 52.9251 89.1077 52.9251C87.5187 54.1763 87.1423 55.7194 88.3132 57.3877C90.0276 59.8066 88.3968 61.0161 86.766 62.2256C86.1388 62.6844 86.0552 62.309 85.7624 61.6C85.177 60.0152 84.1317 58.6389 83.2954 57.1791C82.2918 57.1791 82.3336 57.8881 82.5427 58.5137C82.919 59.5981 82.0409 59.7232 81.5391 60.1403C80.2011 63.31 76.6468 63.1848 84.6335 63.1848C84.8007 64.5611 83.379 64.019 82.9609 64.6028C83.5463 65.437 84.8425 65.9791 84.4662 67.2303C84.0062 68.5649 82.7936 67.564 81.9573 67.7725C80.0756 68.273 80.9119 70.0246 80.9955 70.9422C81.2046 72.7355 82.5845 73.0275 84.1317 72.2351C84.508 71.5678 84.8425 70.8588 85.3025 70.2332C87.1842 67.7308 88.6059 66.6464 91.1566 69.5242C91.3238 69.3156 91.4911 69.0654 91.7002 68.8152C91.742 68.1062 90.6548 67.8559 91.1148 66.9384C93.3728 67.9393 94.46 70.0246 95.2544 72.1517C96.8434 71.6929 95.4635 70.2332 96.8016 69.7744C97.4706 71.6512 98.4742 73.3194 100.899 72.819C101.527 72.6938 101.778 73.3194 101.652 73.7782C101.443 74.5706 101.61 75.6967 100.398 75.8635C99.4777 75.9886 98.5578 76.1137 97.5543 75.8635C96.3835 75.6133 95.2963 74.1536 93.8327 76.072C93.2055 76.8645 90.3621 75.0294 90.3621 74.4038C90.1112 69.8995 87.3096 72.819 85.6788 72.4853C85.3443 72.4019 84.968 72.6938 84.5916 72.7773C82.6681 73.5697 80.3683 73.9033 80.3265 76.9062C80.3265 77.7403 79.323 78.0322 78.7376 78.5744C78.5703 78.7829 78.403 79.0332 78.2358 79.2417C77.274 82.4531 76.4795 85.5393 78.3194 88.9175C79.9502 91.9621 81.9155 92.5043 84.8425 91.5867C87.3932 90.7943 88.7731 91.7536 89.1077 94.2559C89.1077 94.5062 89.024 94.7564 88.9822 95.0066C89.0658 95.7156 89.2749 96.2161 89.8185 96.7583C91.1984 98.0512 91.8256 100.262 91.2402 101.596C89.8185 104.808 91.4493 107.435 91.8674 110.313C91.8674 110.605 91.9093 110.855 91.9511 111.147C92.3692 112.106 93.0801 113.107 93.1219 114.066C93.1637 115.901 93.8745 115.609 95.2544 115.568C98.3069 115.401 99.0178 113.065 100.189 110.98C100.189 110.855 100.189 110.73 100.189 110.605C100.732 109.562 101.903 108.728 100.983 107.227C100.732 106.809 101.318 106.017 101.819 105.809C104.119 104.849 104.119 102.889 103.534 101.054C102.656 98.218 103.534 96.2161 105.583 94.5062C105.499 94.1308 105.583 93.8389 106.001 93.7137C106.294 93.4635 106.586 93.2133 106.837 92.9213C109.221 89.5014 109.012 88.7507 105.039 87.9583C107.172 86.7488 109.137 85.8313 110.851 84.4133C112.524 83.037 113.486 81.619 111.186 79.5754C113.737 80.2009 116.622 79.0332 117.625 82.4114C119.925 82.9953 118.838 85.1223 119.423 86.4986C119.674 87.7498 120.051 88.9592 121.18 90.2104C122.183 87.5829 122.476 84.7886 125.027 83.1621C127.285 81.7024 127.745 81.5355 128.748 84.163C129.668 86.582 132.177 87.4161 133.641 89.2929C133.975 89.7517 134.602 88.9592 135.062 88.6673C135.899 88.2085 135.982 87.3744 135.648 86.582C135.355 85.873 134.937 85.164 134.477 84.5384C133.682 83.454 134.226 82.6616 135.104 82.4531C138.658 81.5355 138.7 81.619 140.498 79.4502C140.707 79.2 140.875 78.9915 141.084 78.7412C141.753 77.6152 141.627 76.4891 141.042 75.363C140.624 74.5706 140.08 73.8199 141 73.0275C141.293 72.7773 141.92 72.2768 140.916 72.1934C140.122 72.1099 139.411 72.11 140.122 71.0673C140.624 70.3583 141.084 70.3166 142.045 70.7754C142.84 71.1924 142.673 72.5687 143.802 72.2768C144.011 72.1517 144.22 71.9848 144.387 71.8597C144.303 70.2332 144.638 69.2739 146.603 68.8986C148.067 68.6483 148.736 66.7299 149.321 65.2701C150.074 63.4768 151.412 63.0597 153.043 63.0597C154.673 63.0597 156.304 63.0597 157.893 63.0597C158.06 62.6427 158.228 62.2673 158.353 61.8502C158.52 61.6417 158.897 61.4332 158.897 61.1829C158.813 56.4284 162.786 56.5118 165.629 55.219C166.005 55.0521 166.507 55.3024 166.549 54.4682C166.633 53.1337 167.427 52.5498 168.681 53.3005C169.476 53.7592 170.312 54.5517 170.772 53.2588C171.19 52.091 169.727 52.2161 169.267 51.7156L169.141 51.6739ZM81.9991 62.3507C80.452 62.0588 81.4973 60.891 81.4973 60.0569C82.1664 60.0569 83.1281 59.181 83.2954 60.5156C83.2954 60.7242 83.1699 62.5592 81.9991 62.3507ZM95.9653 56.345C96.8434 57.9716 93.2891 60.2654 90.0694 60.0569C92.2856 58.6389 93.9164 57.3043 93.2891 54.2597C93.0383 53.0502 94.7109 51.6739 96.258 50.8815C95.2126 52.7166 94.8363 54.2597 95.9653 56.345ZM98.9342 69.3573C98.6833 69.5242 97.7633 69.0654 98.1815 68.273C98.5996 67.4806 98.7669 65.7289 99.6868 66.2711C100.649 66.855 102.363 64.5194 102.656 67.1886C102.698 67.8142 103.868 68.0645 104.119 69.2322C102.279 69.8995 100.607 68.273 98.9342 69.399V69.3573ZM102.907 83.4957C102.363 82.1611 101.819 80.8265 101.109 79.0332C103.492 79.909 102.614 81.9526 103.492 83.037C104.133 84.0101 104.509 85.0667 104.621 86.2066C103.283 85.7896 103.199 84.5801 102.907 83.5374V83.4957ZM109.137 72.1934C108.217 72.1099 107.297 71.6929 107.757 70.5251C108.426 68.8569 104.412 66.5213 108.719 65.3953C108.97 65.5621 109.513 65.7289 109.681 66.1043C110.015 66.7299 109.304 66.5213 109.053 66.6881C107.883 67.3554 108.593 68.1479 109.137 68.4815C110.308 69.1905 109.221 70.3583 109.848 71.1924C110.099 71.4844 109.681 72.2351 109.137 72.1934ZM125.612 70.1498C125.612 70.1498 126.114 68.5232 125.988 68.3147C126.156 68.273 127.996 67.8142 128.163 67.8142C128.414 67.8142 128.665 67.9393 128.581 68.3147C128.497 68.5649 125.947 70.4 125.612 70.1081V70.1498ZM158.019 57.4711C157.433 58.2218 156.221 58.7223 156.472 59.8066C157.182 62.8095 155.343 62.5175 153.544 62.3924C152.457 62.309 151.454 62.4758 150.325 61.6834C149.488 61.0995 147.23 61.3915 147.732 60.1403C148.276 58.764 149.07 56.5536 151.579 56.8038C153.335 57.0123 155.384 58.0133 156.681 55.5109C157.099 54.6768 157.935 55.4692 158.395 55.8446C159.357 56.5953 158.311 57.0123 157.977 57.4294L158.019 57.4711Z" fill="var(--fill-0, #D62E2F)"/>
<path id="Vector_5" d="M83.2118 57.0123L83.2536 57.054H83.2954L83.2118 57.0123Z" fill="var(--fill-0, #A3C0CE)"/>
<path id="Vector_6" d="M44.2827 50.9649H44.2402V51.0073L44.2827 50.9649Z" fill="var(--fill-0, #A3C0CE)"/>
<path id="Vector_7" d="M48.9653 69.3156C49.8016 66.9801 53.105 66.5213 53.5231 63.5185C53.6486 62.7261 54.9867 62.9763 56.032 63.3934C56.7847 63.6853 58.1646 65.1033 58.8336 63.1014C58.7918 62.9346 58.75 62.7261 58.75 62.5592C58.2064 62.4341 57.6628 62.2673 57.1192 62.1422C57.7046 60.0569 56.1993 59.2645 55.0285 58.055C54.1085 57.0957 54.694 54.51 52.0178 55.7194C51.3488 56.0114 51.4324 54.6768 51.1397 54.1346C50.6379 53.1336 51.3906 53.3422 51.8923 53.2588C52.9377 53.0919 53.105 52.1327 53.3977 51.2986C53.4813 51.0483 52.7287 50.8815 53.3977 50.5062C55.1539 49.5469 55.1121 49.4635 53.3977 48.5043C52.7705 48.1706 52.1014 47.8787 52.8123 47.0028C52.7705 46.7943 52.8123 46.6275 52.8959 46.4607C50.9724 45.4597 49.1326 44.3754 47.1254 43.5412C45.4947 42.8739 43.8221 42.9573 42.5676 44.5422C42.7349 45.5848 43.5294 46.2104 44.1984 46.7943C45.0765 47.5867 44.5747 48.3374 44.073 48.7962C42.9858 49.7137 43.3203 48.0872 42.8603 47.9621C41.6895 47.6701 42.1495 46.3773 41.3968 45.71C39.6406 44.1668 41.8986 44.6673 42.2749 44.2085C42.6931 42.6654 41.3968 43.0408 40.9368 43.2493C40.226 43.5829 39.9333 44.1668 39.7242 44.8341C39.5569 44.3337 39.766 43.3327 38.4698 43.3327C37.8843 43.2493 37.6334 44.1251 37.508 44.6256C37.0899 46.2521 39.8078 46.0853 38.7206 45.71C39.0133 45.7934 39.3061 45.71 39.5151 45.5848C39.4733 45.7517 39.4315 45.9602 39.3479 46.0853C39.0133 47.128 41.5641 47.9204 39.8496 48.5877C38.7625 49.0047 37.0062 49.7555 35.6263 48.3792C36.2536 47.8787 37.2571 48.0455 37.7589 46.9194C35.919 47.2114 36.4626 44.5005 34.4555 44.5422C33.5356 44.5422 32.0721 45.2929 31.403 43.7498C31.194 44.4588 29.5214 45.1678 30.8176 45.7934C33.0756 46.8777 30.6922 47.0446 30.6504 47.6284C29.4377 48.963 28.3087 46.7109 27.0961 47.545H26.887C26.427 47.3782 25.8416 47.5033 25.5489 46.8777L25.4653 46.7526C25.1726 46.7526 24.8381 46.7526 24.5454 46.7526C24.5454 46.7526 24.8381 47.0446 24.7963 47.0863C24.5872 47.4616 24.4199 47.2114 24.2527 47.0446C24.0854 47.0446 23.96 46.9611 23.8763 46.8777C23.0818 48.254 21.7438 48.3374 20.6566 47.9204C18.6913 47.1697 16.6842 47.3782 14.7189 47.128C14.5934 47.0446 14.5098 46.9611 14.5098 46.7943C13.5899 46.5441 12.6281 46.4607 11.7082 46.7943C11.4991 47.5867 10.9137 47.6701 10.2447 47.545C8.53025 48.546 8.19573 50.5062 7.23398 52.0076C7.86121 52.8417 9.07384 51.9242 9.74288 52.8C9.15747 53.7175 7.56851 53.4256 7.65214 54.6768C7.77758 55.8863 8.9484 56.1782 9.91015 56.6787C11.1646 57.346 12.1263 57.8464 12.8372 56.0948C13.0044 55.7194 13.5062 55.636 13.9662 55.5109C18.0222 54.4265 20.5311 56.7621 22.831 59.5564C23.3746 60.2237 26.0089 63.31 25.6326 65.2701C24.7963 69.691 26.887 72.8607 29.605 75.8218C30.3577 75.7801 30.8176 76.072 30.9012 76.8645C30.9849 76.9896 31.0685 77.1147 31.1521 77.2398C31.0267 77.1564 30.9012 77.073 30.7758 76.9896C30.4413 76.9896 30.1068 76.9896 29.7304 76.9479C29.8977 77.3649 30.0649 77.782 30.2322 78.1991C30.2322 78.4493 30.274 78.6578 30.3158 78.9081C30.5667 79.2834 30.7758 79.6171 31.0267 79.9507C31.1521 79.8673 31.2776 79.909 31.3612 79.9924C32.6157 78.8664 33.5774 79.3251 33.7028 80.8682C33.8701 82.9118 35.3336 83.7877 36.7135 83.9545C39.8496 84.4133 42.1495 86.0815 44.1148 88.4171C44.2402 88.2502 44.3657 88.1251 44.4911 88C43.6966 86.7488 45.1183 84.1213 42.024 84.2047C41.5641 84.2047 42.8603 82.328 42.1495 81.0351C40.6859 81.7024 39.0552 84.9137 37.5916 81.1185C37.508 80.9934 37.4244 80.8265 37.3407 80.7014C37.3407 80.7014 37.4662 80.5763 37.508 80.4929C37.5916 80.0341 37.6335 79.5336 37.7171 79.0749C37.6753 78.9081 37.7171 78.7829 37.8007 78.6995C37.3826 77.0313 38.3025 76.072 39.6824 76.1555C41.5222 76.2389 44.282 74.2787 44.8256 78.1156C45.1183 78.1156 45.411 78.1156 45.7037 78.1156C44.1566 74.237 47.7945 72.2768 48.8817 69.3991L48.9653 69.3156ZM30.3158 53.9678C30.3158 53.9678 29.8141 53.7175 29.7722 53.509C29.7722 53.3422 29.9813 52.9668 30.1904 52.9251C30.3576 52.9251 30.6085 53.1337 30.9431 53.3422C30.6922 53.6341 30.5249 53.9678 30.3577 53.9678H30.3158ZM41.3132 53.1754C42.2749 52.4246 43.0694 51.4654 44.1984 51.0066C44.7838 49.8389 47 49.8389 46.2891 47.545C45.9128 46.3773 47.2509 47.2948 47.7527 47.0863C48.8817 46.6275 49.718 47.7536 49.9689 48.6711C50.1779 49.4218 49.9689 50.5479 49.0071 51.0066C48.5053 51.2152 47.8363 51.0901 47.669 51.8408C48.2544 52.7583 49.2162 51.6322 49.8434 52.4246C49.718 52.5915 49.5507 52.9668 49.3835 52.9251C47.669 52.8 39.0133 55.0104 41.3132 53.1754Z" fill="var(--fill-0, #D62E2F)"/>
<path id="Vector_8" d="M63.9769 95.9659C63.2242 96.091 62.7642 95.8825 62.7642 95.0066C61.9698 94.7564 60.9244 94.8815 60.8407 93.5886C60.7153 93.4218 60.5899 93.2133 60.4644 93.0047C57.7883 89.8768 54.3176 88.1668 50.4288 87.5412C48.798 87.291 47.4182 88.5422 47.5018 90.5441C47.5854 92.2957 46.54 93.4635 45.871 94.8815C45.871 95.0483 45.871 95.2152 45.7874 95.382C46.4146 98.8853 47.8363 101.888 50.387 104.391C52.2687 106.267 50.847 108.728 51.0142 110.897C51.0142 111.147 51.0142 111.355 51.0142 111.606C50.7215 115.443 50.3034 119.238 50.1779 123.075C50.0943 125.369 49.9689 127.871 52.5614 129.164C53.105 129.456 54.1504 129.289 53.8995 128.955C52.5196 127.079 53.774 125.369 53.8995 123.575C54.0249 121.49 54.903 119.738 56.1575 118.154C57.4119 116.569 58.6246 114.984 59.879 113.399C60.0044 112.815 60.4644 112.815 60.9244 112.773C61.0498 112.273 61.0498 111.689 61.6352 111.481C61.6352 111.314 61.6352 111.189 61.6352 111.022C60.3808 109.437 63.2242 109.812 63.9351 109.604C65.6077 109.062 66.1512 107.727 66.4858 106.309C66.9457 104.307 65.9422 102.681 67.1966 99.7194C68.2838 97.1753 65.7749 96.5915 63.9769 95.9242V95.9659Z" fill="var(--fill-0, #D62E2F)"/>
<path id="Vector_9" d="M150.576 101.555C150.199 101.721 149.948 101.763 149.865 101.888C149.279 102.681 150.116 104.349 149.028 104.474C147.732 104.641 147.272 103.39 147.272 102.013C147.272 101.304 146.687 101.346 146.227 101.596C144.847 102.264 143.216 102.639 142.171 103.682C140.749 105.1 139.369 106.559 137.529 107.393C136.149 108.019 137.111 109.645 136.191 110.48C136.233 110.605 136.233 110.73 136.191 110.855C137.195 111.439 137.362 112.565 137.195 113.482C136.777 115.901 137.78 115.651 139.286 114.942C139.955 114.609 140.749 114.483 141.418 114.15C143.76 112.899 145.6 113.316 146.854 115.818C146.98 115.776 147.105 115.818 147.23 115.901C148.652 118.028 151.328 118.529 152.165 116.61C152.917 114.859 154.381 113.316 154.339 111.23C154.339 110.98 154.339 110.73 154.297 110.438C153.67 107.185 151.161 104.891 150.534 101.638L150.576 101.555Z" fill="var(--fill-0, #D62E2F)"/>
<path id="Vector_10" d="M134.644 97.9261C133.306 97.4256 134.184 95.8825 133.264 95.2986C133.431 95.1317 133.557 94.8398 133.724 94.7564C134.602 94.5061 135.062 95.1317 135.648 95.7156C137.195 97.3005 138.491 97.1753 139.16 94.8398C139.16 94.3393 139.244 93.8806 139.286 93.4218C138.742 92.5877 140.415 91.7118 139.411 91.0445C138.24 90.2938 138.157 91.8787 137.613 92.3791C134.686 94.9649 133.808 95.0066 130.964 92.4626C130.421 91.9621 130.128 91.0028 129.041 91.5033C129.25 92.6294 130.588 93.2133 130.504 94.5062V94.5479C132.344 96.8417 133.599 100.011 137.404 99.3024C136.902 97.9678 135.606 98.3014 134.686 97.9678L134.644 97.9261Z" fill="var(--fill-0, #D62E2F)"/>
<path id="Vector_11" d="M147.732 95.9659C147.314 96.1744 146.938 96.4246 146.52 96.6332C147.105 97.4673 148.318 97.4256 148.61 98.8019C149.028 100.971 151.119 98.4265 152.081 99.8863C152.332 100.262 152.541 99.636 152.583 99.2607C152.834 97.8009 151.914 97.0502 150.827 96.6332C149.865 96.2161 148.945 95.2152 147.69 95.9659H147.732Z" fill="var(--fill-0, #D62E2F)"/>
<path id="Vector_12" d="M146.478 73.7782C146.938 73.9867 147.398 74.1953 147.899 74.4455C149.363 73.9867 150.785 73.528 149.656 71.3592C148.527 72.2351 147.523 72.9858 146.478 73.7782Z" fill="var(--fill-0, #D62E2F)"/>
<path id="Vector_13" d="M41.6477 40.163C41.3132 41.7062 41.6477 42.3735 43.4039 42.7488C46.9582 43.4995 47.8781 40.2464 49.8434 38.6616C51.3069 37.4938 52.5196 35.9924 54.5267 37.5355C54.1922 38.1611 53.6486 38.0777 53.2304 38.2863C52.6032 38.6199 51.0142 37.7441 51.4324 39.5791C51.6833 40.6635 52.1432 41.4559 53.5231 40.872C54.1085 40.6218 54.8612 40.7886 55.5303 40.7886C58.4155 40.872 57.5374 44.4588 59.5027 45.418C59.0427 45.71 58.5827 46.0436 58.1228 46.3355C58.1228 46.6275 58.1228 46.8777 58.1228 47.1697C58.4573 47.7536 59.9626 47.2948 59.5027 47.8787C57.8719 49.8389 59.6699 51.2152 59.9208 52.8C60.3808 52.8834 60.8407 52.8834 60.9662 53.4673C62.3043 54.6351 63.3496 55.2607 64.1023 52.8C64.395 51.9242 64.6041 50.8815 65.7331 50.2142C68.1584 48.7545 70.7091 47.7118 73.2598 46.5858V46.419L73.3016 46.3355C73.3016 45.8768 73.6361 45.3763 73.1343 45.0009C72.6326 44.8341 72.5907 44.6256 73.0925 44.3754C74.7651 41.5393 73.5525 37.3687 77.2322 35.5337C75.9359 34.2825 73.9706 36.1592 73.7197 35.0749C73.1762 32.7393 71.4617 33.3232 70.2073 33.0313C66.6948 32.3223 63.6842 34.2825 60.5062 35.3251C60.2553 35.3251 59.9626 35.2417 59.7117 35.2C56.5338 35.1166 53.4813 33.4066 50.2198 34.2408C48.9235 34.5744 47.5854 35.0749 46.331 34.9081C44.4075 34.6578 43.1112 36.2009 41.355 36.4512C40.4769 36.5763 41.7313 38.2863 41.8986 39.2872C41.8986 39.5374 41.6477 39.7877 41.5641 40.0379L41.6477 40.163Z" fill="var(--fill-0, #D62E2F)"/>
<path id="Vector_14" d="M74.8488 49.7972C74.2215 50.2559 72.8416 49.2133 72.6744 50.5896C72.5908 51.5071 73.7198 52.0493 74.5561 51.9242C75.3087 51.8408 76.5214 51.6739 76.605 50.673C76.6886 49.5052 75.6432 49.7972 74.8069 49.7972H74.8488Z" fill="var(--fill-0, #D62E2F)"/>
<path id="Vector_15" d="M105.165 108.936C105.165 109.479 105.29 110.188 105.959 110.396C106.503 110.563 106.921 110.313 107.046 109.771C107.59 107.644 108.677 105.6 108.51 102.889C106.168 104.557 105.123 106.476 105.206 108.936H105.165Z" fill="var(--fill-0, #D62E2F)"/>
</g>
<g id="Group_4">
<path id="Vector_16" d="M112.608 93.0464H102.154L95.8817 99.3024L89.6094 93.0464H79.1557V59.6815H112.608V93.0464Z" fill="var(--fill-0, white)"/>
<path id="Vector_17" d="M95.8817 99.7194C95.8817 99.7194 95.6726 99.7194 95.589 99.5943L89.4422 93.4635H79.1557C78.9048 93.4635 78.7375 93.2967 78.7375 93.0464V59.6815C78.7375 59.4313 78.9048 59.2645 79.1557 59.2645H112.608C112.859 59.2645 113.026 59.4313 113.026 59.6815V93.0464C113.026 93.2967 112.859 93.4635 112.608 93.4635H102.321L96.1744 99.5943C96.1744 99.5943 96.0071 99.7194 95.8817 99.7194ZM79.5738 92.6294H89.6094C89.6094 92.6294 89.8185 92.6711 89.9021 92.7545L95.8817 98.7185L101.861 92.7545C101.861 92.7545 102.028 92.6294 102.154 92.6294H112.19V60.0986H79.5738V92.6294Z" fill="var(--fill-0, #000100)"/>
<path id="Vector_18" d="M95.8817 88.8758C102.81 88.8758 108.426 83.2741 108.426 76.364C108.426 69.4539 102.81 63.8521 95.8817 63.8521C88.9535 63.8521 83.3372 69.4539 83.3372 76.364C83.3372 83.2741 88.9535 88.8758 95.8817 88.8758Z" fill="var(--fill-0, white)"/>
<path id="Vector_19" d="M95.8817 88.8758C99.4778 88.8758 102.698 87.3327 104.997 84.9137C104.328 81.2019 101.61 78.2408 97.9306 77.4066C99.4778 76.6559 100.565 75.0711 100.565 73.236C100.565 70.6502 98.4742 68.5649 95.8817 68.5649C93.2891 68.5649 91.1984 70.6502 91.1984 73.236C91.1984 75.0711 92.2856 76.6559 93.8327 77.4066C90.153 78.2408 87.4351 81.2019 86.766 84.9137C89.0658 87.3327 92.2856 88.8758 95.8817 88.8758Z" fill="var(--fill-0, #000100)"/>
<path id="Vector_20" d="M95.8817 89.5014C88.6059 89.5014 82.71 83.6208 82.71 76.364C82.71 69.1071 88.6059 63.2265 95.8817 63.2265C103.157 63.2265 109.053 69.1071 109.053 76.364C109.053 83.6208 103.157 89.5014 95.8817 89.5014ZM95.8817 64.4777C89.3167 64.4777 83.9644 69.8161 83.9644 76.364C83.9644 82.9118 89.3167 88.2502 95.8817 88.2502C102.447 88.2502 107.799 82.9118 107.799 76.364C107.799 69.8161 102.447 64.4777 95.8817 64.4777Z" fill="var(--fill-0, white)"/>
<path id="Vector_21" d="M158.604 47.1697H148.15L141.878 53.4256L135.606 47.1697H125.152V13.8047H158.604V47.1697Z" fill="var(--fill-0, white)"/>
<path id="Vector_22" d="M141.878 53.8427C141.878 53.8427 141.669 53.8427 141.585 53.7175L135.439 47.5867H125.152C124.901 47.5867 124.734 47.4199 124.734 47.1697V13.8047C124.734 13.5545 124.901 13.3877 125.152 13.3877H158.604C158.855 13.3877 159.022 13.5545 159.022 13.8047V47.1697C159.022 47.4199 158.855 47.5867 158.604 47.5867H148.318L142.171 53.7175C142.171 53.7175 142.004 53.8427 141.878 53.8427ZM125.57 46.7526H135.606C135.606 46.7526 135.815 46.7943 135.899 46.8777L141.878 52.8417L147.858 46.8777C147.858 46.8777 148.025 46.7526 148.15 46.7526H158.186V14.2218H125.57V46.7526Z" fill="var(--fill-0, #000100)"/>
<path id="Vector_23" d="M141.878 42.9991C148.806 42.9991 154.423 37.3973 154.423 30.4872C154.423 23.5771 148.806 17.9754 141.878 17.9754C134.95 17.9754 129.334 23.5771 129.334 30.4872C129.334 37.3973 134.95 42.9991 141.878 42.9991Z" fill="var(--fill-0, white)"/>
<path id="Vector_24" d="M141.878 42.9991C145.474 42.9991 148.694 41.4559 150.994 39.037C150.325 35.3251 147.607 32.364 143.927 31.5299C145.474 30.7791 146.561 29.1943 146.561 27.3592C146.561 24.7735 144.471 22.6882 141.878 22.6882C139.286 22.6882 137.195 24.7735 137.195 27.3592C137.195 29.1943 138.282 30.7791 139.829 31.5299C136.149 32.364 133.431 35.3251 132.762 39.037C135.062 41.4559 138.282 42.9991 141.878 42.9991Z" fill="var(--fill-0, #000100)"/>
<path id="Vector_25" d="M141.878 43.6246C134.602 43.6246 128.706 37.7441 128.706 30.4872C128.706 23.2303 134.602 17.3498 141.878 17.3498C149.154 17.3498 155.05 23.2303 155.05 30.4872C155.05 37.7441 149.154 43.6246 141.878 43.6246ZM141.878 18.6009C135.313 18.6009 129.961 23.9393 129.961 30.4872C129.961 37.0351 135.313 42.3735 141.878 42.3735C148.443 42.3735 153.795 37.0351 153.795 30.4872C153.795 23.9393 148.443 18.6009 141.878 18.6009Z" fill="var(--fill-0, white)"/>
<path id="Vector_26" d="M62.597 52.8834H52.1432L45.871 59.1393L39.5988 52.8834H29.145V19.5185H62.597V52.8834Z" fill="var(--fill-0, white)"/>
<path id="Vector_27" d="M45.871 59.5564C45.871 59.5564 45.6619 59.5564 45.5783 59.4313L39.4315 53.3005H29.145C28.8941 53.3005 28.7269 53.1337 28.7269 52.8834V19.5185C28.7269 19.2682 28.8941 19.1014 29.145 19.1014H62.597C62.8479 19.1014 63.0151 19.2682 63.0151 19.5185V52.8834C63.0151 53.1337 62.8479 53.3005 62.597 53.3005H52.3105L46.1637 59.4313C46.1637 59.4313 45.9964 59.5564 45.871 59.5564ZM29.5632 52.4664H39.5988C39.5988 52.4664 39.8078 52.5081 39.8915 52.5915L45.871 58.5555L51.8505 52.5915C51.8505 52.5915 52.0178 52.4664 52.1432 52.4664H62.1788V19.9355H29.5632V52.4664Z" fill="var(--fill-0, #000100)"/>
<path id="Vector_28" d="M45.871 48.7128C52.7991 48.7128 58.4155 43.1111 58.4155 36.2009C58.4155 29.2908 52.7991 23.6891 45.871 23.6891C38.9429 23.6891 33.3265 29.2908 33.3265 36.2009C33.3265 43.1111 38.9429 48.7128 45.871 48.7128Z" fill="var(--fill-0, white)"/>
<path id="Vector_29" d="M45.871 48.7128C49.4671 48.7128 52.6868 47.1697 54.9867 44.7507C54.3176 41.0389 51.5996 38.0777 47.9199 37.2436C49.4671 36.4929 50.5543 34.9081 50.5543 33.073C50.5543 30.4872 48.4635 28.4019 45.871 28.4019C43.2785 28.4019 41.1877 30.4872 41.1877 33.073C41.1877 34.9081 42.2749 36.4929 43.8221 37.2436C40.1423 38.0777 37.4244 41.0389 36.7553 44.7507C39.0552 47.1697 42.2749 48.7128 45.871 48.7128Z" fill="var(--fill-0, #000100)"/>
<path id="Vector_30" d="M45.871 49.3384C38.5952 49.3384 32.6993 43.4578 32.6993 36.2009C32.6993 28.9441 38.5952 23.0635 45.871 23.0635C53.1468 23.0635 59.0427 28.9441 59.0427 36.2009C59.0427 43.4578 53.1468 49.3384 45.871 49.3384ZM45.871 24.3147C39.306 24.3147 33.9537 29.6531 33.9537 36.2009C33.9537 42.7488 39.306 48.0872 45.871 48.0872C52.4359 48.0872 57.7883 42.7488 57.7883 36.2009C57.7883 29.6531 52.4359 24.3147 45.871 24.3147Z" fill="var(--fill-0, white)"/>
</g>
</g>
</svg>
