<svg preserveAspectRatio="none" width="100%" height="100%" overflow="visible" style="display: block;" viewBox="0 0 52.0961 28.5767" fill="none" xmlns="http://www.w3.org/2000/svg">
<g id="Group">
<path id="Vector" d="M4.93447 27.8008L3.17003e-08 27.7213V0L4.93447 0.129761V27.8008Z" fill="var(--fill-0, white)"/>
<path id="Vector_2" d="M4.93447 27.8008L0 27.7213V14.5598L4.93447 14.6631V27.8008Z" fill="url(#paint0_linear_20934_30591)"/>
<path id="Vector_3" d="M11.7705 27.9146L6.85993 27.8326V0.182726L11.7705 0.312487V27.9146Z" fill="var(--fill-0, white)"/>
<path id="Vector_4" d="M11.7705 27.9146L6.85993 27.8326V21.2703L11.7705 21.3604V27.9146Z" fill="url(#paint1_linear_20934_30591)"/>
<path id="Vector_5" d="M18.5747 28.0259L13.688 27.9464V0.362802L18.5747 0.492565V28.0259Z" fill="var(--fill-0, white)"/>
<path id="Vector_6" d="M18.5747 28.0259L13.688 27.9464V24.5091L18.5747 24.5938V28.0259Z" fill="url(#paint2_linear_20934_30591)"/>
<path id="Vector_7" d="M25.3443 28.1371L20.4815 28.0576V0.542879L25.3443 0.669994V28.1371Z" fill="var(--fill-0, white)"/>
<path id="Vector_8" d="M25.3443 28.1371L20.4815 28.0576V6.50132L25.3443 6.62049V28.1371Z" fill="url(#paint3_linear_20934_30591)"/>
<path id="Vector_9" d="M32.082 28.2483L27.2432 28.1689V0.72031L32.082 0.847422V28.2483Z" fill="var(--fill-0, white)"/>
<path id="Vector_10" d="M32.082 28.2483L27.2432 28.1689V9.1098L32.082 9.22367V28.2483Z" fill="url(#paint4_linear_20934_30591)"/>
<path id="Vector_11" d="M38.7853 28.3569L33.9703 28.2801V0.897739L38.7853 1.02485V28.3569Z" fill="var(--fill-0, white)"/>
<path id="Vector_12" d="M38.7853 28.3569L33.9703 28.2801V4.88063L38.7853 4.9998V28.3569Z" fill="url(#paint5_linear_20934_30591)"/>
<path id="Vector_13" d="M45.4566 28.4681L40.6656 28.3887V1.07517L45.4566 1.20228V28.4681Z" fill="var(--fill-0, white)"/>
<path id="Vector_14" d="M45.4566 28.4681L40.6656 28.3887V11.6123L45.4566 11.7209V28.4681Z" fill="url(#paint6_linear_20934_30591)"/>
<path id="Vector_15" d="M52.0961 28.5767L47.3263 28.4972V1.2526L52.0961 1.37706V28.5767Z" fill="var(--fill-0, white)"/>
<path id="Vector_16" d="M52.0961 28.5767L47.3263 28.4972V19.0379L52.0961 19.1332V28.5767Z" fill="url(#paint7_linear_20934_30591)"/>
</g>
<defs>
<linearGradient id="paint0_linear_20934_30591" x1="5.42314" y1="11.9831" x2="-1.55181" y2="33.8106" gradientUnits="userSpaceOnUse">
<stop stop-color="#FF6B74"/>
<stop offset="1" stop-color="#8B1D3A"/>
</linearGradient>
<linearGradient id="paint1_linear_20934_30591" x1="10.9419" y1="19.5384" x2="7.10831" y2="31.5305" gradientUnits="userSpaceOnUse">
<stop stop-color="#FF6B74"/>
<stop offset="1" stop-color="#8B1D3A"/>
</linearGradient>
<linearGradient id="paint2_linear_20934_30591" x1="17.1246" y1="23.1797" x2="14.7838" y2="30.5058" gradientUnits="userSpaceOnUse">
<stop stop-color="#FF6B74"/>
<stop offset="1" stop-color="#8B1D3A"/>
</linearGradient>
<linearGradient id="paint3_linear_20934_30591" x1="27.5566" y1="2.87064" x2="16.6001" y2="37.1619" gradientUnits="userSpaceOnUse">
<stop stop-color="#FF6B74"/>
<stop offset="1" stop-color="#8B1D3A"/>
</linearGradient>
<linearGradient id="paint4_linear_20934_30591" x1="33.8003" y1="5.79955" x2="24.0354" y2="36.3654" gradientUnits="userSpaceOnUse">
<stop stop-color="#FF6B74"/>
<stop offset="1" stop-color="#8B1D3A"/>
</linearGradient>
<linearGradient id="paint5_linear_20934_30591" x1="41.3906" y1="1.0222" x2="29.5623" y2="38.0372" gradientUnits="userSpaceOnUse">
<stop stop-color="#FF6B74"/>
<stop offset="1" stop-color="#8B1D3A"/>
</linearGradient>
<linearGradient id="paint6_linear_20934_30591" x1="46.7367" y1="8.60135" x2="38.063" y2="35.7466" gradientUnits="userSpaceOnUse">
<stop stop-color="#FF6B74"/>
<stop offset="1" stop-color="#8B1D3A"/>
</linearGradient>
<linearGradient id="paint7_linear_20934_30591" x1="51.9102" y1="16.9644" x2="46.7213" y2="33.2038" gradientUnits="userSpaceOnUse">
<stop stop-color="#FF6B74"/>
<stop offset="1" stop-color="#8B1D3A"/>
</linearGradient>
</defs>
</svg>
