<svg preserveAspectRatio="none" width="100%" height="100%" overflow="visible" style="display: block;" viewBox="0 0 19.987 19.99" fill="none" xmlns="http://www.w3.org/2000/svg">
<path id="Vector" d="M5.138 1.006C5.97 0.358 7.058 0 8.139 0C8.786 0 9.309 0.222 9.706 0.575C9.813 0.67 9.908 0.773 9.993 0.879C10.078 0.773 10.173 0.67 10.28 0.575C10.677 0.222 11.2 0 11.847 0C12.928 0 14.017 0.358 14.847 1.006C15.495 1.509 16.002 2.204 16.201 3.043C16.621 3.113 16.994 3.327 17.296 3.61C17.776 4.061 18.119 4.713 18.334 5.384C18.553 6.065 18.662 6.83 18.629 7.565C18.612 7.941 18.557 8.325 18.452 8.692L18.517 8.722C18.887 8.896 19.187 9.169 19.412 9.532C19.837 10.217 19.987 11.203 19.987 12.46C19.987 13.905 19.434 14.886 18.724 15.495C18.3542 15.8122 17.9213 16.0473 17.454 16.185C17.2844 16.9665 16.936 17.6979 16.436 18.322C15.713 19.226 14.589 19.99 13.079 19.99C11.869 19.99 10.916 19.32 10.304 18.68C10.1955 18.5656 10.092 18.4465 9.994 18.323C9.89562 18.4462 9.79185 18.565 9.683 18.679C9.071 19.321 8.118 19.99 6.908 19.99C5.397 19.99 4.273 19.226 3.551 18.322C3.05028 17.6981 2.70113 16.9666 2.531 16.185C2.064 16.0472 1.6315 15.8121 1.262 15.495C0.552 14.885 0 13.905 0 12.46C0 11.203 0.15 10.217 0.574 9.532C0.798955 9.15906 1.1345 8.86546 1.534 8.692C1.43126 8.32452 1.37185 7.94628 1.357 7.565C1.324 6.83 1.433 6.065 1.652 5.384C1.867 4.714 2.209 4.061 2.69 3.61C2.99083 3.31678 3.37192 3.11944 3.785 3.043C3.985 2.203 4.491 1.509 5.138 1.006ZM6.06 2.189C5.514 2.614 5.194 3.18 5.194 3.832C5.19391 3.95078 5.16561 4.06783 5.11143 4.17353C5.05726 4.27923 4.97875 4.37055 4.88237 4.43998C4.786 4.5094 4.67452 4.55494 4.5571 4.57285C4.43968 4.59077 4.31969 4.58053 4.207 4.543C4.07 4.497 3.925 4.508 3.717 4.704C3.485 4.921 3.25 5.314 3.08 5.842C2.90994 6.37685 2.83415 6.93719 2.856 7.498C2.881 8.054 3.013 8.516 3.221 8.828C3.25542 8.87969 3.28329 8.93545 3.304 8.994H4.386C5.10596 8.99385 5.79931 9.26619 6.3267 9.7563C6.8541 10.2464 7.17646 10.918 7.229 11.636C7.65978 11.8079 8.01743 12.1242 8.24074 12.5307C8.46404 12.9372 8.53911 13.4087 8.45311 13.8644C8.3671 14.3202 8.12537 14.7319 7.76927 15.0291C7.41318 15.3263 6.96486 15.4905 6.50106 15.4935C6.03726 15.4966 5.58681 15.3384 5.22681 15.046C4.8668 14.7535 4.61962 14.3451 4.52757 13.8905C4.43553 13.4359 4.50434 12.9635 4.72223 12.554C4.94012 12.1446 5.29354 11.8236 5.722 11.646C5.6745 11.3257 5.51344 11.0331 5.26819 10.8216C5.02294 10.6101 4.70984 10.4939 4.386 10.494H1.761C1.611 10.842 1.5 11.443 1.5 12.46C1.5 13.481 1.871 14.041 2.239 14.357C2.642 14.702 3.085 14.792 3.213 14.792C3.41191 14.792 3.60268 14.871 3.74333 15.0117C3.88398 15.1523 3.963 15.3431 3.963 15.542C3.963 15.962 4.195 16.725 4.723 17.385C5.231 18.022 5.955 18.49 6.908 18.49C7.545 18.49 8.131 18.132 8.598 17.644C8.824 17.406 9 17.159 9.116 16.959C9.1599 16.8842 9.19833 16.8063 9.231 16.726L9.237 16.712V7.244H8.341C8.16695 7.67427 7.84867 8.0306 7.44071 8.25194C7.03275 8.47327 6.56051 8.54583 6.10492 8.45717C5.64933 8.36851 5.23876 8.12416 4.94357 7.76599C4.64838 7.40782 4.48695 6.95814 4.48695 6.494C4.48695 6.02986 4.64838 5.58018 4.94357 5.22201C5.23876 4.86384 5.64933 4.61948 6.10492 4.53083C6.56051 4.44217 7.03275 4.51473 7.44071 4.73606C7.84867 4.9574 8.16695 5.31373 8.341 5.744H9.237V3.206L9.234 3.149C9.21689 2.84102 9.15629 2.537 9.054 2.246C8.964 2.006 8.847 1.819 8.709 1.696C8.586 1.586 8.416 1.5 8.139 1.5C7.373 1.5 6.614 1.758 6.059 2.19M10.75 14.994V16.712L10.755 16.726C10.775 16.779 10.813 16.858 10.871 16.959C10.986 17.159 11.162 17.406 11.389 17.644C11.855 18.132 12.442 18.49 13.079 18.49C14.031 18.49 14.755 18.022 15.264 17.385C15.791 16.725 16.024 15.961 16.024 15.542C16.024 15.3431 16.103 15.1523 16.2437 15.0117C16.3843 14.871 16.5751 14.792 16.774 14.792C16.902 14.792 17.344 14.702 17.748 14.357C18.115 14.041 18.486 13.481 18.486 12.46C18.486 11.252 18.328 10.63 18.137 10.323C18.0772 10.2168 17.9865 10.1314 17.877 10.078C17.776 10.03 17.624 9.994 17.389 9.994C17.2533 9.99399 17.1201 9.95714 17.0036 9.88738C16.8872 9.81762 16.7918 9.71756 16.7278 9.59788C16.6637 9.4782 16.6334 9.34338 16.6399 9.2078C16.6465 9.07221 16.6897 8.94095 16.765 8.828C16.973 8.516 17.105 8.054 17.131 7.498C17.1525 6.93713 17.0764 6.3768 16.906 5.842C16.736 5.314 16.501 4.922 16.27 4.704C16.061 4.508 15.916 4.497 15.78 4.543C15.6673 4.58073 15.5471 4.59111 15.4296 4.57329C15.312 4.55548 15.2004 4.50997 15.1039 4.44052C15.0074 4.37107 14.9288 4.27968 14.8746 4.17388C14.8203 4.06807 14.792 3.95089 14.792 3.832C14.792 3.18 14.472 2.614 13.926 2.189C13.373 1.758 12.613 1.499 11.846 1.499C11.57 1.499 11.401 1.586 11.277 1.695C11.1204 1.84854 11.0025 2.03704 10.933 2.245C10.8209 2.55345 10.7591 2.87793 10.75 3.206V13.494H11.386C11.744 13.494 12.0874 13.3518 12.3406 13.0986C12.5938 12.8454 12.736 12.502 12.736 12.144V10.349C12.3057 10.1749 11.9494 9.85667 11.7281 9.44871C11.5067 9.04075 11.4342 8.5685 11.5228 8.11292C11.6115 7.65733 11.8558 7.24676 12.214 6.95157C12.5722 6.65638 13.0219 6.49495 13.486 6.49495C13.9501 6.49495 14.3998 6.65638 14.758 6.95157C15.1162 7.24676 15.3605 7.65733 15.4492 8.11292C15.5378 8.5685 15.4653 9.04075 15.2439 9.44871C15.0226 9.85667 14.6663 10.1749 14.236 10.349V12.144C14.236 12.8999 13.9357 13.6248 13.4013 14.1593C12.8668 14.6937 12.1419 14.994 11.386 14.994H10.75ZM6.486 5.994C6.35339 5.994 6.22621 6.04668 6.13245 6.14045C6.03868 6.23421 5.986 6.36139 5.986 6.494C5.986 6.62661 6.03868 6.75379 6.13245 6.84755C6.22621 6.94132 6.35339 6.994 6.486 6.994C6.61861 6.994 6.74579 6.94132 6.83955 6.84755C6.93332 6.75379 6.986 6.62661 6.986 6.494C6.986 6.36139 6.93332 6.23421 6.83955 6.14045C6.74579 6.04668 6.61861 5.994 6.486 5.994ZM5.986 13.494C5.986 13.6266 6.03868 13.7538 6.13245 13.8476C6.22621 13.9413 6.35339 13.994 6.486 13.994C6.61861 13.994 6.74579 13.9413 6.83955 13.8476C6.93332 13.7538 6.986 13.6266 6.986 13.494C6.986 13.3614 6.93332 13.2342 6.83955 13.1404C6.74579 13.0467 6.61861 12.994 6.486 12.994C6.35339 12.994 6.22621 13.0467 6.13245 13.1404C6.03868 13.2342 5.986 13.3614 5.986 13.494ZM12.986 8.494C12.986 8.62661 13.0387 8.75379 13.1324 8.84755C13.2262 8.94132 13.3534 8.994 13.486 8.994C13.6186 8.994 13.7458 8.94132 13.8396 8.84755C13.9333 8.75379 13.986 8.62661 13.986 8.494C13.986 8.36139 13.9333 8.23421 13.8396 8.14045C13.7458 8.04668 13.6186 7.994 13.486 7.994C13.3534 7.994 13.2262 8.04668 13.1324 8.14045C13.0387 8.23421 12.986 8.36139 12.986 8.494Z" fill="var(--fill-0, #D62E2F)"/>
</svg>
