<svg preserveAspectRatio="none" width="100%" height="100%" overflow="visible" style="display: block;" viewBox="0 0 151.456 135.639" fill="none" xmlns="http://www.w3.org/2000/svg">
<g id="Group">
<path id="Vector" d="M151.261 77.0502C151.253 76.8698 151.19 76.6972 151.08 76.556C150.406 75.6618 149.497 75.0029 148.471 74.6342L148.345 73.9125C147.883 71.2533 145.688 69.1981 143.071 69.0334C142.687 69.0098 142.303 69.0334 141.926 69.0804C141.958 69.0648 141.997 69.0569 142.028 69.0334C142.428 68.7353 142.506 68.1705 142.209 67.7705L141.989 67.4802C141.237 66.4761 140.218 65.7388 139.074 65.3152L145.696 53.4547C146.55 51.9172 146.386 50.0502 145.273 48.6932C144.481 47.7205 143.306 47.1557 142.052 47.1322C140.829 47.1165 139.607 47.6421 138.784 48.5912L128.783 60.0674L128.916 57.416C129.026 55.2432 127.561 53.3527 125.437 52.9056C123.093 52.4192 120.766 53.9175 120.256 56.2629L116.016 75.5912C116 75.6775 115.993 75.7638 116 75.8422L107.113 87.3811L97.7473 99.3279C97.5984 99.5241 97.5278 99.7751 97.567 100.018C97.6062 100.261 97.7394 100.481 97.9432 100.622L117.474 114.185C117.631 114.295 117.811 114.342 117.983 114.342C118.258 114.342 118.524 114.216 118.704 113.981L124.708 106.011L137.091 97.0139C140.79 94.3233 143.274 90.409 144.129 85.9299L147.655 86.0947C147.773 86.0947 147.891 86.079 148 86.0398C150.179 85.2632 151.566 83.1844 151.449 80.8782L151.261 77.0345V77.0502Z" fill="var(--fill-0, #C76B71)"/>
<path id="Vector_2" d="M116.894 76.5719C116.839 76.5719 116.784 76.5719 116.73 76.5562C116.306 76.462 116.04 76.0463 116.134 75.6227L120.374 56.2944C120.875 54.0117 123.133 52.5527 125.421 53.0312C127.49 53.4626 128.917 55.3139 128.815 57.424L128.556 62.7346C128.533 63.166 128.172 63.4955 127.733 63.4798C127.302 63.4562 126.965 63.0876 126.989 62.6561L127.255 57.3455C127.318 56.012 126.416 54.8432 125.108 54.5687C123.658 54.2628 122.231 55.1962 121.918 56.6396L117.678 75.9678C117.599 76.3365 117.27 76.5875 116.91 76.5875L116.894 76.5719Z" fill="var(--fill-0, #6C3941)"/>
<path id="Vector_3" d="M117.983 114.232C117.827 114.232 117.67 114.185 117.537 114.091L98.0059 100.528C97.8257 100.403 97.7081 100.214 97.6768 100.003C97.6454 99.7909 97.7003 99.5712 97.8335 99.3987L107.199 87.4519L123.438 66.3665L138.862 48.6619C139.661 47.7442 140.837 47.2264 142.044 47.2421C143.259 47.2578 144.403 47.8148 145.179 48.7561C146.26 50.0817 146.417 51.9016 145.586 53.392L138.439 66.2096C138.227 66.5861 137.749 66.7194 137.373 66.5155C136.997 66.3037 136.856 65.8252 137.067 65.4487L144.215 52.6311C144.732 51.7055 144.63 50.5759 143.964 49.7523C143.486 49.164 142.781 48.8267 142.02 48.811C141.252 48.8031 140.547 49.1169 140.045 49.6895L124.645 67.3548L108.43 88.4089L99.5734 99.7046L117.803 112.365L123.43 104.89C123.477 104.827 123.532 104.772 123.595 104.725L136.088 95.6491C139.567 93.1233 141.856 89.3894 142.546 85.1456C142.553 85.0829 142.569 85.028 142.593 84.9731C142.593 84.7456 142.702 84.5338 142.89 84.3847L145.085 82.6276C145.414 82.3609 145.9 82.408 146.174 82.7296C146.449 83.0512 146.417 83.5376 146.104 83.82L145.195 84.6436L147.083 85.1143C148.471 84.4867 149.968 82.4943 149.772 81.0274L149.591 77.372C148.894 76.5405 147.883 76.0384 146.793 75.9757C145.594 75.9051 144.38 76.415 143.58 77.3406L140.32 81.1137C140.038 81.4431 139.536 81.4745 139.215 81.1921C138.886 80.9097 138.854 80.4155 139.136 80.0861L142.397 76.313C143.51 75.0265 145.171 74.3127 146.88 74.4068C148.51 74.501 150.007 75.3011 150.994 76.6111C151.088 76.7366 151.143 76.8856 151.151 77.0425L151.339 80.8862C151.645 83.1767 149.442 85.9536 147.413 86.6753C147.264 86.7302 147.107 86.738 146.958 86.6988L144.011 85.9614C143.157 90.3856 140.688 94.2607 137.028 96.9199L124.629 105.925L118.618 113.911C118.461 114.115 118.226 114.224 117.991 114.224L117.983 114.232Z" fill="var(--fill-0, #6C3941)"/>
<path id="Vector_4" d="M128.901 72.9084C128.721 72.9084 128.54 72.8456 128.391 72.7201C128.062 72.4377 128.031 71.9435 128.313 71.6141L132.106 67.2213C133.376 65.7544 135.28 64.9465 137.216 65.0484C139.074 65.1504 140.782 66.0682 141.903 67.5586C141.926 67.59 141.942 67.6213 141.966 67.6527L142.608 68.8294C142.812 69.2059 142.679 69.6844 142.295 69.8962C141.911 70.1001 141.441 69.9668 141.229 69.5824L140.618 68.4607C139.779 67.3625 138.509 66.6957 137.13 66.6173C135.68 66.5388 134.238 67.1429 133.29 68.2489L129.496 72.6417C129.34 72.8221 129.12 72.9162 128.901 72.9162V72.9084Z" fill="var(--fill-0, #6C3941)"/>
<path id="Vector_5" d="M134.755 77.0109C134.575 77.0109 134.395 76.9481 134.246 76.8226C133.917 76.5402 133.885 76.0461 134.167 75.7166L137.961 71.3238C139.23 69.8569 141.151 69.049 143.071 69.1509C145.634 69.3157 147.789 71.3317 148.243 73.936L148.416 74.9243C148.486 75.3479 148.204 75.7558 147.781 75.8343C147.35 75.9127 146.95 75.6225 146.872 75.1989L146.699 74.2105C146.37 72.3043 144.826 70.8375 143.032 70.7276C141.542 70.6413 140.1 71.2532 139.152 72.3592L135.359 76.752C135.202 76.9325 134.983 77.0266 134.763 77.0266L134.755 77.0109Z" fill="var(--fill-0, #6C3941)"/>
<path id="Vector_6" d="M78.1854 112.867L99.0406 96.1747L121.628 113.565L115.366 135.474H80.9677L78.1854 112.867Z" fill="var(--fill-0, white)"/>
<path id="Vector_7" d="M87.9428 135.474H0V86.6357L16.623 83.4117L19.4601 72.869L52.471 80.172L52.8159 88.1732L63.6784 93.876C72.9735 97.9079 81.7827 105.564 83.9615 116.146L87.935 135.474H87.9428Z" fill="var(--fill-0, white)"/>
<path id="Vector_8" d="M78.1854 112.867L99.0406 96.1747L121.628 113.565L115.366 135.474H87.7548L78.1854 112.867Z" fill="var(--fill-0, #D62E2F)"/>
<g id="Group_2">
<path id="Vector_9" d="M18.8254 88.6991L50.2374 84.8946L50.9585 53.2822L21.639 52.6155L18.8254 88.6991Z" fill="var(--fill-0, #C76B71)"/>
<path id="Vector_10" d="M33.058 13.3942C33.058 13.3942 47.1025 25.0508 50.7625 23.5917C54.4226 22.1405 63.2866 16.6888 60.9432 9.97407C58.5999 3.25938 56.4838 5.60482 53.4899 6.35787C50.4961 7.11092 49.4694 -0.184257 47.5022 0.00400521C45.535 0.192268 43.607 1.54149 40.1194 4.63997C36.6318 7.73846 33.0658 13.3942 33.0658 13.3942H33.058Z" fill="var(--fill-0, #2D2A29)"/>
<path id="Vector_11" d="M28.8414 64.1702C22.1013 62.0208 16.0822 57.2986 12.3595 50.4976C4.83564 36.7388 9.70263 19.9834 22.838 12.3901C44.3986 -0.0665652 58.4196 17.6693 59.9557 22.0307C60.3162 23.0505 60.6689 24.0389 61.0137 24.9959C61.7818 26.5255 62.4088 28.0944 62.8947 29.6868C64.3916 32.9657 66.0375 35.3189 68.3181 36.0955C71.8136 37.2957 69.917 64.4055 49.6653 62.413L28.8336 64.1702H28.8414Z" fill="var(--fill-0, #C76B71)"/>
<path id="Vector_12" d="M17.9319 7.63645C26.8273 2.76515 37.1882 3.06324 45.7388 7.49525C43.0741 8.13063 40.4721 9.10332 37.9798 10.4604C21.0903 19.7088 15.8315 42.6297 26.2395 61.6599C26.8194 62.7189 27.4386 63.7308 28.0812 64.7192C19.3269 63.0876 11.2545 57.5652 6.5599 48.9757C-1.59878 34.0559 3.48766 15.5435 17.924 7.63645H17.9319Z" fill="var(--fill-0, #2D2A29)"/>
<path id="Vector_13" d="M41.3185 23.1523C40.3389 19.0105 35.033 19.5753 38.5833 17.5122C45.2999 13.6136 47.6589 5.57325 47.6589 5.57325C31.13 1.10986 14.0132 25.8272 14.0132 25.8272L18.2689 58.8358L20.8866 66.4997L29.2255 65.778C31.9921 65.5427 34.2884 63.5267 34.8762 60.8048L37.972 46.5988C37.8466 46.6772 37.7212 46.7635 37.5879 46.8341C34.406 48.5755 30.4168 47.4067 28.6769 44.222C26.937 41.0372 28.1048 37.0445 31.2867 35.303C34.4687 33.5616 38.4579 34.7304 40.1978 37.9152C40.2056 37.9309 40.2135 37.9544 40.2213 37.9701C41.1148 37.6406 43.1603 36.6993 42.4393 35.052C41.538 32.9733 42.2904 27.294 41.3107 23.1523H41.3185Z" fill="var(--fill-0, #2D2A29)"/>
<path id="Vector_14" d="M64.0155 49.7287C64.0155 49.7287 63.9607 49.7287 63.9293 49.7287C61.0687 49.4149 59.6188 46.8185 59.5561 46.7086C59.3445 46.3321 59.4855 45.8536 59.8696 45.6418C60.2458 45.43 60.7238 45.5712 60.9354 45.9478C60.959 45.987 62.0719 47.9402 64.1017 48.1598C64.5328 48.2069 64.8463 48.5913 64.7914 49.0227C64.7444 49.4228 64.4074 49.7208 64.0155 49.7208V49.7287Z" fill="var(--fill-0, #6C3941)"/>
<path id="Vector_15" d="M37.3842 41.6887C37.0628 41.6887 36.765 41.4926 36.6475 41.171C36.6318 41.1239 35.8167 39.0295 33.8495 38.5039C33.4342 38.3941 33.1834 37.9627 33.2931 37.5469C33.4028 37.1312 33.8339 36.8802 34.2492 36.99C37.0315 37.7352 38.066 40.5199 38.1131 40.6376C38.262 41.0455 38.0503 41.4926 37.6428 41.6416C37.5566 41.673 37.4625 41.6887 37.3763 41.6887H37.3842Z" fill="var(--fill-0, #2D2A29)"/>
<path id="Vector_16" d="M51.8676 28.1337C51.4836 28.1337 51.1466 27.8513 51.0917 27.4513C50.9115 26.1021 51.7814 24.29 53.2078 23.0428C54.7439 21.6936 56.617 21.2386 58.4745 21.7485C58.8899 21.8661 59.1328 22.2976 59.0231 22.7133C58.9055 23.1291 58.4745 23.3722 58.0591 23.2624C56.2644 22.7682 54.8928 23.6546 54.2345 24.2273C53.1137 25.2078 52.5495 26.5256 52.6435 27.2395C52.6984 27.6709 52.4005 28.0631 51.9695 28.118C51.9303 28.118 51.899 28.118 51.8676 28.118V28.1337Z" fill="var(--fill-0, #2D2A29)"/>
<path id="Vector_17" d="M57.8867 31.8594C58.3804 32.5497 59.1798 32.8321 59.6814 32.4713C60.183 32.1105 60.183 31.2711 59.6971 30.573C59.2112 29.8748 58.4039 29.6003 57.9023 29.9611C57.4007 30.3141 57.4008 31.1613 57.8867 31.8594Z" fill="var(--fill-0, #2D2A29)"/>
<path id="Vector_18" d="M50.7468 61.7382L50.5195 71.8573C46.2482 70.0218 42.5411 66.8056 40.135 62.4128C39.171 60.6557 38.4892 58.8202 38.0581 56.9611C41.679 59.8948 46.1463 61.55 50.7468 61.7382Z" fill="var(--fill-0, #6C3941)"/>
</g>
<path id="Vector_19" d="M0 86.6357L16.623 83.4117L19.4601 72.869L52.471 80.172L52.8159 88.1732L63.6784 93.876C72.9735 97.9079 81.7827 105.564 83.9615 116.146L87.935 135.474H0V86.6357Z" fill="var(--fill-0, #D62E2F)"/>
<path id="Vector_20" d="M87.1747 135.639L83.2012 116.311C82.6918 113.84 81.7826 111.44 80.5051 109.165L81.8688 108.396C83.2325 110.812 84.1965 113.369 84.7373 115.997L88.7109 135.325L87.1747 135.639Z" fill="var(--fill-0, #6C3941)"/>
</g>
</svg>
