<svg preserveAspectRatio="none" width="100%" height="100%" overflow="visible" style="display: block;" viewBox="0 0 24.4582 37.793" fill="none" xmlns="http://www.w3.org/2000/svg">
<path id="Vector" d="M20.6158 32.5315C19.7048 30.8101 16.0398 31.4748 14.5446 31.6867C13.6762 31.8085 12.4625 32.0442 11.7587 31.3477C11.0177 30.6142 11.4533 29.7059 12.258 29.2583C13.6974 28.4586 15.6813 28.8717 17.2589 28.8293C18.9533 28.7843 20.6211 28.4691 21.9171 27.2986C22.9502 26.3638 23.7682 24.7008 23.585 23.3025C23.0804 19.4335 19.511 20.8768 17.3146 22.1876C16.247 22.8258 14.0506 23.7792 13.2937 22.2247C12.489 20.5722 14.3932 18.9568 15.7371 18.4431C17.4899 17.7731 19.3702 17.5692 21.1762 17.1004C22.8042 16.6767 24.6287 15.8664 24.4454 13.8935C24.3047 12.3681 22.9582 11.0202 21.5241 10.5726C18.2096 9.53983 15.8327 14.0232 12.9963 14.9766C11.9924 15.3129 10.0882 15.1408 9.44549 14.1636C8.79216 13.1652 9.96337 11.947 10.6087 11.2823C12.5209 9.31473 22.6342 4.19843 17.2668 0.912013C15.915 0.0857757 13.732 -0.255848 12.2235 0.210234C9.37644 1.08944 6.85874 4.07131 5.24933 6.45469C2.7157 10.2019 0.941622 14.7806 0.301575 19.2561C-1.11131 29.1497 2.89895 34.1045 2.89895 34.1045C4.84033 35.7278 7.49082 37.2029 10.0032 37.6346C12.9565 38.143 17.0198 37.4306 19.3702 35.4577C20.1298 34.8195 21.1841 33.5934 20.6184 32.5262L20.6158 32.5315Z" fill="url(#paint0_linear_20934_30577)"/>
<defs>
<linearGradient id="paint0_linear_20934_30577" x1="28.9032" y1="-8.46278" x2="-28.7217" y2="95.2792" gradientUnits="userSpaceOnUse">
<stop stop-color="#06A0E6"/>
<stop offset="1" stop-color="#2E76B4"/>
</linearGradient>
</defs>
</svg>
