<svg preserveAspectRatio="none" width="100%" height="100%" overflow="visible" style="display: block;" viewBox="0 0 24 24" fill="none" xmlns="http://www.w3.org/2000/svg">
<g id="Group">
<g id="Vector">
</g>
<path id="Vector_2" d="M16.7222 2C17.2548 1.99983 17.7678 2.20043 18.1584 2.56158C18.5489 2.92272 18.7881 3.41773 18.8281 3.94737L18.8333 4.10526V9.36842H20.4167C20.8103 9.36844 21.1897 9.51465 21.4811 9.77855C21.7725 10.0424 21.9548 10.4051 21.9926 10.7958L22 10.9474V18.8421C22 19.6476 21.6914 20.4226 21.1373 21.0087C20.5832 21.5947 19.8254 21.9475 19.0191 21.9947L18.8333 22H5.11111C4.5785 22.0002 4.06551 21.7996 3.67498 21.4384C3.28444 21.0773 3.04522 20.5823 3.00528 20.0526L3 19.8947V4.10526C2.99983 3.57413 3.20098 3.06256 3.56314 2.67311C3.92529 2.28365 4.42167 2.0451 4.95278 2.00526L5.11111 2H16.7222ZM19.8889 11.4737H18.8333V19.8947C19.1133 19.8947 19.3818 19.7838 19.5797 19.5864C19.7777 19.389 19.8889 19.1213 19.8889 18.8421V11.4737ZM16.7222 4.10526H5.11111V19.8947H16.7222V4.10526ZM11.4444 12.5263C11.7135 12.5266 11.9723 12.6293 12.1679 12.8135C12.3635 12.9977 12.4812 13.2494 12.497 13.5173C12.5128 13.7851 12.4254 14.0488 12.2527 14.2546C12.08 14.4603 11.8351 14.5925 11.5679 14.6242L11.4444 14.6316H8.27778C8.00874 14.6313 7.74997 14.5285 7.55433 14.3444C7.3587 14.1602 7.24097 13.9085 7.22521 13.6406C7.20944 13.3728 7.29682 13.1091 7.4695 12.9033C7.64218 12.6976 7.88712 12.5654 8.15428 12.5337L8.27778 12.5263H11.4444ZM13.5556 7.26316C13.8355 7.26316 14.104 7.37406 14.3019 7.57147C14.4999 7.76887 14.6111 8.03661 14.6111 8.31579C14.6111 8.59496 14.4999 8.86271 14.3019 9.06011C14.104 9.25752 13.8355 9.36842 13.5556 9.36842H8.27778C7.99783 9.36842 7.72934 9.25752 7.53139 9.06011C7.33343 8.86271 7.22222 8.59496 7.22222 8.31579C7.22222 8.03661 7.33343 7.76887 7.53139 7.57147C7.72934 7.37406 7.99783 7.26316 8.27778 7.26316H13.5556Z" fill="var(--fill-0, #D62E2F)"/>
</g>
</svg>
