<svg preserveAspectRatio="none" width="100%" height="100%" overflow="visible" style="display: block;" viewBox="0 0 19.5 20.253" fill="none" xmlns="http://www.w3.org/2000/svg">
<path id="Vector" fill-rule="evenodd" clip-rule="evenodd" d="M5.625 6.7485C5.32663 6.7485 5.04048 6.62997 4.8295 6.41899C4.61853 6.20802 4.5 5.92187 4.5 5.6235V4.503C3.90326 4.503 3.33097 4.74005 2.90901 5.16201C2.48705 5.58397 2.25 6.15626 2.25 6.753V8.253H17.25V6.753C17.25 6.15626 17.0129 5.58397 16.591 5.16201C16.169 4.74005 15.5967 4.503 15 4.503V5.628C15 5.92637 14.8815 6.21252 14.6705 6.4235C14.4595 6.63447 14.1734 6.753 13.875 6.753C13.5766 6.753 13.2905 6.63447 13.0795 6.4235C12.8685 6.21252 12.75 5.92637 12.75 5.628V4.503H6.75V5.6235C6.75 5.92187 6.63147 6.20802 6.4205 6.41899C6.20952 6.62997 5.92337 6.7485 5.625 6.7485ZM12.75 2.253H6.75V1.125C6.75 0.826631 6.63147 0.540483 6.4205 0.329505C6.20952 0.118526 5.92337 0 5.625 0C5.32663 0 5.04048 0.118526 4.8295 0.329505C4.61853 0.540483 4.5 0.826631 4.5 1.125V2.253C3.30653 2.253 2.16193 2.72711 1.31802 3.57102C0.474106 4.41493 0 5.55953 0 6.753V15.753C0 16.9465 0.474106 18.0911 1.31802 18.935C2.16193 19.7789 3.30653 20.253 4.5 20.253H15C16.1935 20.253 17.3381 19.7789 18.182 18.935C19.0259 18.0911 19.5 16.9465 19.5 15.753V6.753C19.5 5.55953 19.0259 4.41493 18.182 3.57102C17.3381 2.72711 16.1935 2.253 15 2.253V1.128C15 0.829631 14.8815 0.543483 14.6705 0.332505C14.4595 0.121526 14.1734 0.00299996 13.875 0.00299996C13.5766 0.00299996 13.2905 0.121526 13.0795 0.332505C12.8685 0.543483 12.75 0.829631 12.75 1.128V2.253ZM2.25 10.503V15.753C2.25 16.3497 2.48705 16.922 2.90901 17.344C3.33097 17.7659 3.90326 18.003 4.5 18.003H15C15.5967 18.003 16.169 17.7659 16.591 17.344C17.0129 16.922 17.25 16.3497 17.25 15.753V10.503H2.25Z" fill="var(--fill-0, #D62E2F)"/>
</svg>
