<svg preserveAspectRatio="none" width="100%" height="100%" overflow="visible" style="display: block;" viewBox="0 0 22.5838 21.5867" fill="none" xmlns="http://www.w3.org/2000/svg">
<g id="_&#195;&#131;&#226;&#128;&#152;&#195;&#131;&#194;&#171;&#195;&#131;&#194;&#174;&#195;&#131;&#194;&#169;_1">
<path id="Vector" d="M2.40327 13.6681C2.7348 14.6837 2.16545 16.1417 2.76343 16.9613C3.38318 17.8106 4.96176 17.7164 5.79756 18.3201C6.64184 18.9294 7.04301 20.4497 8.03461 20.7712C9.01635 21.0896 10.2371 20.0994 11.2917 20.0991C12.3091 20.0991 13.5285 21.1005 14.5487 20.7705C15.569 20.4405 15.9639 18.9169 16.7874 18.3217C17.6406 17.7048 19.213 17.7917 19.8192 16.9597C20.4314 16.1193 19.8584 14.655 20.1814 13.6679C20.5013 12.6907 21.834 11.8432 21.8338 10.7935C21.8338 9.78068 20.512 8.93413 20.1805 7.91859C19.849 6.90305 20.4183 5.44507 19.8203 4.62544C19.2006 3.77615 17.622 3.87034 16.7862 3.26667C15.9419 2.6573 15.5408 1.13707 14.5492 0.815505C13.5674 0.497137 12.3467 1.48736 11.2921 1.48759C10.2746 1.48759 9.0553 0.48619 8.03507 0.81619C7.01483 1.14619 6.61984 2.66984 5.79642 3.26507C4.9432 3.88197 3.37081 3.79508 2.76458 4.62703C2.15239 5.46742 2.7254 6.93178 2.40235 7.91882C2.08251 8.89604 0.749771 9.7435 0.75 10.7933C0.75 11.8061 2.07175 12.6526 2.40327 13.6681Z" stroke="var(--stroke-0, #005F8F)" stroke-width="1.5" stroke-linecap="round" stroke-linejoin="round"/>
<path id="Vector_2" d="M5.90479 14.9334L4.48865 10.5955L6.23196 10.0318" stroke="var(--stroke-0, #005F8F)" stroke-width="1.5" stroke-linecap="round" stroke-linejoin="round"/>
<path id="Vector_3" d="M5.19683 12.7646L6.50414 12.3418" stroke="var(--stroke-0, #005F8F)" stroke-width="1.5" stroke-linecap="round" stroke-linejoin="round"/>
<path id="Vector_4" d="M13.6405 7.6358L11.8972 8.19955L13.3133 12.5374L15.0564 11.9737" stroke="var(--stroke-0, #005F8F)" stroke-width="1.5" stroke-linecap="round" stroke-linejoin="round"/>
<path id="Vector_5" d="M12.6054 10.3684L13.9127 9.94556" stroke="var(--stroke-0, #005F8F)" stroke-width="1.5" stroke-linecap="round" stroke-linejoin="round"/>
<path id="Vector_6" d="M17.1269 6.50805L15.3836 7.07181L16.7997 11.4099L18.5428 10.8459" stroke="var(--stroke-0, #005F8F)" stroke-width="1.5" stroke-linecap="round" stroke-linejoin="round"/>
<path id="Vector_7" d="M16.0916 9.24087L17.3991 8.81805" stroke="var(--stroke-0, #005F8F)" stroke-width="1.5" stroke-linecap="round" stroke-linejoin="round"/>
<path id="Vector_8" d="M9.39118 13.8059L7.97527 9.46801L9.0647 9.11566C9.66634 8.92113 10.3127 9.24885 10.5081 9.84773C10.7035 10.4466 10.3743 11.09 9.77265 11.2845L8.68322 11.6368" stroke="var(--stroke-0, #005F8F)" stroke-width="1.5" stroke-linecap="round" stroke-linejoin="round"/>
<path id="Vector_9" d="M11.57 13.1012L9.99054 11.2142" stroke="var(--stroke-0, #005F8F)" stroke-width="1.5" stroke-linecap="round" stroke-linejoin="round"/>
</g>
</svg>
