<svg preserveAspectRatio="none" width="100%" height="100%" overflow="visible" style="display: block;" viewBox="0 0 51.0289 39.0022" fill="none" xmlns="http://www.w3.org/2000/svg">
<g id="Group">
<path id="Vector" d="M38.4346 6.98928H34.3081C33.3494 6.98928 32.567 6.21779 32.567 5.26298V1.72635C32.567 0.771539 33.3494 5.5092e-05 34.3081 5.5092e-05H38.4346C39.3934 5.5092e-05 40.1757 0.771539 40.1757 1.72635V5.26298C40.1757 6.21779 39.3934 6.98928 38.4346 6.98928Z" fill="var(--fill-0, white)"/>
<path id="Vector_2" d="M49.2878 6.98928H45.1689C44.2025 6.98928 43.4278 6.21779 43.4278 5.26298V1.72635C43.4278 0.771539 44.2102 5.5092e-05 45.1689 5.5092e-05H49.2878C50.2465 5.5092e-05 51.0289 0.771539 51.0289 1.72635V5.26298C51.0289 6.21779 50.2465 6.98928 49.2878 6.98928Z" fill="var(--fill-0, white)"/>
<path id="Vector_3" d="M5.86759 17.6603H1.7411C0.782345 17.6603 0 16.8888 0 15.934V12.3897C0 11.4349 0.774675 10.6634 1.7411 10.6634H5.86759C6.82635 10.6634 7.60869 11.4349 7.60869 12.3897V15.934C7.60869 16.8888 6.82635 17.6603 5.86759 17.6603Z" fill="var(--fill-0, white)"/>
<path id="Vector_4" d="M16.7207 17.6603H12.5942C11.6355 17.6603 10.8531 16.8888 10.8531 15.934V12.3897C10.8531 11.4349 11.6355 10.6634 12.5942 10.6634H16.7207C17.6795 10.6634 18.4618 11.4349 18.4618 12.3897V15.934C18.4618 16.8888 17.6871 17.6603 16.7207 17.6603Z" fill="var(--fill-0, white)"/>
<path id="Vector_5" d="M27.5815 17.6603H23.455C22.4963 17.6603 21.7139 16.8888 21.7139 15.934V12.3897C21.7139 11.4349 22.4886 10.6634 23.455 10.6634H27.5815C28.5403 10.6634 29.3226 11.4349 29.3226 12.3897V15.934C29.3226 16.8888 28.5403 17.6603 27.5815 17.6603Z" fill="var(--fill-0, white)"/>
<path id="Vector_6" d="M38.4346 17.6603H34.3081C33.3494 17.6603 32.567 16.8888 32.567 15.934V12.3897C32.567 11.4349 33.3417 10.6634 34.3081 10.6634H38.4346C39.3934 10.6634 40.1757 11.4349 40.1757 12.3897V15.934C40.1757 16.8888 39.3934 17.6603 38.4346 17.6603Z" fill="var(--fill-0, white)"/>
<path id="Vector_7" d="M49.2878 17.6603H45.1689C44.2025 17.6603 43.4278 16.8888 43.4278 15.934V12.3897C43.4278 11.4349 44.2102 10.6634 45.1689 10.6634H49.2878C50.2465 10.6634 51.0289 11.4349 51.0289 12.3897V15.934C51.0289 16.8888 50.2465 17.6603 49.2878 17.6603Z" fill="var(--fill-0, white)"/>
<path id="Vector_8" d="M49.2878 28.3312H45.1689C44.2025 28.3312 43.4278 27.5597 43.4278 26.6049V23.0607C43.4278 22.1059 44.2102 21.3344 45.1689 21.3344H49.2878C50.2465 21.3344 51.0289 22.1059 51.0289 23.0607V26.6049C51.0289 27.5597 50.2465 28.3312 49.2878 28.3312Z" fill="var(--fill-0, white)"/>
<path id="Vector_9" d="M5.86759 28.3312H1.7411C0.782345 28.3312 0 27.5597 0 26.6049V23.0683C0 22.1135 0.774675 21.342 1.7411 21.342H5.86759C6.82635 21.342 7.60869 22.1135 7.60869 23.0683V26.6049C7.60869 27.5597 6.82635 28.3312 5.86759 28.3312Z" fill="var(--fill-0, white)"/>
<path id="Vector_10" d="M16.7207 28.3312H12.5942C11.6355 28.3312 10.8531 27.5597 10.8531 26.6049V23.0683C10.8531 22.1135 11.6355 21.342 12.5942 21.342H16.7207C17.6795 21.342 18.4618 22.1135 18.4618 23.0683V26.6049C18.4618 27.5597 17.6871 28.3312 16.7207 28.3312Z" fill="var(--fill-0, white)"/>
<path id="Vector_11" d="M16.7207 39.0022H12.5942C11.6355 39.0022 10.8531 38.2307 10.8531 37.2759V33.7393C10.8531 32.7845 11.6355 32.013 12.5942 32.013H16.7207C17.6795 32.013 18.4618 32.7845 18.4618 33.7393V37.2759C18.4618 38.2307 17.6871 39.0022 16.7207 39.0022Z" fill="var(--fill-0, white)"/>
<path id="Vector_12" d="M27.5815 28.3312H23.455C22.4963 28.3312 21.7139 27.5597 21.7139 26.6049V23.0683C21.7139 22.1135 22.4886 21.342 23.455 21.342H27.5815C28.5403 21.342 29.3226 22.1135 29.3226 23.0683V26.6049C29.3226 27.5597 28.5403 28.3312 27.5815 28.3312Z" fill="var(--fill-0, white)"/>
<path id="Vector_13" d="M38.4346 28.3312H34.3081C33.3494 28.3312 32.567 27.5597 32.567 26.6049V23.0683C32.567 22.1135 33.3494 21.342 34.3081 21.342H38.4346C39.3934 21.342 40.1757 22.1135 40.1757 23.0683V26.6049C40.1757 27.5597 39.3934 28.3312 38.4346 28.3312Z" fill="var(--fill-0, white)"/>
<path id="Vector_14" d="M5.86759 39.0022H1.7411C0.782345 39.0022 0 38.2307 0 37.2759V33.7393C0 32.7845 0.774675 32.013 1.7411 32.013H5.86759C6.82635 32.013 7.60869 32.7921 7.60869 33.7393V37.2759C7.60869 38.2307 6.82635 39.0022 5.86759 39.0022Z" fill="var(--fill-0, white)"/>
<path id="Vector_15" d="M27.5815 39.0022H23.455C22.4963 39.0022 21.7139 38.2307 21.7139 37.2759V33.7393C21.7139 32.7845 22.4886 32.013 23.455 32.013H27.5815C28.5403 32.013 29.3226 32.7921 29.3226 33.7393V37.2759C29.3226 38.2307 28.5403 39.0022 27.5815 39.0022Z" fill="var(--fill-0, white)"/>
<path id="Vector_16" d="M38.4346 39.0022H34.3081C33.3494 39.0022 32.567 38.2307 32.567 37.2759V33.7393C32.567 32.7845 33.3494 32.013 34.3081 32.013H38.4346C39.3934 32.013 40.1757 32.7921 40.1757 33.7393V37.2759C40.1757 38.2307 39.3934 39.0022 38.4346 39.0022Z" fill="var(--fill-0, white)"/>
</g>
</svg>
