<svg preserveAspectRatio="none" width="100%" height="100%" overflow="visible" style="display: block;" viewBox="0 0 24 24" fill="none" xmlns="http://www.w3.org/2000/svg">
<g id="carbon:ibm-cloud-internet-services">
<path id="Vector" d="M20.25 16.5C19.725 16.5 19.2 16.725 18.825 17.025L14.925 14.7C14.925 14.55 15 14.4 15 14.25C15 14.1 15 13.95 14.925 13.8L18.825 11.475C19.2 11.775 19.725 12 20.25 12C21.525 12 22.5 11.025 22.5 9.75C22.5 8.475 21.525 7.5 20.25 7.5C18.975 7.5 18 8.475 18 9.75C18 9.9 18 10.05 18.075 10.2L14.175 12.525C13.8 12.225 13.275 12 12.75 12C11.475 12 10.5 12.975 10.5 14.25C10.5 15.525 11.475 16.5 12.75 16.5C13.275 16.5 13.8 16.275 14.175 15.975L18.075 18.3C18.075 18.45 18 18.6 18 18.75C18 20.025 18.975 21 20.25 21C21.525 21 22.5 20.025 22.5 18.75C22.5 17.475 21.525 16.5 20.25 16.5ZM20.25 9C20.7 9 21 9.3 21 9.75C21 10.2 20.7 10.5 20.25 10.5C19.8 10.5 19.5 10.2 19.5 9.75C19.5 9.3 19.8 9 20.25 9ZM12.75 15C12.3 15 12 14.7 12 14.25C12 13.8 12.3 13.5 12.75 13.5C13.2 13.5 13.5 13.8 13.5 14.25C13.5 14.7 13.2 15 12.75 15ZM20.25 19.5C19.8 19.5 19.5 19.2 19.5 18.75C19.5 18.3 19.8 18 20.25 18C20.7 18 21 18.3 21 18.75C21 19.2 20.7 19.5 20.25 19.5Z" fill="var(--fill-0, #D62E2F)" stroke="var(--stroke-0, #D62E2F)" stroke-width="0.5"/>
<path id="Vector_2" d="M14.25 18.75H6.375C4.125 18.75 2.25 16.875 2.25 14.625C2.25 12.6 3.675 10.95 5.625 10.575L6.6 10.425L6.825 9.45C7.425 6.525 9.9 4.5 12.75 4.5C13.125 4.5 13.5 4.5 13.875 4.575C15.075 4.8 16.125 5.4 17.025 6.225L18.075 5.175C17.025 4.125 15.675 3.375 14.175 3.15C13.725 3.075 13.2 3 12.75 3C9.225 3 6.075 5.475 5.4 9.075C2.7 9.6 0.75 11.925 0.75 14.625C0.75 17.7 3.225 20.25 6.375 20.25H14.25V18.75Z" fill="var(--fill-0, #D62E2F)" stroke="var(--stroke-0, #D62E2F)" stroke-width="0.5"/>
</g>
</svg>
