<svg preserveAspectRatio="none" width="100%" height="100%" overflow="visible" style="display: block;" viewBox="0 0 121.586 137.852" fill="none" xmlns="http://www.w3.org/2000/svg">
<g id="Group">
<path id="Vector" d="M57.3413 0.618716C30.4961 0.618716 13.2999 13.3903 10.4696 25.5355C2.50044 59.733 1.68741 67.6465 0.628943 137.226H120.957C120.067 63.0558 119.208 52.0563 107.304 22.9002C101.659 9.08217 91.4117 0.618716 57.3413 0.618716Z" fill="var(--fill-0, #A3C0CE)"/>
<path id="Vector_2" d="M121.586 137.844H0V137.218C1.0508 68.4027 1.78712 60.0462 9.87136 25.4056C12.74 13.0924 30.3504 0 57.3413 0C91.7108 0 102.157 8.67733 107.879 22.6711C119.875 52.0334 120.688 63.1933 121.586 137.226V137.852V137.844ZM1.25789 136.607H120.328C119.446 63.346 118.602 52.2091 106.721 23.1294C101.199 9.60922 91.0128 1.2298 57.3336 1.2298C30.987 1.2298 13.8368 13.8257 11.0679 25.6806C3.03734 60.0997 2.28567 68.4944 1.25022 136.607H1.25789Z" fill="var(--fill-0, #2D2A29)"/>
</g>
</svg>
