<svg preserveAspectRatio="none" width="100%" height="100%" overflow="visible" style="display: block;" viewBox="0 0 20.25 20.8125" fill="none" xmlns="http://www.w3.org/2000/svg">
<path id="Vector" d="M0 0V6.75C0 7.5 1.5 8.25 1.5 8.25C1.5 13.5 0.75 16.5 0.75 18C0.75 18.75 0.75 19.5 1.5 20.25C2.25 21 2.25 21 3 20.25C3.75 19.5 3.75 18.75 3.75 18C3.75 16.5 3 13.5 3 8.25C3 8.25 4.5 7.5 4.5 6.75V0H3.65625V4.5H2.67188V0H1.82812V4.5H0.84375V0H0ZM9.46875 0C8.71875 0 8.71875 0.75 8.71875 0.75V13.5H8.7375C8.52187 15.6469 8.25 17.1 8.25 18C8.25 18.75 8.25 19.5 9 20.25C9.75 21 9.75 21 10.5 20.25C11.25 19.5 11.25 18.75 11.25 18C11.25 16.9641 10.8938 15.2109 10.6688 12.4922C11.2453 11.0812 11.7188 9.29063 11.7188 7.5C11.7188 5.25 10.5094 1.05 9.46875 0ZM17.25 0C16.4544 0 15.6913 0.474106 15.1287 1.31802C14.5661 2.16193 14.25 3.30653 14.25 4.5C14.2508 5.49548 14.4716 6.46248 14.8779 7.24961C15.2842 8.03674 15.853 8.59957 16.4953 8.85C16.4437 13.7297 15.75 16.5563 15.75 18C15.75 18.75 15.75 19.5 16.5 20.25C17.25 21 17.25 21 18 20.25C18.75 19.5 18.75 18.75 18.75 18C18.75 16.5563 18.0563 13.7297 18.0047 8.85469C18.6475 8.60406 19.2167 8.04053 19.6231 7.25244C20.0294 6.46436 20.2499 5.49628 20.25 4.5C20.25 3.30653 19.9339 2.16193 19.3713 1.31802C18.8087 0.474106 18.0456 0 17.25 0Z" fill="var(--fill-0, #D62E2F)"/>
</svg>
