<svg preserveAspectRatio="none" width="100%" height="100%" overflow="visible" style="display: block;" viewBox="0 0 20.0002 16" fill="none" xmlns="http://www.w3.org/2000/svg">
<g id="Group">
<path id="Vector" d="M1.00011 3C1.00011 2.46957 1.21082 1.96086 1.58589 1.58579C1.96097 1.21071 2.46967 1 3.00011 1H17.0001C17.5305 1 18.0392 1.21071 18.4143 1.58579C18.7894 1.96086 19.0001 2.46957 19.0001 3V13C19.0001 13.5304 18.7894 14.0391 18.4143 14.4142C18.0392 14.7893 17.5305 15 17.0001 15H3.00011C2.46967 15 1.96097 14.7893 1.58589 14.4142C1.21082 14.0391 1.00011 13.5304 1.00011 13V3Z" stroke="var(--stroke-0, #D62E2F)" stroke-width="2" stroke-linecap="round" stroke-linejoin="round"/>
<path id="Vector_2" d="M1.00011 3L10.0001 9L19.0001 3" stroke="var(--stroke-0, #D62E2F)" stroke-width="2" stroke-linecap="round" stroke-linejoin="round"/>
</g>
</svg>
