<svg preserveAspectRatio="none" width="100%" height="100%" overflow="visible" style="display: block;" viewBox="0 0 24 24" fill="none" xmlns="http://www.w3.org/2000/svg">
<g id="fluent:movies-and-tv-16-regular">
<path id="Vector" d="M19.827 6.369L10.6305 9.357C10.5226 9.42667 10.3987 9.46747 10.2705 9.4755L7.1115 10.5H20.25C20.4489 10.5 20.6397 10.579 20.7803 10.7197C20.921 10.8603 21 11.0511 21 11.25V18.75C21 19.7446 20.6049 20.6984 19.9017 21.4017C19.1984 22.1049 18.2446 22.5 17.25 22.5H6.75C5.75544 22.5 4.80161 22.1049 4.09835 21.4017C3.39509 20.6984 3 19.7446 3 18.75V11.25C3 11.091 3.0495 10.9425 3.135 10.8195L2.8425 9.9165C2.53524 8.97067 2.61627 7.94153 3.06775 7.05543C3.51924 6.16934 4.30421 5.49887 5.25 5.1915L15.2355 1.947C16.1813 1.63974 17.2105 1.72077 18.0966 2.17225C18.9827 2.62374 19.6531 3.40871 19.9605 4.3545L20.3085 5.424C20.37 5.61317 20.3537 5.81899 20.2634 5.99621C20.1732 6.17343 20.0162 6.30753 19.827 6.369ZM14.211 6.6165L16.1385 3.2775C15.9892 3.29474 15.8419 3.3269 15.699 3.3735L13.8315 3.9795L11.8695 7.377L14.211 6.6165ZM17.6535 3.648L17.6235 3.7035L16.3425 5.9235L18.6495 5.1735L18.534 4.818C18.3792 4.34073 18.0692 3.92891 17.6535 3.648ZM11.6985 4.6725L9.3585 5.433L7.395 8.8305L9.735 8.07L11.6985 4.6725ZM4.3845 9.81L5.265 9.525L7.2255 6.126L5.7135 6.618C5.14602 6.80242 4.67504 7.2047 4.40415 7.73636C4.13326 8.26802 4.08465 8.8855 4.269 9.453L4.3845 9.81ZM4.5 12V18.75C4.5 19.3467 4.73705 19.919 5.15901 20.341C5.58097 20.7629 6.15326 21 6.75 21H17.25C17.8467 21 18.419 20.7629 18.841 20.341C19.2629 19.919 19.5 19.3467 19.5 18.75V12H4.5Z" fill="var(--fill-0, #D62E2F)"/>
</g>
</svg>
