<svg preserveAspectRatio="none" width="100%" height="100%" overflow="visible" style="display: block;" viewBox="0 0 13.6246 14.7942" fill="none" xmlns="http://www.w3.org/2000/svg">
<g id="Group">
<path id="Vector" d="M6.52866 3.39152C6.61896 5.40945 6.92968 6.99572 7.20323 8.07884C7.51396 9.32084 7.70783 9.63597 7.94685 9.88755C8.30538 10.2662 8.83655 10.5708 11.7739 11.1322C13.3727 11.4367 13.5745 11.4156 13.617 11.5718C13.8268 12.3239 9.66515 15.1469 5.19013 14.7576C2.44934 14.5193 -0.105525 13.1051 0.00336236 12.2842C0.11225 11.4579 2.85303 11.7519 3.58337 10.2292C4.09063 9.16989 3.38153 7.74252 2.57152 6.57466C3.22219 5.18701 5.88063 4.77918 6.5313 3.38888L6.52866 3.39152Z" fill="url(#paint0_linear_20934_31058)"/>
<g id="Group_2">
<path id="Vector_2" d="M1.52513 4.4561C0.837276 3.64046 0.717764 2.15747 1.40827 1.18029C2.00051 0.338159 2.99645 0.171321 3.59135 0.07069C5.31762 -0.220612 7.54848 0.385822 8.39568 1.93767C8.89762 2.85924 8.02653 4.87452 7.89108 5.23467C7.7397 5.6425 7.43163 5.79609 7.15808 6.11387C6.7783 6.55347 6.1834 7.2526 5.21404 8.42045C5.11577 8.09737 4.97235 7.69749 4.75723 7.26584C4.6749 7.099 4.34027 6.45284 3.85957 5.9285C2.89551 4.87717 2.17846 5.22938 1.52779 4.4561H1.52513Z" fill="url(#paint1_linear_20934_31058)"/>
<path id="Vector_3" d="M6.63222 7.40619C6.63222 7.40619 5.59116 9.33408 3.30983 9.3076C1.26752 9.28376 0.725731 4.74741 1.97396 3.71196C2.39092 3.3677 3.2514 3.18762 3.96846 3.34651C4.39074 3.44185 4.54211 3.60603 5.23793 3.74638C5.87798 3.87614 6.05326 3.7967 6.25244 3.94765C6.50209 4.13567 6.70394 4.61764 6.37462 5.96822C6.74112 5.55511 7.20057 5.38032 7.53786 5.51803C7.59097 5.53921 7.73705 5.6266 7.82203 5.76696C8.13541 6.27276 7.69455 6.9613 6.62958 7.40355L6.63222 7.40619Z" fill="url(#paint2_linear_20934_31058)"/>
<path id="Vector_4" d="M6.32947 3.67224C6.23652 3.75168 6.55521 4.0986 6.60567 4.615C6.70393 5.61602 5.74785 6.87391 4.71474 7.0328C4.10391 7.12549 3.91535 6.76533 2.89287 6.71237C2.26079 6.68059 1.74025 6.78652 1.41624 6.87656C1.15598 7.99409 1.51451 9.07456 2.27938 9.54594C3.10268 10.0517 4.0986 9.66511 4.51556 9.50357C4.79442 9.39499 5.68676 9.05073 6.117 8.19536C6.56583 7.30292 6.05061 6.80506 6.58974 6.19067C6.86063 5.88083 7.22978 5.73254 7.56441 5.13934C7.65471 4.9778 7.71579 4.83744 7.75032 4.74211C7.19526 4.21512 6.46226 3.56101 6.32681 3.67224H6.32947Z" fill="url(#paint3_linear_20934_31058)"/>
<path id="Vector_5" d="M2.17845 7.24466C2.17845 7.24466 2.62994 7.45122 3.38684 7.36647C3.42402 7.36118 3.46386 7.37177 3.47183 7.39031C3.49307 7.46181 3.02299 7.80872 2.56619 7.70809C2.24218 7.63659 1.97926 7.34794 2.01644 7.26849C2.03237 7.23407 2.10409 7.23671 2.1758 7.24466H2.17845Z" fill="url(#paint4_linear_20934_31058)"/>
</g>
</g>
<defs>
<linearGradient id="paint0_linear_20934_31058" x1="10.5399" y1="18.9387" x2="0.854544" y2="1.2043" gradientUnits="userSpaceOnUse">
<stop stop-color="#FF8F88"/>
<stop offset="1" stop-color="#FF574C"/>
</linearGradient>
<linearGradient id="paint1_linear_20934_31058" x1="0.946163" y1="4.20982" x2="8.54972" y2="4.20982" gradientUnits="userSpaceOnUse">
<stop stop-color="#325087"/>
<stop offset="1" stop-color="#334570"/>
</linearGradient>
<linearGradient id="paint2_linear_20934_31058" x1="4.59241" y1="4.39382" x2="4.60883" y2="23.4252" gradientUnits="userSpaceOnUse">
<stop stop-color="#FF8F88"/>
<stop offset="1" stop-color="#FF574C"/>
</linearGradient>
<linearGradient id="paint3_linear_20934_31058" x1="1.33392" y1="6.72826" x2="7.75297" y2="6.72826" gradientUnits="userSpaceOnUse">
<stop stop-color="#325087"/>
<stop offset="1" stop-color="#334570"/>
</linearGradient>
<linearGradient id="paint4_linear_20934_31058" x1="2.65582" y1="6.54066" x2="3.04" y2="8.90821" gradientUnits="userSpaceOnUse">
<stop stop-color="#FF8F88"/>
<stop offset="1" stop-color="#FF574C"/>
</linearGradient>
</defs>
</svg>
