<svg preserveAspectRatio="none" width="100%" height="100%" overflow="visible" style="display: block;" viewBox="0 0 32.4635 82.1249" fill="none" xmlns="http://www.w3.org/2000/svg">
<g id="Group">
<path id="Vector" d="M13.0813 81.3305C12.6518 78.9855 13.3574 76.2203 14.1014 73.2948C15.4897 67.8867 17.062 61.7607 10.8033 57.6512C8.78605 56.3297 8.50993 52.9611 8.28749 50.2495C8.0804 47.6371 7.90399 45.5747 6.36998 45.2233L5.97881 45.147C3.19458 44.513 2.39689 42.7637 1.46115 40.7319L1.30775 40.4034C-0.149564 37.2411 1.17736 34.1934 1.18503 34.1704L1.26173 34.0024L1.22338 33.8114C1.22338 33.7732 0.571421 29.8547 2.66535 28.8311C3.99226 28.1895 4.24538 26.7 4.49082 25.2563C4.65956 24.2633 4.8283 23.2474 5.34986 22.5981C6.2626 21.46 6.80717 21.1162 9.39198 21.7044C10.1743 21.8801 11.1177 22.1398 12.2606 22.4835C15.6507 23.4995 17.4609 25.4778 17.4839 25.4931L18.6267 26.7535L18.5654 25.0577C18.55 24.6834 18.2125 15.838 17.1157 12.248C16.1953 9.24602 15.6431 2.47068 19.8309 0.713827C20.0303 0.629804 20.1914 0.606888 20.3141 0.629803C21.1809 0.828404 21.3726 3.89908 21.48 5.54899C21.5337 6.41214 21.5874 7.19891 21.6794 7.77944C22.0322 9.84947 22.2777 12.1028 22.5154 14.2798C23.0063 18.7941 23.5125 23.4536 25.0159 26.7535C25.9746 28.8464 26.7953 37.3022 27.6697 46.2622C28.7052 56.9637 29.8864 69.0402 31.6735 75.235L13.0583 81.3305H13.0813Z" fill="var(--fill-0, white)"/>
<path id="Vector_2" d="M20.1684 1.24852C20.6439 1.82905 20.8127 4.44141 20.8817 5.57955C20.9354 6.4427 20.9814 7.25238 21.0888 7.8711C21.4416 9.92585 21.6871 12.1716 21.9172 14.3409C22.4157 18.9011 22.922 23.6064 24.4713 26.9979C25.3917 28.9992 26.2431 37.7987 27.0715 46.3156C28.0839 56.7193 29.2191 68.4214 30.9372 74.8149L13.5952 80.4903C13.4264 78.4202 14.0477 75.9836 14.7073 73.4247C16.1416 67.818 17.7754 61.4628 11.1484 57.1165C9.38431 55.9631 9.12353 52.7549 8.91644 50.1807C8.69401 47.4309 8.50225 45.0553 6.42367 44.5893L6.11687 44.5206C3.63944 43.9553 2.92613 42.4124 2.02873 40.4569L1.87533 40.1208C0.548412 37.2411 1.75261 34.4149 1.76795 34.392L1.92135 34.0482L1.85999 33.6739C1.69892 32.7726 1.56086 30.038 2.95681 29.3582C4.57519 28.5791 4.88199 26.7764 5.12743 25.3327C5.28083 24.4237 5.4419 23.4765 5.86376 22.9495C6.56173 22.0787 6.84552 21.7197 9.27693 22.2697C9.99025 22.4301 10.8876 22.6745 12.1072 23.0411C15.3133 24.0036 17.0314 25.8521 17.039 25.8674L19.3324 28.4186L19.2096 24.9966C19.1943 24.6223 18.8568 15.7006 17.737 12.0341C16.8703 9.2002 16.3027 2.84497 20.0994 1.24852C20.1301 1.23324 20.1607 1.22561 20.1761 1.21797L20.1684 1.24852ZM20.4675 0.0263636C20.2221 -0.0271059 19.9383 -0.00419066 19.6008 0.140941C14.9835 2.08112 15.5357 9.162 16.5328 12.4236C17.6219 15.9755 17.9518 25.073 17.9518 25.073C17.9518 25.073 16.0726 22.9724 12.4447 21.8877C11.2788 21.544 10.3277 21.2767 9.53771 21.0933C6.78416 20.467 5.9558 20.8565 4.87432 22.2086C3.48604 23.9501 4.27606 27.3645 2.40456 28.2735C-0.149564 29.511 0.625112 33.9107 0.625112 33.9107C0.625112 33.9107 -0.855209 37.2029 0.740162 40.6632C1.74494 42.8325 2.58865 45.0095 5.83308 45.7504C5.94813 45.7733 6.06318 45.7962 6.1859 45.8191H6.22425C8.70168 46.392 6.37765 55.4971 10.4504 58.1706C19.8309 64.3196 10.5885 75.0669 12.6211 82.1249L32.4635 75.6322C28.9966 64.6786 27.7771 31.2678 25.5988 26.5014C23.4128 21.7273 23.3975 14.0659 22.3084 7.68013C21.9479 5.56427 22.27 0.438841 20.4675 0.0340008V0.0263636Z" fill="var(--fill-0, #2D2A29)"/>
</g>
</svg>
