<svg preserveAspectRatio="none" width="100%" height="100%" overflow="visible" style="display: block;" viewBox="0 0 21 21" fill="none" xmlns="http://www.w3.org/2000/svg">
<g id="Group">
<path id="Vector" d="M19.6667 4.54167V16.9167C19.6667 18.4356 15.5628 19.6667 10.5 19.6667C5.43725 19.6667 1.33333 18.4356 1.33333 16.9167V4.54167" stroke="var(--stroke-0, #D62E2F)" stroke-width="2.66667" stroke-linecap="round" stroke-linejoin="round"/>
<path id="Vector_2" d="M19.6667 12.7917C19.6667 14.3106 15.5628 15.5417 10.5 15.5417C5.43725 15.5417 1.33333 14.3106 1.33333 12.7917M19.6667 8.66667C19.6667 10.1856 15.5628 11.4167 10.5 11.4167C5.43725 11.4167 1.33333 10.1856 1.33333 8.66667" stroke="var(--stroke-0, #D62E2F)" stroke-width="2.66667" stroke-linecap="round" stroke-linejoin="round"/>
<path id="Vector_3" d="M10.5 6.83333C15.5626 6.83333 19.6667 5.60212 19.6667 4.08333C19.6667 2.56455 15.5626 1.33333 10.5 1.33333C5.43739 1.33333 1.33333 2.56455 1.33333 4.08333C1.33333 5.60212 5.43739 6.83333 10.5 6.83333Z" stroke="var(--stroke-0, #D62E2F)" stroke-width="2.66667" stroke-linecap="round" stroke-linejoin="round"/>
</g>
</svg>
