<svg preserveAspectRatio="none" width="100%" height="100%" overflow="visible" style="display: block;" viewBox="0 0 66.935 36.0766" fill="none" xmlns="http://www.w3.org/2000/svg">
<path id="Vector" d="M53.7214 36.0766C52.1797 35.7023 42.5844 33.3726 38.2202 32.2344C37.7293 32.1046 37.2538 32.0435 36.7629 32.0435C35.5433 32.0435 34.5462 32.4407 33.6642 32.7997C32.9355 33.09 32.3066 33.342 31.6776 33.342C30.7956 33.342 29.507 32.899 27.3364 29.4846L26.3086 27.8652C22.9721 22.5794 21.1313 19.6691 18.1246 19.6691C17.1429 19.6691 16.0537 19.9976 14.7958 20.685L14.2359 20.9906L14.5657 21.5406C14.5657 21.5406 15.4248 23.0071 16.0231 25.1001L16.0767 25.2834L16.2225 25.4056C17.2349 26.2688 18.8149 28.0104 18.6999 29.0492C18.6769 29.2402 18.5925 29.5151 18.1093 29.7672C17.9252 29.8589 17.7411 29.9047 17.534 29.9047C15.6242 29.9047 12.9474 26.2917 12.0806 24.9091L11.9733 24.7258L11.7738 24.6571C10.8688 24.3133 9.75662 23.8627 9.54953 23.7252C9.22739 23.5189 7.86979 22.1364 7.07977 20.0816C6.24373 17.9123 5.10856 13.9937 5.10089 13.9555L4.21884 10.9001L3.88136 14.0625C3.76631 15.1777 3.33678 16.9345 2.75386 17.3547C2.66182 17.4234 2.55444 17.454 2.43172 17.454C1.77977 17.454 0.797997 16.461 0.728967 14.6659C0.690617 13.7111 0.491196 12.9167 0.322455 12.2063C-0.00735719 10.8543 -0.275817 9.78491 0.529538 8.0357C1.3579 6.24065 2.4087 4.72823 3.33678 3.39913C3.90436 2.58945 4.41059 1.85615 4.7941 1.17632C5.23896 0.38192 8.07688 0.366653 11.3597 0.351376C13.722 0.336099 16.652 0.320815 19.9118 0.0458291C20.2646 0.0152751 20.5867 0 20.8935 0C24.6058 0 25.6796 1.99365 27.4744 5.28584C28.8934 7.91348 30.6652 11.1828 34.4619 14.3527C37.9978 17.3012 44.1875 18.7907 52.8777 18.7907C59.1824 18.7907 64.9963 17.9734 66.9139 17.6678C67.0673 20.2344 66.7298 29.9505 53.7137 36.0537L53.7214 36.0766Z" fill="var(--fill-0, white)"/>
</svg>
