<svg preserveAspectRatio="none" width="100%" height="100%" overflow="visible" style="display: block;" viewBox="0 0 18.2799 64.4227" fill="none" xmlns="http://www.w3.org/2000/svg">
<path id="Vector" opacity="0.3" d="M4.1882 44.495C5.43111 39.5826 7.82931 38.2823 7.91429 33.6453C7.97538 30.3642 6.79353 30.0968 6.87055 26.956C6.99006 22.1945 9.78662 19.6973 11.1942 16.6995C12.6788 13.5349 13.2471 8.45305 9.24749 0C12.2592 0.463434 15.2682 0.929504 18.2799 1.39294C17.5362 11.562 15.5417 19.2444 13.7889 24.5011C11.8369 30.351 9.85302 34.1882 9.15455 41.3516C8.71634 45.8509 9.17313 47.694 8.29937 51.3803C6.8918 57.3176 3.54815 61.6421 0.863135 64.4227C0.576308 64.3618 0.289482 64.3009 0 64.24C2.90279 60.7841 3.92793 57.6989 4.1882 55.1964C4.61313 51.1234 2.93466 49.4498 4.1882 44.495Z" fill="url(#paint0_linear_20934_30643)" style="mix-blend-mode:multiply"/>
<defs>
<linearGradient id="paint0_linear_20934_30643" x1="-2.34657" y1="55.2477" x2="14.5208" y2="10.8619" gradientUnits="userSpaceOnUse">
<stop stop-color="#325087"/>
<stop offset="1" stop-color="#334570"/>
</linearGradient>
</defs>
</svg>
