<svg preserveAspectRatio="none" width="100%" height="100%" overflow="visible" style="display: block;" viewBox="0 0 82.4238 32.9573" fill="none" xmlns="http://www.w3.org/2000/svg">
<path id="Vector" opacity="0.1" d="M82.3722 29.2286L78.1123 2.4765C77.8176 1.04647 76.5534 0.0189811 75.09 0.0189811H3.90402C3.0701 0.0189811 2.08215 -0.0816543 0.982646 0.180517C0.685196 0.252019 0.209808 0.381776 0 0.540668C0 0.540668 2.33445 0.0428051 3.21883 1.78002C3.30381 1.94686 3.38083 2.14813 3.45254 2.37058C10.2115 2.60892 16.9732 2.43678 23.7322 2.82606C37.0962 3.5755 50.6089 3.5755 63.2239 8.36609C67.2581 9.89939 70.0254 15.405 68.9286 17.9473C68.1398 19.7825 65.4468 19.6368 64.5067 22.044C63.5187 24.5757 65.8877 26.2944 64.8944 28.0713C63.8534 29.933 60.6877 29.0459 55.5646 30.3753C52.7415 31.1088 50.577 32.1866 49.2252 32.9573L79.8041 32.372C80.3273 32.3614 80.8425 32.2158 81.2727 31.9218C82.1731 31.3074 82.5794 30.2429 82.3696 29.2312L82.3722 29.2286Z" fill="url(#paint0_linear_20934_30558)" style="mix-blend-mode:multiply"/>
<defs>
<linearGradient id="paint0_linear_20934_30558" x1="51.2755" y1="106.784" x2="38.869" y2="-6.93758" gradientUnits="userSpaceOnUse">
<stop stop-color="#21242D"/>
<stop offset="1" stop-color="#5C5463"/>
</linearGradient>
</defs>
</svg>
