<svg preserveAspectRatio="none" width="100%" height="100%" overflow="visible" style="display: block;" viewBox="0 0 40.8515 25.4776" fill="none" xmlns="http://www.w3.org/2000/svg">
<path id="Vector" opacity="0.3" d="M0 0C0.669261 1.35588 1.46069 2.37014 2.25743 3.13546C5.13897 5.90548 9.49979 6.92239 10.5223 11.0112C11.0322 13.0556 10.2912 14.1837 11.3349 15.3701C12.8142 17.0544 15.2496 15.8601 18.8748 16.8929C22.0909 17.8118 23.0364 19.5675 24.9831 20.6824C27.6176 22.1919 32.2175 22.5971 40.8515 17.9707C40.5089 19.3265 39.9273 20.5791 39.0323 21.6437C32.7088 29.1619 12.7186 25.2797 4.23334 13C1.3093 8.76818 0.220426 4.14708 0.00265029 0H0Z" fill="url(#paint0_linear_20934_30645)" style="mix-blend-mode:multiply"/>
<defs>
<linearGradient id="paint0_linear_20934_30645" x1="70.7891" y1="60.098" x2="7.71264" y2="2.11771" gradientUnits="userSpaceOnUse">
<stop stop-color="#325087"/>
<stop offset="1" stop-color="#334570"/>
</linearGradient>
</defs>
</svg>
