<svg preserveAspectRatio="none" width="100%" height="100%" overflow="visible" style="display: block;" viewBox="0 0 217 207" fill="none" xmlns="http://www.w3.org/2000/svg">
<g id="Layer_1" clip-path="url(#clip0_20934_31086)">
<path id="Vector" d="M144.138 78.2984C141.632 75.9 141.964 74.3503 140.306 72.9112C138.61 71.4722 137.652 71.5091 132.861 73.9444C129.507 75.6417 128.033 78.0401 128.033 78.0401C128.033 78.0401 128.512 72.3578 131.682 70.4759C134.556 68.7417 138.61 64.277 137.099 61.362C136.178 59.6278 132.124 63.8342 130.207 65.2364C125.121 68.9262 122.136 75.7893 120.846 80.8075C119.556 85.8257 123.316 99.8102 120.515 109.736L136.841 117.448C138.905 106.821 142.406 104.644 142.591 99.6257C142.701 96.7107 141.079 95.5669 142.185 95.4562C143.954 95.2717 147.75 93.1685 148.156 90.7332C148.487 88.5193 147.492 84.8294 147.271 84.2759C146.571 82.6893 146.718 80.7706 144.212 78.3722L144.138 78.2984Z" fill="var(--fill-0, white)"/>
<path id="Vector_2" d="M147.197 82.6893C146.829 81.3979 146.387 79.7743 144.47 77.9294C143.18 76.6749 142.664 75.6786 142.222 74.7931C141.817 73.9813 141.448 73.2433 140.6 72.5053C139.826 71.8412 139.126 71.3984 138.131 71.3984C137.025 71.3984 135.625 71.915 132.566 73.4647C130.834 74.3503 129.581 75.3834 128.77 76.2321C129.175 74.4979 130.023 71.915 131.866 70.808C134.63 69.1476 139.237 64.4246 137.468 61.03C137.247 60.5872 136.841 60.3658 136.325 60.3658C135.035 60.3658 133.119 61.9893 131.424 63.4283C130.834 63.9449 130.281 64.4246 129.839 64.7198C123.537 69.2952 120.957 78.0032 120.293 80.5861C119.741 82.6893 120.072 86.2685 120.441 90.4011C120.957 96.3048 121.62 103.648 119.962 109.478C119.888 109.699 119.999 109.957 120.22 110.068L136.546 117.78C136.546 117.78 136.694 117.817 136.767 117.817C136.841 117.817 136.915 117.817 136.989 117.78C137.136 117.706 137.21 117.595 137.247 117.448C138.352 111.765 139.826 108.555 141.043 105.972C142.075 103.721 142.922 101.95 142.996 99.5519C143.07 97.9652 142.627 96.8583 142.369 96.1941C142.333 96.0834 142.259 95.9358 142.222 95.8251C144.212 95.5299 148.082 93.3898 148.524 90.6963C148.893 88.3717 147.898 84.608 147.603 83.9808C147.418 83.5749 147.308 83.1321 147.16 82.6524L147.197 82.6893ZM147.603 90.5856C147.271 92.7257 143.733 94.7182 142.075 94.9027C141.964 94.9027 141.559 94.9765 141.374 95.3086C141.153 95.6775 141.301 96.0834 141.522 96.6C141.78 97.2273 142.148 98.1866 142.075 99.5519C142.001 101.766 141.227 103.389 140.195 105.603C139.016 108.149 137.541 111.286 136.436 116.673L121.067 109.404C122.615 103.5 121.989 96.231 121.473 90.3642C121.104 86.3053 120.809 82.8369 121.325 80.8444C121.952 78.3722 124.458 69.9225 130.465 65.5316C130.908 65.1995 131.497 64.7198 132.124 64.2032C133.451 63.0594 135.478 61.362 136.399 61.362C136.546 61.362 136.583 61.3989 136.657 61.5096C137.947 63.9818 134.446 68.1882 131.424 69.9594C128.107 71.9519 127.591 77.6711 127.554 77.9294C127.554 78.1508 127.664 78.3722 127.886 78.446C128.107 78.5198 128.328 78.446 128.475 78.2246C128.475 78.2246 129.913 75.9369 133.082 74.3134C135.92 72.8743 137.247 72.3578 138.168 72.3578C138.758 72.3578 139.237 72.5791 139.974 73.2064C140.674 73.7968 140.969 74.4241 141.337 75.1989C141.817 76.1583 142.369 77.2283 143.77 78.5936C145.502 80.254 145.907 81.6561 146.239 82.9107C146.387 83.4273 146.534 83.907 146.718 84.3497C146.939 84.8663 147.898 88.4455 147.566 90.5487L147.603 90.5856Z" fill="var(--fill-0, #2D2A29)"/>
<path id="Vector_3" d="M142.738 76.7856C142.48 76.8594 142.333 77.1545 142.443 77.4128C142.48 77.5973 143.696 81.5455 137.505 84.6818C135.514 85.6781 134.04 85.8626 133.414 85.1615C132.64 84.3497 132.935 82.2096 134.04 80.5492C134.372 80.0695 135.551 78.4829 136.915 78.8888C137.173 78.9626 137.468 78.815 137.541 78.5567C137.615 78.2984 137.468 78.0401 137.21 77.9294C135.809 77.4866 134.335 78.2615 133.229 79.9957C132.05 81.8037 131.46 84.4604 132.713 85.7888C133.082 86.1947 133.672 86.5267 134.593 86.5267C135.441 86.5267 136.509 86.2685 137.984 85.5305C144.949 81.9882 143.475 77.2652 143.401 77.0807C143.328 76.8225 143.033 76.6749 142.775 76.7856H142.738Z" fill="var(--fill-0, #2D2A29)"/>
<path id="Vector_4" d="M146.571 82.3572C146.313 82.431 146.165 82.7262 146.239 82.9845C146.276 83.169 147.492 87.1171 141.301 90.2535C138.868 91.508 137.136 91.7663 136.288 91.0652C135.146 90.1428 135.625 87.4492 135.92 86.4898C135.994 86.2316 135.846 85.9733 135.588 85.8626C135.33 85.7888 135.035 85.9364 134.962 86.1947C134.925 86.3422 133.782 90.2535 135.625 91.8032C136.104 92.2091 136.731 92.4305 137.468 92.4305C138.573 92.4305 139.974 91.9877 141.706 91.1021C148.672 87.5599 147.197 82.8369 147.124 82.6524C147.05 82.3941 146.755 82.2465 146.497 82.3572H146.571Z" fill="var(--fill-0, #2D2A29)"/>
<path id="Vector_5" d="M99.8023 137.373C99.8023 137.373 93.6844 111.249 74.5937 92.7995L58.5988 158.257C58.5988 158.257 73.4513 166.744 91.2889 172.057C104.446 175.968 121.768 179.732 133.156 152.39C137.394 142.243 143.88 120.252 143.88 120.252C140.011 120.104 117.456 109.441 117.456 109.441L99.8023 137.373Z" fill="var(--fill-0, #A3C0CE)"/>
<path id="Vector_6" d="M143.917 119.883C140.158 119.735 117.861 109.219 117.64 109.109C117.456 109.035 117.271 109.109 117.161 109.256L99.9497 136.45C98.6967 131.838 91.8786 108.998 74.8517 92.5412C74.7412 92.4674 74.6306 92.4305 74.4832 92.4674C74.3358 92.5043 74.2621 92.615 74.2252 92.7257L58.2303 158.183C58.2303 158.183 58.2303 158.516 58.4146 158.589C58.562 158.663 73.525 167.187 91.1783 172.389C96.08 173.828 101.203 175.083 106.289 175.083C116.35 175.083 126.117 170.212 133.524 152.501C137.689 142.465 144.212 120.547 144.286 120.326C144.286 120.215 144.286 120.104 144.249 119.994C144.175 119.883 144.065 119.846 143.954 119.846L143.917 119.883ZM132.824 152.243C121.031 180.47 102.493 174.972 91.3994 171.688C75.036 166.855 61.0312 159.18 59.0411 158.073L74.8149 93.5005C93.2053 111.618 99.3969 137.188 99.4338 137.447C99.4338 137.594 99.5812 137.705 99.7286 137.742C99.876 137.742 100.023 137.705 100.097 137.557L117.603 109.92C120.293 111.175 138.758 119.809 143.438 120.584C142.517 123.683 136.694 143.055 132.861 152.28L132.824 152.243Z" fill="var(--fill-0, #2D2A29)"/>
<path id="Vector_7" d="M143.917 119.772C140.932 119.661 125.453 112.688 117.677 108.998C117.456 108.887 117.161 108.998 117.05 109.182L99.9866 136.155C98.5492 130.952 91.6574 108.629 74.9623 92.4674L74.2621 93.1684C92.9842 111.286 99.2495 137.225 99.3232 137.483C99.3601 137.668 99.5443 137.816 99.7286 137.852C99.9129 137.852 100.134 137.779 100.208 137.631L117.64 110.068C120.625 111.47 138.389 119.735 143.254 120.658C142.222 124.126 136.509 143.092 132.713 152.206C120.994 180.322 102.493 174.862 91.4363 171.578C73.8567 166.375 59.0042 157.925 58.8568 157.851L58.3777 158.7C58.3777 158.7 73.4881 167.297 91.1783 172.537C96.1168 174.013 101.24 175.23 106.326 175.23C116.424 175.23 126.227 170.323 133.635 152.575C137.836 142.538 144.323 120.621 144.396 120.399C144.433 120.252 144.396 120.104 144.323 119.994C144.249 119.883 144.102 119.809 143.954 119.772H143.917Z" fill="var(--fill-0, #2D2A29)"/>
<path id="Vector_8" d="M118.193 103.02L109.237 123.573C119.225 137.889 138.426 136.93 138.426 136.93L139.642 130.473L141.301 137.004C143.475 137.188 145.355 136.561 145.355 136.561L141.522 111.433C128.365 108.703 118.193 103.057 118.193 103.057V103.02Z" fill="var(--fill-0, #DAE6ED)"/>
<path id="Vector_9" d="M141.595 111.027C128.623 108.334 118.488 102.725 118.377 102.688C118.266 102.651 118.193 102.614 118.082 102.688C117.972 102.688 117.898 102.799 117.861 102.873L108.905 123.425C108.905 123.425 108.905 123.683 108.905 123.794C118.893 138.111 138.242 137.299 138.426 137.299C138.61 137.299 138.721 137.151 138.758 137.004L139.679 132.207L140.932 137.114C140.932 137.114 141.116 137.373 141.264 137.41C141.559 137.41 141.853 137.41 142.148 137.41C143.954 137.41 145.391 136.93 145.465 136.93C145.649 136.893 145.76 136.709 145.723 136.524L141.89 111.396C141.89 111.396 141.743 111.138 141.595 111.101V111.027ZM141.595 136.598L140.011 130.325C140.011 130.325 139.826 130.03 139.642 130.03C139.642 130.03 139.31 130.178 139.274 130.325L138.094 136.487C138.094 136.487 137.873 136.487 137.726 136.487C134.298 136.487 118.377 135.786 109.606 123.462L118.303 103.5C120.22 104.496 129.544 109.256 141.116 111.691L144.876 136.266C144.323 136.413 143.033 136.709 141.522 136.598H141.595Z" fill="var(--fill-0, #2D2A29)"/>
<path id="Vector_10" d="M140.711 118.887C139.937 118.813 139.237 119.366 139.163 120.178C139.089 120.953 139.679 121.654 140.453 121.691C141.227 121.765 141.927 121.211 142.001 120.436C142.075 119.662 141.485 118.96 140.711 118.887Z" fill="var(--fill-0, #085383)"/>
<path id="Vector_11" d="M140.785 118.407C139.716 118.296 138.794 119.071 138.721 120.104C138.61 121.137 139.384 122.06 140.453 122.171C140.527 122.171 140.564 122.171 140.637 122.171C141.632 122.171 142.443 121.433 142.554 120.436C142.591 119.92 142.443 119.44 142.111 119.034C141.78 118.628 141.337 118.407 140.821 118.37L140.785 118.407ZM140.6 121.211H140.527C140.011 121.174 139.642 120.732 139.679 120.215C139.716 119.735 140.121 119.366 140.674 119.366C140.932 119.366 141.153 119.514 141.301 119.698C141.448 119.883 141.522 120.141 141.522 120.363C141.485 120.842 141.079 121.211 140.6 121.211Z" fill="var(--fill-0, #2D2A29)"/>
<path id="Vector_12" d="M80.3062 74.092C73.0827 73.0588 63.3531 72.8374 56.2401 73.9813C42.7882 76.1583 26.4248 83.5011 19.0907 94.792C-1.14249 126.008 1.47418 171.836 0.368546 206.631H127.886C126.927 166.744 126.854 138.074 114.176 105.825C109.127 93.0209 98.2176 76.6749 80.3062 74.092Z" fill="var(--fill-0, #D62E2F)"/>
<path id="Vector_13" d="M114.544 105.714C111.154 97.0797 101.055 76.7118 80.3799 73.723C72.5299 72.5791 62.8003 72.5422 56.2033 73.6123C42.9725 75.7524 26.2773 83.0583 18.7959 94.6075C1.43733 121.359 0.847656 158.257 0.331692 190.802C0.257982 196.336 0.147418 201.539 0 206.631C0 206.742 0 206.816 0.110564 206.889C0.184273 206.963 0.257982 207 0.368546 207H127.886C127.886 207 128.07 206.963 128.144 206.889C128.217 206.816 128.254 206.742 128.254 206.631L128.144 201.133C127.259 163.607 126.632 136.524 114.544 105.714ZM0.737092 206.262C0.884511 201.318 0.95822 196.226 1.06878 190.802C1.58475 158.368 2.17442 121.58 19.3855 95.0134C26.7565 83.6487 43.2305 76.4535 56.277 74.3503C62.8371 73.2802 72.4562 73.3171 80.2325 74.461C100.503 77.3759 110.49 97.4856 113.844 105.972C125.895 136.635 126.522 163.681 127.406 201.133L127.517 206.262H0.737092Z" fill="var(--fill-0, #2D2A29)"/>
<path id="Vector_14" d="M79.09 126.451C78.9057 126.451 78.7583 126.672 78.7952 126.857C78.832 127.226 84.3971 163.165 82.0015 206.594C82.0015 206.816 82.1489 206.963 82.3332 207C82.5175 207 82.7018 206.852 82.7018 206.668C85.0973 163.165 79.5323 127.115 79.4954 126.746C79.4954 126.562 79.2374 126.414 79.09 126.451Z" fill="var(--fill-0, #2D2A29)"/>
<path id="Vector_15" d="M56.2402 73.9813C56.2402 73.9813 74.9254 118.665 79.1637 126.783C79.1637 126.783 82.6281 82.7262 80.3431 74.092C80.3431 74.092 65.0853 71.0663 56.277 73.9813H56.2402Z" fill="var(--fill-0, #DAE6ED)"/>
<path id="Vector_16" d="M80.3799 73.723C79.7534 73.6123 64.901 70.7342 56.1296 73.6492C56.019 73.6492 55.9453 73.7599 55.9085 73.8337C55.8716 73.9075 55.8716 74.0182 55.9085 74.1289C56.0927 74.5717 74.6675 118.924 78.832 126.967C78.9057 127.078 79.0163 127.152 79.1637 127.152C79.1637 127.152 79.2006 127.152 79.2374 127.152C79.3849 127.152 79.5323 126.967 79.5323 126.82C79.6797 125.012 82.9966 82.5786 80.7116 73.9813C80.7116 73.8337 80.5642 73.723 80.4168 73.723H80.3799ZM78.8689 125.418C74.0409 115.492 58.4514 78.3353 56.7193 74.2027C64.7904 71.7305 78.0949 74.0551 80.0114 74.3872C81.9278 82.4679 79.4217 118.075 78.8689 125.418Z" fill="var(--fill-0, #2D2A29)"/>
<path id="Vector_17" d="M71.7191 16.6781C68.181 17.4529 50.6014 20.6262 49.938 37.7102C49.8643 39.9979 55.4662 50.9936 55.8716 53.7979C57.4195 64.4615 56.2033 74.0182 56.2033 74.0182C69.8764 80.8444 80.2694 74.1289 80.2694 74.1289C79.864 72.4316 80.6379 64.6829 80.6379 64.6829C88.23 67.1182 93.9793 61.1406 95.7483 56.3439C99.1389 47.0455 94.8638 33.5775 93.9424 27.6369C92.0628 15.7925 79.9377 14.8701 71.7191 16.715V16.6781Z" fill="var(--fill-0, white)"/>
<path id="Vector_18" d="M94.3478 27.5631C93.7213 23.5412 91.8417 20.4417 88.8196 18.4123C84.7288 15.6449 78.3161 14.8701 71.6454 16.346L71.2031 16.4567C57.2721 19.4455 49.9749 26.6037 49.5695 37.7102C49.5326 39.0016 51.0805 42.6177 52.7021 46.4551C53.992 49.4808 55.3556 52.6171 55.5399 53.8717C57.0509 64.3508 55.8716 73.8706 55.8716 73.9813C55.8716 74.1289 55.9453 74.2765 56.0559 74.3503C60.6627 76.6749 64.9747 77.4497 68.5864 77.4497C75.7362 77.4497 80.4168 74.4979 80.4905 74.461C80.6379 74.3872 80.6748 74.2027 80.6379 74.0551C80.3431 72.8374 80.7116 67.9669 80.9696 65.1995C88.4142 67.2658 94.2741 61.4358 96.08 56.4915C98.8441 48.9273 96.596 38.7064 95.1586 31.9171C94.7901 30.2198 94.4952 28.7808 94.2741 27.6L94.3478 27.5631ZM95.4535 56.1963C93.7213 60.9562 88.0088 66.6016 80.8222 64.3139C80.7116 64.277 80.6011 64.3139 80.5273 64.3508C80.4168 64.4246 80.3799 64.4984 80.3799 64.6091C80.3799 64.9043 79.6797 71.7674 79.9745 73.9075C78.4635 74.7931 68.8444 79.7374 56.6824 73.7599C56.8667 72.1364 57.7143 63.3177 56.3139 53.7241C56.1296 52.3588 54.8028 49.3332 53.4392 46.123C51.965 42.7283 50.3434 38.854 50.3803 37.7102C50.7857 26.9727 57.8617 20.0727 71.4242 17.1209L71.8665 17.0102C78.3529 15.5711 84.5445 16.3091 88.4511 18.9658C91.2889 20.8845 93.0211 23.7995 93.6476 27.6369C93.8319 28.8176 94.1636 30.2936 94.5321 31.9909C95.9694 38.6695 98.1807 48.7797 95.4903 56.1594L95.4535 56.1963Z" fill="var(--fill-0, #2D2A29)"/>
<path id="Vector_19" d="M80.859 0.479679C76.2891 1.51283 72.8616 3.76364 72.0876 4.31711C67.444 3.83743 63.3162 4.02193 59.815 4.79679C45.7734 7.93316 45.4417 20.1096 45.4417 21.7332C32.2846 40.3668 56.7561 60.8824 56.9772 61.0668C57.0878 61.1775 57.2721 61.2144 57.4195 61.1775C57.4195 61.1775 57.4195 61.1775 57.4564 61.1775C57.6038 61.1406 57.7512 60.9931 57.788 60.8455C58.3409 58.7422 59.1148 53.8348 58.4883 52.0636C58.3777 51.7685 58.0829 51.3626 57.4932 50.5139C55.7979 48.1524 52.6653 43.7246 53.4023 40.1455C53.6972 38.7064 54.5448 37.5995 56.0559 36.7139C58.304 35.3487 60.6996 35.3487 62.6897 36.8246C62.8371 36.9353 63.0214 36.9353 63.2057 36.8615C63.3899 36.7877 63.4637 36.6032 63.4637 36.4187C63.5374 32.2861 63.0951 28.7439 62.8371 27.1572C68.3653 29.2235 75.4045 29.3342 83.7337 27.4893C94.4952 25.0909 103.709 20.1465 103.819 20.1096C104.041 19.9989 104.114 19.7775 104.041 19.5562C98.6967 0.701069 88.4511 -1.21765 80.859 0.479679Z" fill="var(--fill-0, #2D2A29)"/>
<path id="Vector_20" d="M77.2473 32.0647C75.6994 30.8102 73.8567 30.2936 72.0876 30.6257H71.9034C68.3285 31.4743 66.154 35.4225 66.9648 39.7027C67.3702 41.769 68.439 43.6139 69.9501 44.8316C71.498 46.0861 73.3407 46.6027 75.1097 46.2706H75.294C78.9057 45.4219 81.0433 41.4738 80.2325 37.1936C79.8271 35.1273 78.7583 33.2824 77.2473 32.0647ZM75.0729 45.2743H74.9254C73.4144 45.5695 71.8665 45.1636 70.5766 44.0936C69.2498 42.9866 68.2916 41.3631 67.9599 39.5182C67.2597 35.8283 69.1024 32.2861 72.1245 31.6219H72.2719C73.7829 31.2898 75.3308 31.7326 76.6208 32.8027C77.9475 33.9096 78.9057 35.5332 79.2374 37.3781C79.9377 41.0679 78.0949 44.6102 75.0729 45.2743Z" fill="var(--fill-0, #2D2A29)"/>
<path id="Vector_21" d="M90.3307 27.1572H90.1464C86.5346 28.0059 84.3971 31.954 85.2079 36.2342C85.6133 38.3005 86.6821 40.1455 88.1931 41.3631C89.741 42.6176 91.5837 43.1342 93.3527 42.8021H93.537C97.1119 41.9535 99.2863 38.0054 98.4755 33.7251C97.6279 29.408 93.9793 26.4562 90.3307 27.1572ZM93.3159 41.8059H93.1685C91.6574 42.1011 90.1095 41.6952 88.8196 40.6251C87.4929 39.5182 86.5346 37.8947 86.2029 36.0497C85.5027 32.3599 87.3823 28.8176 90.3675 28.1535H90.5149C93.6476 27.5262 96.7802 30.1091 97.5173 33.9096C98.2176 37.5995 96.3748 41.1417 93.3527 41.8059H93.3159Z" fill="var(--fill-0, #2D2A29)"/>
<path id="Vector_22" d="M78.9057 35.0904C78.7215 35.3118 78.7583 35.607 78.9794 35.7914C79.2006 35.9759 79.4954 35.939 79.6797 35.7176C82.2227 32.5813 85.2079 34.5369 85.3184 34.6107C85.429 34.6845 85.5764 34.7214 85.7238 34.6845C85.8344 34.6845 85.945 34.6107 86.0187 34.5C86.1661 34.2786 86.1292 33.9834 85.9081 33.8358C85.9081 33.8358 82.0384 31.2529 78.9426 35.1273L78.9057 35.0904Z" fill="var(--fill-0, #2D2A29)"/>
<path id="Vector_23" d="M90.2938 51.2519C90.2938 51.2519 88.0088 54.4251 80.3062 53.0968C80.0482 53.0599 79.7902 53.2444 79.7534 53.5027C79.7165 53.761 79.9008 54.0193 80.1588 54.0561C83.1072 54.5358 85.3184 54.4251 86.9769 54.0561C89.999 53.392 91.0678 51.8791 91.1415 51.7684C91.2889 51.5471 91.252 51.2519 91.0309 51.1043C90.8098 50.9567 90.5149 50.9936 90.3307 51.215L90.2938 51.2519Z" fill="var(--fill-0, #2D2A29)"/>
<path id="Vector_24" d="M75.552 34.3893C75.552 34.3893 71.7928 34.0572 69.9501 36.6032C69.8026 36.8246 69.8395 37.1198 70.0606 37.2674C70.1712 37.3412 70.3186 37.3781 70.466 37.3412C70.5766 37.3412 70.6872 37.2674 70.7609 37.1567C72.2719 35.0535 75.4414 35.3487 75.4783 35.3487C75.7362 35.3487 75.9942 35.1642 76.0311 34.9059C76.0311 34.6476 75.8468 34.3893 75.5888 34.3893H75.552Z" fill="var(--fill-0, #2D2A29)"/>
<path id="Vector_25" d="M87.1612 31.8064C86.94 31.954 86.8663 32.2492 86.9769 32.4706C87.0875 32.692 87.4192 32.7658 87.6403 32.6182C87.6403 32.6182 90.4044 30.9947 92.6894 32.2492C92.7999 32.323 92.9105 32.323 93.0211 32.2861C93.1685 32.2861 93.279 32.1754 93.3528 32.0647C93.5002 31.8433 93.3896 31.5481 93.1685 31.4005C90.3675 29.8508 87.2717 31.6957 87.1243 31.7695L87.1612 31.8064Z" fill="var(--fill-0, #2D2A29)"/>
<path id="Vector_26" d="M89.8147 34.8321C89.225 34.9797 88.8933 35.6808 89.0776 36.4556C89.2619 37.2305 89.8516 37.7471 90.4412 37.5995C91.0309 37.4519 91.3626 36.7508 91.1783 35.9759C90.9941 35.2011 90.4044 34.6845 89.8147 34.8321Z" fill="var(--fill-0, #2D2A29)"/>
<path id="Vector_27" d="M89.7041 34.3524C88.8565 34.5369 88.3405 35.5332 88.5616 36.5663C88.7828 37.5995 89.6673 38.2636 90.5518 38.0791C91.3994 37.8947 91.9154 36.8984 91.6574 35.8652C91.3994 34.8321 90.5518 34.1679 89.7041 34.3524ZM90.3307 37.1198C90.0358 37.1936 89.6673 36.8615 89.5567 36.3449C89.4461 35.8283 89.6673 35.3856 89.9253 35.3118C90.2201 35.238 90.5886 35.5701 90.6992 36.0866C90.8098 36.6032 90.5886 37.046 90.3307 37.1198Z" fill="var(--fill-0, #2D2A29)"/>
<path id="Vector_28" d="M73.0459 38.5957C72.4562 38.7433 72.1245 39.4444 72.3088 40.2193C72.493 40.9941 73.0827 41.5107 73.6724 41.3631C74.2621 41.2155 74.5938 40.5144 74.4095 39.7396C74.2252 38.9647 73.6355 38.4481 73.0459 38.5957Z" fill="var(--fill-0, #2D2A29)"/>
<path id="Vector_29" d="M72.9353 38.116C72.0876 38.3005 71.5717 39.2968 71.7928 40.3299C72.0139 41.3631 72.8984 42.0273 73.7829 41.8428C74.6306 41.6583 75.1466 40.662 74.9254 39.6289C74.7043 38.5957 73.8198 37.9316 72.9353 38.116ZM73.5618 40.8834C73.3038 40.9572 72.8984 40.6251 72.7879 40.1086C72.6773 39.592 72.8984 39.1492 73.1564 39.0754C73.4144 39.0016 73.8198 39.3337 73.9304 39.8503C74.0409 40.3668 73.8198 40.8096 73.5618 40.8834Z" fill="var(--fill-0, #2D2A29)"/>
<path id="Vector_30" d="M85.3553 41.9535C84.3234 41.9535 83.3652 42.6914 82.4438 44.1305C82.2964 44.3519 82.3701 44.6471 82.5912 44.7947C82.7018 44.8685 82.8492 44.9053 82.9597 44.8684C83.0703 44.8684 83.1809 44.7578 83.2546 44.6471C83.9917 43.5032 84.6919 42.9128 85.3184 42.9128C86.0187 42.9128 86.4978 43.6877 86.4978 43.6877C86.6452 43.9091 86.94 43.9829 87.1612 43.8353C87.3823 43.6877 87.456 43.3925 87.3454 43.1711C87.3454 43.1342 86.5715 41.9166 85.3184 41.9166L85.3553 41.9535Z" fill="var(--fill-0, #2D2A29)"/>
<path id="Vector_31" d="M64.9378 54.5358C64.8641 54.2775 64.6061 54.093 64.3482 54.1668C64.0902 54.2406 63.9059 54.4989 63.9796 54.7572C65.7486 62.6166 80.2325 65.0888 80.8222 65.1995C80.8959 65.1995 81.0065 64.3508 80.7116 64.3139C80.5642 64.3139 66.5594 61.7679 64.9378 54.5727V54.5358Z" fill="var(--fill-0, #2D2A29)"/>
<path id="Vector_32" d="M78.1686 183.902C76.7313 183.902 75.552 185.045 75.552 186.485C75.552 187.924 76.7313 189.067 78.1686 189.067C79.606 189.067 80.7853 187.924 80.7853 186.485C80.7853 185.045 79.606 183.902 78.1686 183.902Z" fill="var(--fill-0, #6243CC)"/>
<path id="Vector_33" d="M78.1686 184.566C77.0999 184.566 76.2153 185.451 76.2153 186.521C76.2153 187.591 77.0999 188.44 78.1686 188.44C79.2374 188.44 80.1219 187.555 80.1219 186.521C80.1219 185.488 79.2374 184.566 78.1686 184.566Z" fill="var(--fill-0, #2D2A29)"/>
<path id="Vector_34" d="M149.187 109.994C147.75 109.072 145.871 109.293 144.728 110.511L98.9915 158.073C97.4805 159.659 97.7753 162.205 99.618 163.423L138.352 188.329C139.753 189.252 141.669 189.03 142.812 187.813L190.538 141.542C192.049 139.956 191.755 137.41 189.912 136.192L149.187 109.994Z" fill="var(--fill-0, #2D2A29)"/>
<path id="Vector_35" d="M149.445 109.588C147.861 108.592 145.649 108.813 144.36 110.179L98.623 157.741C97.8122 158.589 97.4068 159.77 97.5542 160.951C97.7016 162.132 98.365 163.165 99.36 163.829L138.094 188.735C138.942 189.289 140.011 189.51 141.006 189.326C141.853 189.178 142.591 188.772 143.18 188.182L190.907 141.911C191.718 141.063 192.123 139.882 191.976 138.701C191.828 137.52 191.165 136.45 190.17 135.823L149.445 109.625V109.588ZM190.17 141.173L142.443 187.444C142.001 187.924 141.448 188.219 140.785 188.329C140.011 188.477 139.237 188.329 138.61 187.887L99.876 162.98C99.1021 162.501 98.623 161.689 98.5124 160.803C98.4018 159.918 98.6967 159.032 99.3232 158.368L145.06 110.806C145.502 110.363 146.092 110.031 146.718 109.92C147.492 109.773 148.266 109.92 148.93 110.363L189.654 136.561C190.428 137.041 190.907 137.852 191.017 138.738C191.128 139.624 190.833 140.509 190.207 141.136L190.17 141.173Z" fill="var(--fill-0, #2D2A29)"/>
<path id="Vector_36" d="M150.183 112.725C148.745 111.802 146.866 112.024 145.723 113.241L99.9866 160.803C98.4755 162.39 98.7704 164.936 100.613 166.153L139.347 191.06C140.785 191.982 142.664 191.761 143.807 190.543L189.543 143.018C191.054 141.432 190.759 138.886 188.917 137.668L150.183 112.761V112.725Z" fill="var(--fill-0, #A3C0CE)"/>
<path id="Vector_37" d="M150.367 112.429C148.819 111.433 146.718 111.655 145.428 113.02L99.6917 160.582C98.8809 161.394 98.5124 162.537 98.6598 163.681C98.8072 164.825 99.4338 165.858 100.392 166.486L139.126 191.392C139.79 191.798 140.527 192.019 141.227 192.019C142.259 192.019 143.291 191.613 144.028 190.839L189.764 143.313C190.575 142.465 190.944 141.358 190.833 140.214C190.686 139.07 190.059 138.037 189.064 137.41L150.33 112.503L150.367 112.429ZM189.248 142.76L143.512 190.285C142.48 191.392 140.785 191.576 139.495 190.765L100.761 165.858C99.9866 165.342 99.4706 164.53 99.36 163.607C99.2495 162.685 99.5443 161.763 100.208 161.098L145.944 113.536C146.571 112.909 147.382 112.577 148.229 112.577C148.819 112.577 149.409 112.725 149.961 113.094L188.696 138C189.47 138.517 189.986 139.328 190.096 140.251C190.207 141.173 189.912 142.096 189.248 142.76Z" fill="var(--fill-0, #2D2A29)"/>
<path id="Vector_38" d="M150.441 112.319C148.856 111.286 146.645 111.544 145.355 112.909L99.618 160.471C98.8072 161.32 98.4018 162.501 98.5493 163.681C98.6967 164.862 99.3601 165.895 100.355 166.559L139.089 191.466C139.937 192.019 140.969 192.241 142.001 192.056C142.849 191.909 143.586 191.503 144.175 190.875L189.912 143.313C190.723 142.465 191.128 141.284 190.981 140.103C190.833 138.922 190.207 137.889 189.175 137.225L150.441 112.319ZM189.175 142.649L143.438 190.211C142.996 190.654 142.443 190.986 141.78 191.097C141.006 191.244 140.232 191.097 139.568 190.654L100.834 165.748C100.097 165.268 99.5812 164.456 99.4706 163.571C99.3601 162.685 99.6549 161.799 100.281 161.135L146.018 113.573C146.46 113.13 147.05 112.798 147.676 112.688C148.45 112.54 149.224 112.688 149.888 113.13L188.622 138.037C189.396 138.517 189.875 139.328 189.986 140.214C190.096 141.099 189.801 141.985 189.175 142.649Z" fill="var(--fill-0, #2D2A29)"/>
<path id="Vector_39" d="M176.202 135.159C175.133 134.458 173.696 134.642 172.811 135.565L167.136 141.468C165.993 142.686 166.214 144.642 167.615 145.527L174.47 149.955C175.539 150.656 176.976 150.472 177.86 149.549L183.536 143.645C184.678 142.428 184.457 140.472 183.057 139.587L176.202 135.159Z" fill="var(--fill-0, #2D2A29)"/>
<path id="Vector_40" d="M176.46 134.716C175.207 133.904 173.438 134.126 172.443 135.196L166.767 141.099C166.104 141.764 165.809 142.723 165.919 143.645C166.03 144.568 166.546 145.417 167.357 145.933L174.212 150.361C174.912 150.804 175.723 150.951 176.534 150.804C177.197 150.693 177.787 150.361 178.266 149.881L183.941 143.978C184.605 143.313 184.9 142.354 184.789 141.432C184.678 140.509 184.163 139.66 183.352 139.144L176.497 134.716H176.46ZM183.167 143.276L177.492 149.18C177.16 149.512 176.755 149.734 176.313 149.807C175.76 149.918 175.207 149.807 174.728 149.475L167.873 145.048C167.32 144.679 166.988 144.125 166.878 143.461C166.804 142.834 167.025 142.17 167.467 141.727L173.143 135.823C173.475 135.491 173.88 135.27 174.322 135.196C174.875 135.085 175.428 135.196 175.907 135.528L182.762 139.956C183.315 140.325 183.683 140.878 183.757 141.505C183.831 142.17 183.61 142.797 183.167 143.24V143.276Z" fill="var(--fill-0, #2D2A29)"/>
<path id="Vector_41" d="M174.765 136.487C173.512 136.709 172.664 137.926 172.922 139.144C173.143 140.398 174.359 141.21 175.612 140.989C176.865 140.767 177.713 139.55 177.455 138.332C177.234 137.078 176.018 136.266 174.765 136.487Z" fill="var(--fill-0, #005F8F)"/>
<path id="Vector_42" d="M170.858 141.063C169.605 141.284 168.757 142.502 169.015 143.719C169.236 144.974 170.453 145.786 171.706 145.564C172.959 145.343 173.806 144.125 173.548 142.907C173.29 141.69 172.111 140.841 170.858 141.063Z" fill="var(--fill-0, #005F8F)"/>
<path id="Vector_43" d="M177.013 142.206C175.76 142.428 174.912 143.645 175.17 144.863C175.391 146.118 176.607 146.929 177.86 146.708C179.113 146.487 179.961 145.269 179.703 144.051C179.482 142.797 178.266 141.985 177.013 142.206Z" fill="var(--fill-0, #005F8F)"/>
<path id="Vector_44" d="M135.625 152.649C132.971 152.058 103.783 154.125 103.783 154.125C103.783 154.125 101.719 151.025 105.294 146.929C108.869 142.834 107.615 137.631 105.404 139.66C103.156 141.69 96.7802 147.261 94.6427 150.435C92.3945 153.793 90.8466 156.154 87.3823 159.807C84.6551 162.648 58.1934 159.733 58.1934 159.733L55.0977 185.341C55.6136 184.713 98.6967 178.404 106.068 179.584C110.49 180.286 113.512 178.219 118.23 175.895C122.947 173.57 121.51 170.692 121.51 170.692C125.011 168.995 124.569 165.157 124.569 165.157C129.028 159.991 125.932 159.18 125.932 159.18C129.36 158.848 134.188 157.63 135.957 156.597C138.684 155.01 137.283 153.018 135.662 152.686L135.625 152.649Z" fill="var(--fill-0, white)"/>
<path id="Vector_45" d="M135.699 152.28C133.082 151.726 106.915 153.497 103.967 153.719C103.635 153.018 102.64 150.472 105.552 147.114C108.242 144.014 108.316 140.251 107.173 139.144C106.62 138.59 105.846 138.664 105.109 139.328C104.815 139.587 104.483 139.919 104.077 140.288C101.313 142.76 96.1906 147.372 94.311 150.213L93.9424 150.767C91.8417 153.866 90.3307 156.154 87.0875 159.549C84.9499 161.763 65.5275 160.176 58.1934 159.364C58.0092 159.364 57.8249 159.475 57.788 159.696L54.6923 185.304C54.6923 185.304 54.766 185.636 54.9134 185.673C54.9502 185.673 55.0239 185.673 55.0608 185.673C55.1345 185.673 55.2082 185.673 55.2819 185.599C57.0141 184.861 98.8809 178.736 105.994 179.88C109.864 180.507 112.738 179.031 116.387 177.149C117.013 176.817 117.677 176.485 118.377 176.153C120.257 175.23 121.473 174.087 121.915 172.758C122.21 171.91 122.099 171.209 121.989 170.803C124.974 169.179 125.011 165.969 124.937 165.194C126.854 162.943 127.628 161.209 127.259 159.955C127.185 159.696 127.075 159.512 126.927 159.327C130.318 158.884 134.482 157.778 136.141 156.818C137.836 155.859 137.947 154.752 137.836 154.198C137.689 153.276 136.841 152.464 135.736 152.206L135.699 152.28ZM135.699 156.228C134.003 157.224 129.212 158.442 125.822 158.737C125.637 158.737 125.527 158.884 125.49 159.069C125.49 159.253 125.601 159.401 125.748 159.475C125.748 159.475 126.301 159.622 126.485 160.213C126.632 160.766 126.596 162.132 124.237 164.862C124.163 164.936 124.126 165.047 124.163 165.157C124.163 165.305 124.569 168.773 121.325 170.323C121.252 170.36 121.178 170.434 121.141 170.544C121.141 170.655 121.141 170.729 121.141 170.84C121.178 170.95 122.32 173.422 118.008 175.526C117.308 175.858 116.645 176.227 116.018 176.522C112.37 178.404 109.716 179.769 106.068 179.179C101.792 178.478 86.5715 180.286 77.9107 181.393C72.5667 182.094 58.7831 183.975 55.4662 184.824L58.4514 160.102C62.4686 160.545 84.913 162.796 87.5666 160.028C90.8835 156.56 92.3945 154.309 94.4952 151.136L94.8638 150.582C96.7065 147.852 101.792 143.276 104.52 140.804C104.925 140.435 105.294 140.103 105.588 139.845C106.031 139.439 106.362 139.402 106.62 139.624C107.431 140.398 107.431 143.756 104.962 146.597C101.276 150.878 103.34 154.125 103.451 154.272C103.525 154.383 103.672 154.457 103.783 154.457C113.844 153.756 133.487 152.538 135.514 152.981C136.288 153.165 136.952 153.719 137.062 154.346C137.173 154.973 136.694 155.637 135.699 156.191V156.228Z" fill="var(--fill-0, #2D2A29)"/>
<path id="Vector_46" d="M124.642 164.382C124.642 164.382 121.473 166.412 113.586 164.198C113.328 164.124 113.033 164.272 112.959 164.53C112.886 164.788 113.033 165.047 113.291 165.12C115.945 165.858 118.119 166.117 119.851 166.117C123.537 166.117 125.011 164.825 125.121 164.751C125.343 164.604 125.564 164.382 125.379 164.161C125.232 163.94 124.827 164.161 124.605 164.345L124.642 164.382Z" fill="var(--fill-0, #2D2A29)"/>
<path id="Vector_47" d="M126.043 158.737C126.043 158.737 123.131 159.18 114.47 158.921C114.212 158.921 113.991 159.143 113.954 159.401C113.954 159.659 114.176 159.881 114.434 159.918C116.018 159.955 117.419 159.991 118.635 159.991C124.163 159.991 126.08 159.622 126.153 159.622C126.411 159.586 126.596 159.327 126.559 159.032C126.522 158.774 126.301 158.7 126.043 158.737Z" fill="var(--fill-0, #2D2A29)"/>
<path id="Vector_48" d="M122.173 169.77C122.173 169.77 118.34 171.651 110.932 171.282C110.638 171.282 110.416 171.467 110.416 171.762C110.416 172.02 110.601 172.279 110.896 172.279C111.522 172.279 112.112 172.315 112.701 172.315C119.225 172.315 122.394 170.471 122.542 170.36C122.8 170.212 123.058 170.102 122.91 169.843C122.8 169.622 122.431 169.622 122.21 169.733L122.173 169.77Z" fill="var(--fill-0, #2D2A29)"/>
<path id="Vector_49" d="M46.6211 103.316L14.4102 123.093C14.4102 123.093 10.2087 139.882 10.6141 157.999C10.909 171.614 13.4888 187.149 43.3779 187.333C54.4343 187.407 76.8787 182.684 76.8787 182.684L77.9107 158.479L45.1469 152.796C45.1469 152.796 50.9331 129.882 46.6579 103.352L46.6211 103.316Z" fill="var(--fill-0, #D62E2F)"/>
<path id="Vector_50" d="M77.9475 158.073L45.5523 152.464C46.2894 149.328 50.8962 127.705 46.9528 103.242C46.9528 103.057 46.7317 102.91 46.5474 102.947C46.3631 102.947 46.2157 103.168 46.2525 103.352C50.454 129.513 44.8152 152.427 44.7415 152.649C44.7415 152.759 44.7415 152.87 44.7784 152.944C44.8521 153.018 44.9258 153.091 45.0363 153.091L77.4684 158.737L76.4365 182.315C73.8198 182.832 53.8077 186.89 43.4885 186.89H43.3042C13.9679 186.743 11.2038 171.873 10.909 157.925C10.5404 140.066 14.6681 123.314 14.705 123.13C14.7418 122.945 14.6313 122.724 14.447 122.687C14.2259 122.65 14.0416 122.761 14.0048 122.945C13.9679 123.13 9.80333 139.993 10.1719 157.925C10.3193 164.936 11.0564 172.168 15.5526 177.85C20.6754 184.344 29.7417 187.518 43.3042 187.591H43.5253C54.5817 187.591 76.6576 182.979 76.8787 182.942C77.0262 182.942 77.1736 182.758 77.1736 182.61L78.2055 158.405C78.2055 158.22 78.0949 158.073 77.9107 158.036L77.9475 158.073Z" fill="var(--fill-0, #2D2A29)"/>
<path id="Vector_51" d="M86.203 156.929L67.2597 151.025C59.9625 163.386 65.6012 186.89 65.6012 186.89L69.8764 186.817L66.5963 189.547C66.9648 192.019 68.4759 195.709 68.4759 195.709L87.1612 183.164C84.7288 170.065 86.1292 156.929 86.1292 156.929H86.203Z" fill="var(--fill-0, #DAE6ED)"/>
<path id="Vector_52" d="M86.5715 156.966C86.5715 156.966 86.4978 156.634 86.3135 156.56L67.3702 150.656C67.3702 150.656 67.0386 150.656 66.928 150.804C59.6308 163.128 65.0116 186.005 65.2327 186.964C65.2695 187.112 65.4169 187.259 65.6012 187.259H68.8444L66.3752 189.252C66.2646 189.326 66.2277 189.473 66.2277 189.584C66.5963 192.056 68.0705 195.672 68.1442 195.82C68.181 195.93 68.2916 196.004 68.3653 196.041C68.3653 196.041 68.439 196.041 68.4759 196.041C68.5496 196.041 68.6233 196.041 68.697 195.967L87.3823 183.422C87.3823 183.422 87.5666 183.201 87.5297 183.053C85.1342 170.139 86.4978 157.04 86.4978 156.929L86.5715 156.966ZM86.8295 182.979L68.697 195.119C68.2916 194.122 67.3334 191.576 67.0386 189.695L70.1712 187.112C70.1712 187.112 70.3186 186.853 70.2818 186.706C70.2449 186.558 70.0975 186.448 69.9501 186.448L65.9698 186.521C65.3801 183.828 60.9944 162.87 67.4808 151.468L85.8344 157.187C85.6501 159.217 84.6919 171.135 86.8663 182.979H86.8295Z" fill="var(--fill-0, #2D2A29)"/>
<path id="Vector_53" d="M75.6257 181.356C75.1097 181.503 74.6675 181.872 74.4095 182.352C74.1515 182.832 74.1146 183.385 74.2621 183.938C74.52 184.824 75.3308 185.414 76.2522 185.414C76.4733 185.414 76.6576 185.414 76.8419 185.341C77.9475 185.009 78.574 183.865 78.2424 182.758C77.9107 181.688 76.7313 181.06 75.6625 181.393L75.6257 181.356Z" fill="var(--fill-0, #2D2A29)"/>
<path id="Vector_54" d="M59.4834 37.4888C57.788 37.2305 56.3507 37.9316 55.4662 39.4075C53.8077 42.2856 55.8716 45.0898 57.1984 46.1968C57.3089 46.3075 57.4932 46.3444 57.6406 46.3075C57.7512 46.3075 57.8249 46.2337 57.8986 46.1599C58.0829 45.9385 58.046 45.6433 57.8249 45.4588C57.8249 45.4588 54.6554 42.7652 56.3139 39.8872C57.1984 38.3743 58.562 38.3374 59.2991 38.4481C60.8101 38.6695 62.1737 39.8872 62.4686 41.2524C62.5054 41.5107 62.7634 41.6952 63.0583 41.6214C63.3162 41.5476 63.5005 41.3262 63.4268 41.031C63.0582 39.2599 61.3998 37.7471 59.4465 37.4519L59.4834 37.4888Z" fill="var(--fill-0, #2D2A29)"/>
<path id="Vector_55" d="M59.815 37.784C58.8568 38.4112 58.304 39.1492 58.1934 40.0348C58.0092 41.4369 59.078 42.5808 59.1148 42.6177C59.2254 42.7652 59.4096 42.8021 59.5939 42.7652C59.6676 42.7652 59.7413 42.6914 59.815 42.6545C60.0362 42.4701 60.0362 42.1749 59.815 41.9535C59.815 41.9535 59.0411 41.1048 59.1517 40.1455C59.2254 39.5551 59.6308 39.0385 60.331 38.5957C60.5521 38.4481 60.6258 38.1529 60.4784 37.9316C60.331 37.7102 60.0362 37.6364 59.7782 37.784H59.815Z" fill="var(--fill-0, #2D2A29)"/>
<g id="Group">
<path id="Vector_56" d="M144.138 88.3348C145.502 90.8439 147.64 94.8658 146.645 97.4487C145.649 100.032 136.104 95.1979 136.104 95.1979L124.79 50.1818L141.006 52.5064C141.006 52.5064 142.738 85.8626 144.102 88.3717L144.138 88.3348Z" fill="var(--fill-0, #2D2A29)"/>
<path id="Vector_57" d="M137.32 90.807L129.323 56.7128L129.839 56.6021L137.836 90.6963L137.32 90.807Z" fill="var(--fill-0, #005F8F)"/>
<path id="Vector_58" d="M118.008 55.0524C115.613 54.4989 113.549 51.2888 112.996 47.2299C112.701 44.9791 112.886 42.7652 113.586 41.0679C114.286 39.2968 115.539 38.5957 116.792 38.0053L171.558 12.2134L178.671 64.646L118.045 55.0893L118.008 55.0524Z" fill="var(--fill-0, #005F8F)"/>
<path id="Vector_59" d="M112.554 47.3037C112.222 44.9791 112.443 42.6914 113.144 40.9203C113.918 39.0016 115.244 38.2636 116.571 37.6364L171.337 11.8444C171.337 11.8444 171.595 11.8075 171.743 11.8444C171.853 11.9182 171.964 12.0289 171.964 12.1765L179.077 64.6091C179.077 64.6091 179.077 64.9043 178.966 64.9781C178.855 65.0888 178.745 65.1257 178.597 65.0888L117.972 55.5321C117.493 55.4214 117.05 55.2369 116.608 54.9417C114.655 53.6872 113.07 50.8091 112.628 47.3037H112.554ZM178.118 64.1294L171.153 12.8775L116.94 38.4112C115.687 39.0016 114.618 39.6289 113.954 41.2524C113.291 42.9128 113.107 45.016 113.402 47.1931C113.918 51.0674 115.871 54.13 118.082 54.6465L178.118 64.1294Z" fill="var(--fill-0, #2D2A29)"/>
<path id="Vector_60" d="M116.829 38.3005L123.795 35.0166C122.284 38.8909 120.367 47.0086 125.895 55.9011L119.04 54.7941C116.497 55.1262 113.881 51.7316 113.291 47.1562C112.665 42.6176 114.249 38.6326 116.792 38.2636L116.829 38.3005Z" fill="var(--fill-0, #2D2A29)"/>
<path id="Vector_61" d="M175.244 63.7235C167.652 62.0262 161.202 52.4326 159.58 40.4775C158.659 33.6882 159.433 27.0465 161.718 21.807C164.077 16.5305 167.689 13.2834 171.964 12.7299C173.18 12.5824 174.433 12.6193 175.649 12.8775C183.241 14.5749 189.691 24.1685 191.312 36.1235C192.234 42.9497 191.46 49.5545 189.175 54.7941C186.853 60.0706 183.204 63.3176 178.929 63.8711C177.713 64.0187 176.46 63.9818 175.244 63.6866V63.7235Z" fill="var(--fill-0, #005F8F)"/>
<path id="Vector_62" d="M157.406 40.7727C156.411 33.5775 157.259 26.5299 159.728 20.9214C162.381 14.9439 166.62 11.254 171.669 10.5529C173.143 10.3316 174.654 10.4053 176.128 10.7374C184.568 12.6562 191.718 22.9508 193.487 35.8283C194.482 43.0604 193.634 50.108 191.165 55.6797C188.511 61.6941 184.273 65.3471 179.224 66.0481C177.75 66.2326 176.239 66.1957 174.765 65.8636C173.106 65.4947 171.521 64.7936 169.973 63.8342C163.708 59.8492 158.807 51.1412 157.406 40.7727ZM175.207 15.0176C174.249 14.7963 173.254 14.7594 172.295 14.8701C168.794 15.3497 165.772 18.1171 163.745 22.6556C161.607 27.5262 160.87 33.7251 161.755 40.1455C163.229 51.0674 169.126 60.1075 175.723 61.5465C176.681 61.7679 177.676 61.8048 178.634 61.6941C182.136 61.2144 185.158 58.4471 187.185 53.9086C189.322 49.038 190.059 42.839 189.175 36.4187C187.959 27.4524 183.757 19.7406 178.634 16.4567C177.529 15.7556 176.386 15.239 175.207 14.9807V15.0176Z" fill="var(--fill-0, #2D2A29)"/>
<path id="Vector_63" d="M170.674 33.2086L171.558 43.0973L161.608 47.8572C160.834 45.5326 160.244 43.0604 159.875 40.4037C159.507 37.5257 159.396 34.7583 159.617 32.1385L170.674 33.2086Z" fill="var(--fill-0, #2D2A29)"/>
<path id="Vector_64" d="M170.932 43.0973C169.531 42.7652 168.315 40.9203 168.02 38.5588C167.836 37.2674 167.983 36.0128 168.352 35.0166C168.757 33.9465 169.458 33.3193 170.268 33.2086C170.489 33.2086 170.711 33.2086 170.932 33.2086C172.332 33.5406 173.548 35.3856 173.843 37.7471C174.027 39.0385 173.88 40.293 173.512 41.2893C173.106 42.3594 172.406 42.9866 171.595 43.0973C171.374 43.0973 171.153 43.0973 170.932 43.0973Z" fill="var(--fill-0, white)"/>
<path id="Vector_65" d="M214.752 59.4064L195.403 52.285L195.956 50.7353L215.305 57.8567L214.752 59.4064Z" fill="var(--fill-0, #2D2A29)"/>
<path id="Vector_66" d="M205.907 46.3075L197.43 45.3481L197.578 43.6877L206.091 44.6471L205.907 46.3075Z" fill="var(--fill-0, #2D2A29)"/>
<path id="Vector_67" d="M217 36.7877L197.651 38.7064L197.504 37.0829L216.853 35.1273L217 36.7877Z" fill="var(--fill-0, #2D2A29)"/>
<path id="Vector_68" d="M208.959 24.0333L196.105 28.0046L196.616 29.6617L209.47 25.6904L208.959 24.0333Z" fill="var(--fill-0, #2D2A29)"/>
<path id="Vector_69" d="M196.804 9.2246L197.983 10.516L190.391 17.1947L189.248 15.8663L196.804 9.2246Z" fill="var(--fill-0, #2D2A29)"/>
<path id="Vector_70" d="M212.762 8.96631L213.683 10.4422L193.782 22.4711L192.897 20.9583L212.283 9.2615L212.762 8.96631Z" fill="var(--fill-0, #2D2A29)"/>
</g>
<path id="Vector_71" d="M133.967 73.7968C134.704 69.1476 128.77 66.4909 127.812 67.0813C126.854 67.6717 129.507 72.1733 128.991 74.0182C128.512 75.8631 127.333 85.1246 127.333 85.1246L135.699 99.4412C141.964 87.892 132.419 83.6118 133.967 73.8337V73.7968Z" fill="var(--fill-0, white)"/>
<path id="Vector_72" d="M134.446 73.8706C134.962 70.5128 132.382 68.4096 131.239 67.6348C129.949 66.7861 128.291 66.1957 127.554 66.6385C126.743 67.1551 127.185 68.4465 127.775 70.2546C128.18 71.5091 128.733 73.0957 128.512 73.8706C128.033 75.7155 126.89 84.6449 126.817 85.0508C126.817 85.3091 126.964 85.5674 127.259 85.6043C127.554 85.6043 127.775 85.4567 127.812 85.1615C127.812 85.0508 128.991 75.9 129.47 74.1289C129.765 73.0588 129.212 71.5091 128.696 69.9594C128.401 69.0738 127.959 67.7455 128.033 67.4872C128.291 67.3765 129.765 67.7086 131.239 68.8524C132.234 69.6273 133.856 71.2877 133.451 73.6861C132.787 77.8925 134.077 81.1027 135.367 84.2021C137.136 88.5193 138.794 92.5781 135.22 99.146C135.072 99.3674 135.183 99.6995 135.404 99.8102C135.478 99.8471 135.551 99.884 135.625 99.884C135.809 99.884 135.957 99.8102 136.067 99.6257C139.826 92.6888 138.021 88.1872 136.252 83.8701C135.035 80.8813 133.782 77.8187 134.409 73.8706H134.446Z" fill="var(--fill-0, #2D2A29)"/>
</g>
<defs>
<clipPath id="clip0_20934_31086">
<rect width="217" height="207" fill="white"/>
</clipPath>
</defs>
</svg>
