<svg preserveAspectRatio="none" width="100%" height="100%" overflow="visible" style="display: block;" viewBox="0 0 20 20" fill="none" xmlns="http://www.w3.org/2000/svg">
<g id="octicon:broadcast-16" clip-path="url(#clip0_20934_31418)">
<path id="Vector" d="M10.9375 10.7275V17.8125C10.9375 18.0611 10.8387 18.2996 10.6629 18.4754C10.4871 18.6512 10.2486 18.75 10 18.75C9.75136 18.75 9.5129 18.6512 9.33709 18.4754C9.16127 18.2996 9.0625 18.0611 9.0625 17.8125V10.7275C8.61376 10.5146 8.25081 10.1554 8.03334 9.70889C7.81587 9.26237 7.75683 8.75513 7.86592 8.27059C7.97501 7.78606 8.24574 7.35307 8.6336 7.04283C9.02145 6.73259 9.50333 6.56358 10 6.56358C10.4967 6.56358 10.9785 6.73259 11.3664 7.04283C11.7543 7.35307 12.025 7.78606 12.1341 8.27059C12.2432 8.75513 12.1841 9.26237 11.9667 9.70889C11.7492 10.1554 11.3862 10.5146 10.9375 10.7275ZM15.9162 1.82125C16.0963 1.64993 16.337 1.55711 16.5855 1.56321C16.8339 1.5693 17.0698 1.67381 17.2412 1.85375C19.0143 3.71165 20.0025 6.18183 20 8.75C20 11.4237 18.95 13.8538 17.2412 15.6463C17.1573 15.739 17.0556 15.8141 16.9422 15.8669C16.8288 15.9198 16.706 15.9494 16.581 15.9541C16.4559 15.9587 16.3312 15.9383 16.2142 15.894C16.0972 15.8497 15.9903 15.7825 15.8996 15.6962C15.809 15.6099 15.7366 15.5064 15.6866 15.3917C15.6367 15.277 15.6101 15.1534 15.6087 15.0283C15.6072 14.9032 15.6308 14.7791 15.678 14.6632C15.7252 14.5474 15.7952 14.4421 15.8837 14.3538C17.3259 12.845 18.129 10.8371 18.125 8.75C18.129 6.66286 17.3259 4.65499 15.8837 3.14625C15.7124 2.9662 15.6196 2.72548 15.6257 2.47702C15.6318 2.22856 15.7363 1.99269 15.9162 1.82125ZM4.08375 1.82125C4.45875 2.17875 4.47375 2.77125 4.11625 3.14625C2.67407 4.65499 1.87101 6.66286 1.875 8.75C1.87101 10.8371 2.67407 12.845 4.11625 14.3538C4.28031 14.5351 4.36705 14.7733 4.35795 15.0177C4.34885 15.262 4.24465 15.4931 4.06756 15.6617C3.89047 15.8304 3.65451 15.9231 3.41 15.9202C3.1655 15.9173 2.9318 15.819 2.75875 15.6463C0.984586 13.7891 -0.00375793 11.3184 -2.13303e-06 8.75C-2.13303e-06 6.07625 1.05 3.64625 2.75875 1.85375C2.93019 1.67381 3.16606 1.5693 3.41452 1.56321C3.66298 1.55711 3.90369 1.64993 4.08375 1.82125ZM14.7787 4.7225C15.7287 5.84951 16.2498 7.27601 16.25 8.75C16.2498 10.224 15.7287 11.6505 14.7787 12.7775C14.7006 12.8753 14.6036 12.9565 14.4935 13.0162C14.3835 13.0759 14.2626 13.113 14.138 13.1252C14.0134 13.1374 13.8875 13.1246 13.768 13.0874C13.6484 13.0502 13.5375 12.9895 13.4418 12.9087C13.3461 12.828 13.2676 12.7289 13.2108 12.6172C13.154 12.5056 13.1202 12.3838 13.1113 12.2589C13.1024 12.134 13.1186 12.0086 13.1589 11.89C13.1993 11.7715 13.263 11.6623 13.3462 11.5688C14.0107 10.7798 14.3751 9.78148 14.375 8.75C14.375 7.675 13.9887 6.69375 13.3462 5.93125C13.1937 5.7404 13.1217 5.49754 13.1456 5.25439C13.1694 5.01124 13.2873 4.78701 13.474 4.62945C13.6607 4.47189 13.9016 4.39345 14.1453 4.41083C14.389 4.42821 14.6163 4.54004 14.7787 4.7225ZM6.66375 5.92C5.99125 6.70936 5.62286 7.71301 5.625 8.75C5.62274 9.78186 5.98737 10.7809 6.65375 11.5688C6.80628 11.7596 6.87828 12.0025 6.85442 12.2456C6.83056 12.4888 6.71272 12.713 6.52599 12.8706C6.33926 13.0281 6.09841 13.1066 5.85471 13.0892C5.61101 13.0718 5.38372 12.96 5.22125 12.7775C4.26936 11.6516 3.74799 10.2244 3.75 8.75C3.74767 7.26788 4.27424 5.83356 5.235 4.705C5.39612 4.51554 5.6259 4.39784 5.8738 4.37779C6.1217 4.35775 6.36741 4.43701 6.55687 4.59812C6.74634 4.75924 6.86404 4.98903 6.88408 5.23693C6.90412 5.48483 6.82487 5.73054 6.66375 5.92Z" fill="var(--fill-0, #D62E2F)"/>
</g>
<defs>
<clipPath id="clip0_20934_31418">
<rect width="20" height="20" fill="white"/>
</clipPath>
</defs>
</svg>
