<svg preserveAspectRatio="none" width="100%" height="100%" overflow="visible" style="display: block;" viewBox="0 0 36 36" fill="none" xmlns="http://www.w3.org/2000/svg">
<g id="Group 77">
<circle id="Ellipse 6" cx="18" cy="18" r="18" fill="var(--fill-0, #D62E2F)"/>
<g id="carbon:logo-wechat">
<path id="Vector" fill-rule="evenodd" clip-rule="evenodd" d="M24.9288 22.7132C25.475 22.363 25.9252 21.8939 26.242 21.345C26.5588 20.7961 26.733 20.1832 26.75 19.5574C26.75 17.2536 24.39 15.3851 21.4787 15.3851C18.5675 15.3851 16.2075 17.2536 16.2075 19.5574C16.2075 21.8611 18.5681 23.7302 21.4787 23.7302C22.0609 23.7309 22.6403 23.654 23.2 23.5016L23.3544 23.4797C23.4533 23.4814 23.5499 23.508 23.6344 23.5569L24.7887 24.1898L24.89 24.2213C24.9131 24.2213 24.936 24.2169 24.9574 24.2085C24.9787 24.2001 24.9981 24.1878 25.0144 24.1722C25.0307 24.1566 25.0436 24.1382 25.0524 24.1179C25.0612 24.0976 25.0657 24.0758 25.0656 24.0538L25.0375 23.9321L24.8 23.0908L24.7813 22.9839C24.7811 22.9307 24.7945 22.8782 24.8201 22.8309C24.8458 22.7835 24.883 22.7428 24.9288 22.712V22.7132ZM15.575 10.7788C12.0812 10.7788 9.25 13.0202 9.25 15.7865C9.27069 16.5371 9.47983 17.2721 9.86 17.9304C10.2402 18.5887 10.7804 19.1512 11.4356 19.571C11.4905 19.608 11.5352 19.657 11.566 19.7138C11.5968 19.7706 11.6128 19.8337 11.6125 19.8976L11.5906 20.0252L11.3056 21.0352L11.2713 21.1813C11.2712 21.2344 11.2934 21.2854 11.3329 21.323C11.3724 21.3606 11.426 21.3818 11.4819 21.382L11.6044 21.3446L12.9894 20.5846C13.0904 20.526 13.2061 20.4942 13.3244 20.4925L13.5106 20.5186C14.182 20.7016 14.8771 20.7944 15.5756 20.7942L15.9225 20.7858C15.7824 20.3903 15.7107 19.9759 15.71 19.5586C15.71 17.0369 18.2931 14.992 21.4787 14.992L21.8225 15.0003C21.3462 12.6081 18.7306 10.7788 15.5756 10.7788H15.575ZM19.7206 18.8912C19.5816 18.8912 19.4456 18.852 19.33 18.7786C19.2144 18.7052 19.1242 18.6009 19.071 18.4788C19.0178 18.3568 19.0039 18.2225 19.031 18.0929C19.0581 17.9633 19.1251 17.8443 19.2234 17.7509C19.3218 17.6575 19.4471 17.5939 19.5835 17.5681C19.7198 17.5423 19.8612 17.5555 19.9897 17.6061C20.1182 17.6566 20.228 17.7423 20.3053 17.8521C20.3825 17.962 20.4238 18.0911 20.4238 18.2232C20.4238 18.311 20.4057 18.3978 20.3704 18.4789C20.3351 18.56 20.2833 18.6337 20.218 18.6957C20.1527 18.7578 20.0751 18.807 19.9898 18.8405C19.9045 18.874 19.813 18.8913 19.7206 18.8912V18.8912ZM23.2356 18.8912C23.0965 18.8914 22.9604 18.8524 22.8447 18.7792C22.7289 18.7059 22.6385 18.6017 22.5851 18.4797C22.5317 18.3576 22.5176 18.2233 22.5446 18.0936C22.5716 17.964 22.6385 17.8448 22.7367 17.7513C22.835 17.6578 22.9603 17.594 23.0967 17.5682C23.2332 17.5423 23.3746 17.5555 23.5032 17.606C23.6317 17.6565 23.7416 17.7421 23.8189 17.852C23.8962 17.9619 23.9375 18.0911 23.9375 18.2232C23.9375 18.4002 23.8636 18.5699 23.732 18.6951C23.6004 18.8204 23.4219 18.8909 23.2356 18.8912ZM13.4663 14.9843C13.2993 14.9843 13.1361 14.9373 12.9974 14.8491C12.8586 14.761 12.7504 14.6357 12.6866 14.4892C12.6228 14.3427 12.6061 14.1814 12.6388 14.0259C12.6715 13.8704 12.7519 13.7276 12.8701 13.6155C12.9882 13.5035 13.1387 13.4272 13.3024 13.3964C13.4662 13.3656 13.6359 13.3817 13.79 13.4425C13.9442 13.5034 14.0758 13.6063 14.1684 13.7383C14.261 13.8703 14.3102 14.0253 14.31 14.1839C14.31 14.2892 14.2882 14.3934 14.2458 14.4906C14.2034 14.5878 14.1412 14.6761 14.0628 14.7505C13.9845 14.8249 13.8915 14.8839 13.7891 14.9241C13.6867 14.9643 13.577 14.985 13.4663 14.9849V14.9843ZM17.6831 14.9843C17.5162 14.9843 17.353 14.9373 17.2142 14.8491C17.0755 14.761 16.9673 14.6357 16.9035 14.4892C16.8397 14.3427 16.823 14.1814 16.8557 14.0259C16.8883 13.8704 16.9688 13.7276 17.0869 13.6155C17.2051 13.5035 17.3555 13.4272 17.5193 13.3964C17.683 13.3656 17.8527 13.3817 18.0069 13.4425C18.161 13.5034 18.2927 13.6063 18.3853 13.7383C18.4778 13.8703 18.5271 14.0253 18.5269 14.1839C18.5269 14.2892 18.505 14.3934 18.4626 14.4906C18.4202 14.5878 18.3581 14.6761 18.2797 14.7505C18.2014 14.8249 18.1083 14.8839 18.006 14.9241C17.9036 14.9643 17.7939 14.985 17.6831 14.9849V14.9843Z" fill="var(--fill-0, white)"/>
</g>
</g>
</svg>
