<svg preserveAspectRatio="none" width="100%" height="100%" overflow="visible" style="display: block;" viewBox="0 0 68.1711 37.337" fill="none" xmlns="http://www.w3.org/2000/svg">
<path id="Vector" d="M21.5141 1.25271C24.8582 1.25271 25.8093 3.0172 27.5504 6.21773C29 8.89121 30.8025 12.214 34.6912 15.4603C38.3345 18.5004 44.67 20.0434 53.5059 20.0434C59.2891 20.0434 64.5431 19.3789 66.9438 19.0198C66.9438 22.1745 65.7856 30.5463 54.2805 36.0308C52.2173 35.5266 43.1666 33.3267 39.0018 32.2421C38.4649 32.1046 37.9203 32.0358 37.3911 32.0358C36.0565 32.0358 34.998 32.456 34.0623 32.8302C33.395 33.0976 32.8197 33.3268 32.3058 33.3268C31.93 33.3268 30.7642 33.3267 28.4938 29.7596L27.4737 28.1478C24.0222 22.671 22.12 19.6615 18.7605 19.6615C17.6714 19.6615 16.4902 20.0205 15.1326 20.7538L14.0128 21.3725L14.657 22.4724C14.657 22.4724 15.4854 23.8779 16.0607 25.8869L16.168 26.2459L16.4518 26.4903C17.5793 27.4375 18.7835 28.9728 18.7145 29.5915C18.7068 29.6603 18.6225 29.7443 18.4537 29.8283C18.3617 29.8742 18.2696 29.8894 18.1699 29.8894C16.8123 29.8894 14.4269 27.0861 13.2381 25.1841L13.0157 24.8251L12.6245 24.68C11.7731 24.3592 10.7223 23.939 10.5152 23.8168C10.3158 23.6717 9.04257 22.4343 8.28323 20.4712C7.45487 18.3248 6.32736 14.4367 6.31969 14.3986L4.54791 8.26484L3.88828 14.6124C3.76556 15.8117 3.32837 17.2248 3.05225 17.4463C2.81448 17.4463 2.02446 16.7894 1.97077 15.2617C1.92475 14.2458 1.72533 13.4132 1.54125 12.6799C1.21144 11.3432 0.996677 10.4647 1.70999 8.91412C2.51535 7.17254 3.55847 5.68304 4.46354 4.36922C5.02345 3.56718 5.55268 2.81097 5.93619 2.11587C6.41173 1.61936 9.4951 1.59644 11.9725 1.58116C14.3426 1.56589 17.2879 1.55061 20.5706 1.27563C20.9005 1.24507 21.2073 1.2298 21.4987 1.2298L21.5141 1.25271ZM21.5141 0.0152803C21.1843 0.0152803 20.8468 0.0305554 20.4786 0.0611094C11.9572 0.779128 5.87483 -0.274985 4.87773 1.50478C3.88062 3.28455 1.94776 5.46916 0.590159 8.40998C-0.76744 11.3508 0.628515 12.6952 0.728226 15.3228C0.804927 17.4463 2.02446 18.699 3.05225 18.699C3.29769 18.699 3.52779 18.6303 3.74255 18.4775C4.80869 17.7137 5.12316 14.7499 5.12316 14.7499C5.12316 14.7499 6.26601 18.699 7.11738 20.9218C7.9841 23.1446 9.43374 24.5959 9.82491 24.8557C10.2161 25.1154 12.1796 25.8563 12.1796 25.8563C12.1796 25.8563 15.4854 31.1421 18.1623 31.1421C18.4537 31.1421 18.7452 31.0734 19.0213 30.9283C21.8669 29.4388 17.2495 25.5508 17.2495 25.5508C16.6129 23.3432 15.7232 21.8461 15.7232 21.8461C16.889 21.2121 17.8631 20.8989 18.7529 20.8989C21.6828 20.8989 23.539 24.3057 27.4353 30.4241C29.5063 33.6781 30.9712 34.5718 32.2982 34.5718C33.9012 34.5718 35.3202 33.2733 37.3834 33.2733C37.7899 33.2733 38.2195 33.3268 38.6873 33.4413C43.4428 34.6788 54.4033 37.337 54.4033 37.337C70.0348 30.1186 68.0943 17.5838 68.0943 17.5838C68.0943 17.5838 61.2296 18.7983 53.5059 18.7983C46.8483 18.7983 39.5464 17.8894 35.4966 14.5055C27.1055 7.50864 28.839 0 21.5217 0L21.5141 0.0152803Z" fill="var(--fill-0, #2D2A29)"/>
</svg>
