<svg preserveAspectRatio="none" width="100%" height="100%" overflow="visible" style="display: block;" viewBox="0 0 22 22" fill="none" xmlns="http://www.w3.org/2000/svg">
<path id="Vector" d="M13.619 11V15.1905L16.7619 17.2857L17.5476 15.9762L15.1905 14.4048V11H13.619ZM20.9524 10.8848V10.4762C20.9524 4.71429 16.2381 0 10.4762 0C4.68286 0 0 4.71429 0 10.4762C0 16.2381 4.71429 20.9524 10.4762 20.9524C10.6124 20.9524 10.7276 20.9524 10.8638 20.921C11.9743 21.6019 13.2733 22 14.6667 22C18.7105 22 22 18.7105 22 14.6667C22 13.2838 21.6019 11.9848 20.9524 10.8848ZM18.6057 8.49619L18.4276 8.38095H18.5848C18.5952 8.41238 18.5952 8.45429 18.6057 8.49619ZM17.7257 6.28571H14.6352C14.3074 4.98819 13.8218 3.7357 13.1895 2.55619C15.1171 3.21619 16.72 4.54667 17.7257 6.28571ZM10.4762 2.12667C11.3457 3.38381 12.0476 4.78762 12.4771 6.28571H8.47524C8.90476 4.78762 9.60667 3.38381 10.4762 2.12667ZM8.02476 8.38095H10.9057C9.58178 9.17144 8.5407 10.3591 7.93048 11.7752C7.88857 11.3457 7.85714 10.9162 7.85714 10.4762C7.85714 9.76381 7.92 9.06191 8.02476 8.38095ZM7.75238 2.55619C7.12381 3.71905 6.65238 4.97619 6.28571 6.28571H3.22667C4.23118 4.53327 5.84026 3.20727 7.75238 2.55619ZM2.36762 12.5714C2.2 11.901 2.09524 11.199 2.09524 10.4762C2.09524 9.75333 2.2 9.05143 2.36762 8.38095H5.90857C5.82476 9.07238 5.76191 9.76381 5.76191 10.4762C5.76191 11.1886 5.82476 11.88 5.90857 12.5714H2.36762ZM3.22667 14.6667H6.28571C6.65238 15.9762 7.12381 17.2333 7.75238 18.3962C5.84427 17.7379 4.23746 16.4138 3.22667 14.6667ZM14.6667 19.9048C11.7752 19.9048 9.42857 17.5581 9.42857 14.6667C9.42857 11.7752 11.7752 9.42857 14.6667 9.42857C17.5581 9.42857 19.9048 11.7752 19.9048 14.6667C19.9048 17.5581 17.5581 19.9048 14.6667 19.9048Z" fill="var(--fill-0, #D62E2F)"/>
</svg>
