<svg preserveAspectRatio="none" width="100%" height="100%" overflow="visible" style="display: block;" viewBox="0 0 17.1429 17.1429" fill="none" xmlns="http://www.w3.org/2000/svg">
<g id="Group">
<g id="Vector">
</g>
<path id="Vector_2" d="M15.8298 4.03777C15.2845 4.27898 14.7062 4.43739 14.1141 4.50777C14.7382 4.13451 15.2053 3.54707 15.4284 2.85491C14.8427 3.20348 14.2005 3.44777 13.5313 3.57991C13.0817 3.0989 12.4858 2.77989 11.8362 2.67247C11.1866 2.56506 10.5198 2.67526 9.9393 2.98595C9.35882 3.29664 8.89725 3.7904 8.62634 4.39048C8.35543 4.99056 8.29036 5.66333 8.44126 6.3042C7.25348 6.24467 6.09149 5.936 5.03075 5.39824C3.97 4.86049 3.03421 4.10566 2.28411 3.18277C2.01861 3.63881 1.87908 4.15722 1.87983 4.68491C1.87983 5.72063 2.40697 6.63563 3.2084 7.17134C2.73412 7.15641 2.27028 7.02833 1.85554 6.79777V6.83491C1.85569 7.5247 2.09438 8.19321 2.53115 8.7271C2.96792 9.26099 3.57589 9.6274 4.25197 9.7642C3.8117 9.88351 3.35005 9.9011 2.90197 9.81563C3.09259 10.4094 3.46412 10.9286 3.96454 11.3007C4.46495 11.6728 5.06921 11.8791 5.69269 11.8906C5.07303 12.3773 4.36353 12.737 3.60474 12.9493C2.84596 13.1616 2.05278 13.2222 1.27054 13.1278C2.63604 14.0059 4.22561 14.4721 5.84911 14.4706C11.3441 14.4706 14.3491 9.91848 14.3491 5.97063C14.3491 5.84206 14.3455 5.71206 14.3398 5.58491C14.9247 5.16217 15.4295 4.6385 15.8305 4.03848L15.8298 4.03777Z" fill="var(--fill-0, white)"/>
</g>
</svg>
