<svg preserveAspectRatio="none" width="100%" height="100%" overflow="visible" style="display: block;" viewBox="0 0 95.6762 109.23" fill="none" xmlns="http://www.w3.org/2000/svg">
<g id="Group">
<path id="Vector" d="M0.276122 0.282626H95.4001V106.16C95.4001 107.695 94.1499 108.948 92.6005 108.948H3.07569C1.53401 108.948 0.276122 107.703 0.276122 106.16V0.282626Z" fill="var(--fill-0, #DAE6ED)"/>
<path id="Vector_2" d="M92.6082 109.23H3.07569C1.38061 109.23 0 107.856 0 106.167V0.282626C0 0.129857 0.122721 0 0.276122 0H95.4001C95.5535 0 95.6762 0.122218 95.6762 0.282626V106.16C95.6762 107.848 94.2956 109.223 92.6006 109.223L92.6082 109.23ZM0.559914 0.565253V106.167C0.559914 107.55 1.68741 108.673 3.07569 108.673H92.6082C93.9965 108.673 95.124 107.55 95.124 106.167V0.565253H0.559914Z" fill="var(--fill-0, #000100)"/>
</g>
</svg>
