<svg preserveAspectRatio="none" width="100%" height="100%" overflow="visible" style="display: block;" viewBox="0 0 79.0709 115.99" fill="none" xmlns="http://www.w3.org/2000/svg">
<g id="Group">
<g id="Group_2">
<path id="Vector" d="M25.853 114.783C24.9479 111.055 22.2097 97.4283 25.1473 77.6599C27.2642 63.4828 35.755 58.4567 42.3819 58.4567C46.1786 58.4567 49.7375 60.0684 52.1382 62.8718C60.6443 72.8094 41.3465 99.0477 25.853 114.783Z" fill="var(--fill-0, white)"/>
<path id="Vector_2" d="M42.3819 59.0754C45.9945 59.0754 49.377 60.6031 51.6627 63.2766C59.7623 72.7331 41.3925 97.8943 26.1981 113.546C25.1473 108.718 23.0687 95.8166 25.7532 77.7592C27.8088 63.9717 35.9928 59.0831 42.3742 59.0831L42.3819 59.0754ZM42.3819 57.838C34.8269 57.838 26.5739 63.8571 24.5337 77.5682C21.0055 101.24 25.5231 115.99 25.5231 115.99C38.6159 102.875 62.2857 73.7795 52.6061 62.4669C50.029 59.4573 46.3013 57.838 42.3819 57.838Z" fill="var(--fill-0, #2D2A29)"/>
</g>
<g id="Group_3">
<path id="Vector_3" d="M24.9325 82.2583C23.3525 82.2583 21.8645 81.9527 20.5146 81.3493C14.2252 78.5459 4.79098 66.0112 8.25784 53.9347C8.70271 52.407 9.09389 51.521 9.43904 50.7342C10.183 49.069 10.6356 48.0607 10.3594 43.279C10.2674 41.652 10.2444 40.2313 10.2981 38.9556C10.4822 34.5482 11.4946 32.081 12.4534 30.2401C14.1945 26.9097 18.8579 25.0077 25.247 25.0077C32.2114 25.0077 39.8124 27.2764 43.333 30.3929C49.7298 36.0606 55.7201 57.9831 50.0213 66.5306C49.9139 66.6681 36.476 82.2506 24.9172 82.2506L24.9325 82.2583Z" fill="var(--fill-0, white)"/>
<path id="Vector_4" d="M25.2623 25.6265C32.0887 25.6265 39.521 27.8263 42.9418 30.8588C49.2006 36.4044 55.0835 57.8456 49.5687 66.141C49.446 66.2938 36.0771 81.6395 24.9402 81.6395C23.4445 81.6395 22.0409 81.3569 20.7754 80.784C13.949 77.7439 5.75741 64.9112 8.86378 54.1028C9.29331 52.6133 9.66914 51.7501 10.0143 50.9863C10.8657 49.0919 11.2568 47.9691 10.9807 43.2408C10.8887 41.6444 10.8733 40.2542 10.927 38.9785C11.1111 34.6934 12.0852 32.3025 13.0133 30.5304C14.647 27.4139 19.111 25.6265 25.2623 25.6265ZM25.2623 24.389C19.3794 24.389 13.995 25.9855 11.9165 29.9575C10.7199 32.2338 9.86089 34.8156 9.69215 38.9327C9.63846 40.2236 9.65379 41.6749 9.74583 43.3172C10.1447 50.146 9.07087 48.8857 7.67492 53.7667C4.23874 65.7286 13.3124 78.8209 20.2691 81.9222C21.7648 82.5867 23.3448 82.8846 24.9402 82.8846C36.6754 82.8846 50.3281 67.241 50.5659 66.8896C56.4718 58.0137 50.4738 35.885 43.7702 29.9498C40.1192 26.7035 32.3341 24.4043 25.27 24.4043L25.2623 24.389Z" fill="var(--fill-0, #2D2A29)"/>
</g>
<path id="Vector_5" d="M10.6432 61.4052C10.6049 61.2829 10.6202 61.2218 10.6432 61.1836C11.2798 59.9233 13.09 56.738 13.1053 56.7075L12.2693 56.2339C12.2003 56.3638 10.4285 59.4726 9.78419 60.7559C9.63846 61.0462 9.61545 61.3823 9.73817 61.7183C10.1907 63.0551 12.8292 64.3613 13.1207 64.5064L13.5425 63.6432C12.5531 63.162 10.8887 62.1308 10.6432 61.4052Z" fill="var(--fill-0, #2D2A29)"/>
<path id="Vector_6" d="M24.4033 71.6331C24.5951 72.7178 24.1809 73.0386 24.0428 73.1455C22.8309 74.108 18.9192 72.9851 16.7409 72.0456L16.3574 72.924C16.833 73.1303 20.0544 74.4746 22.5165 74.4746C23.3602 74.4746 24.1195 74.3219 24.6411 73.9017C25.3007 73.3823 25.5385 72.565 25.3391 71.4727L24.3956 71.6407L24.4033 71.6331Z" fill="var(--fill-0, #2D2A29)"/>
<path id="Vector_7" d="M23.4752 47.0601C22.6852 46.9302 22.2173 46.8386 21.9029 46.4108L21.1359 46.9913C21.6958 47.7399 22.5241 47.8774 23.3218 48.0073C24.7868 48.2517 26.4512 48.5267 28.0082 52.239L28.8903 51.8647C27.1339 47.6635 25.0169 47.3121 23.4752 47.0601Z" fill="var(--fill-0, #2D2A29)"/>
<path id="Vector_8" d="M9.33166 46.2428L9.92224 46.999C11.4639 45.8074 12.9519 46.892 13.0133 46.9379L13.5962 46.174C12.8676 45.6164 11.0421 44.9137 9.33166 46.2351V46.2428Z" fill="var(--fill-0, #2D2A29)"/>
<path id="Vector_9" d="M22.4628 55.8367C21.8875 55.9513 21.5194 56.5089 21.6344 57.0818C21.7495 57.647 22.3094 58.0213 22.8846 57.9067C23.4599 57.7922 23.8281 57.2345 23.713 56.6617C23.598 56.0964 23.038 55.7221 22.4628 55.8367Z" fill="var(--fill-0, #2D2A29)"/>
<path id="Vector_10" d="M11.5023 51.4828C10.9117 51.4828 10.4438 51.9563 10.4438 52.5369C10.4438 53.1174 10.9194 53.591 11.5023 53.591C12.0852 53.591 12.5684 53.1174 12.5684 52.5369C12.5684 51.9563 12.0929 51.4828 11.5023 51.4828Z" fill="var(--fill-0, #2D2A29)"/>
<path id="Vector_11" d="M28.7369 57.1964C26.9268 55.1645 22.202 50.8717 16.3421 53.2778C16.0046 52.9112 14.3172 52.0862 13.7266 52.1091C13.3278 50.7953 11.9165 47.5642 7.33744 45.3872C5.6577 44.5928 4.29243 44.9518 3.57911 46.3802C2.03743 49.4738 4.02398 56.7762 7.59055 58.556C8.67203 59.0983 9.69215 59.1442 10.6202 58.6935C12.5991 57.7234 13.4812 54.7062 13.7419 53.6368C13.9184 53.6521 15.3296 54.2097 15.5367 54.5611C15.5904 55.745 16.1964 64.0939 23.3372 66.3396C24.0888 66.5764 24.7791 66.691 25.4081 66.691C26.3668 66.691 27.1952 66.416 27.8778 65.8737C29.4119 64.6515 29.7877 62.3371 29.8491 60.8246C29.8797 60.2518 30.2479 59.7629 30.7925 59.5719L43.5401 55.1187V53.0181L30.2402 57.5783C29.6956 57.7616 29.1204 57.6241 28.7369 57.204V57.1964ZM12.7295 53.0563C12.5377 54.0875 11.694 56.9366 10.1293 57.6929C9.5234 57.9908 8.85611 57.9449 8.0891 57.5706C5.09778 56.0735 3.27231 49.4509 4.56855 46.8538C4.7603 46.4872 5.0671 46.0671 5.71906 46.0671C6.01819 46.0671 6.39403 46.1511 6.8619 46.3726C12.0469 48.8398 12.7525 52.6973 12.7755 52.8653C12.7755 52.8806 12.7448 53.0105 12.7295 53.0639V53.0563ZM27.1799 65.0105C26.3592 65.6674 25.178 65.7591 23.667 65.2855C16.787 63.1238 16.6335 54.4847 16.6335 54.4007V54.3396C23.3602 51.4522 28.4147 58.4873 28.6218 58.7928C28.6985 58.8997 28.6985 59.2969 28.7216 59.4879C28.7216 59.5261 29.0667 63.5134 27.1722 65.0182L27.1799 65.0105Z" fill="var(--fill-0, #2D2A29)"/>
<path id="Vector_12" d="M72.1724 23.4113C72.1724 23.4113 77.9633 16.0707 67.2942 13.0611C67.2942 13.0611 68.6365 5.93442 59.7316 7.82113C59.7316 7.82113 51.747 -8.00583 41.7069 5.36917C41.7069 5.36917 36.9592 -5.66081 32.756 5.02544C32.756 5.02544 20.4839 -5.32472 18.8655 9.85297C18.8655 9.85297 8.04309 3.04707 10.5052 17.9269C10.5052 17.9269 -0.700771 10.4182 5.45828 21.7537C5.45828 21.7537 -5.92408 26.7035 4.18505 32.9059C4.18505 32.9059 -1.19933 39.2612 6.12557 39.0626C6.12557 39.0626 4.49185 45.3032 9.26262 43.5693C9.26262 43.5387 8.94048 39.2001 10.5128 36.603C10.5128 36.603 14.8388 40.3611 18.7965 34.342C18.7965 34.342 18.1599 41.9728 25.7379 39.4445C25.7379 39.4445 24.6027 42.5916 27.5787 42.5228C27.5787 42.5228 27.2259 49.7947 31.966 47.6253C31.966 47.6253 34.7962 52.0938 37.0589 49.8558C37.0589 49.8558 32.5336 55.2485 39.3216 58.7393C39.3216 58.7393 36.4223 65.9348 44.5295 65.9272C44.5295 65.9272 48.3415 71.8088 52.2993 66.1181C52.2993 66.1181 60.6903 72.6949 64.8398 63.8877C64.8398 63.8877 74.9336 63.1086 71.2597 55.8443C71.2597 55.8443 80.4637 51.4522 73.6681 44.6692C73.6681 44.6692 82.6344 42.3395 75.6393 36.0606C75.6393 36.0606 85.3112 27.5972 72.1801 23.4113H72.1724Z" fill="var(--fill-0, #2D2A29)"/>
</g>
</svg>
