<svg preserveAspectRatio="none" width="100%" height="100%" overflow="visible" style="display: block;" viewBox="0 0 17.3474 16.4438" fill="none" xmlns="http://www.w3.org/2000/svg">
<g id="Group">
<path id="Vector" d="M8.66833 0.26544L11.2608 5.49781L17.0594 6.33804L12.8638 10.4094L13.8533 16.1611L8.66833 13.4495L3.4757 16.1611L4.46514 10.4094L0.269622 6.33804L6.07585 5.49781L8.66833 0.26544Z" fill="var(--fill-0, #005F8F)"/>
<path id="Vector_2" d="M13.8533 16.4438C13.8073 16.4438 13.7612 16.4361 13.7229 16.4132L8.66833 13.7627L3.61377 16.4132C3.52172 16.459 3.40667 16.4514 3.3223 16.3903C3.23793 16.3292 3.19191 16.2223 3.20725 16.1153L4.17368 10.5087L0.0855408 6.53665C0.00884031 6.46026 -0.02184 6.35332 0.0165103 6.25402C0.0471905 6.15472 0.139231 6.07833 0.238942 6.06305L5.89177 5.24574L8.42289 0.143222C8.51493 -0.0477406 8.8294 -0.0477406 8.92911 0.143222L11.4602 5.24574L17.1131 6.06305C17.2204 6.07833 17.3048 6.15472 17.3355 6.25402C17.3662 6.35332 17.3355 6.4679 17.2665 6.53665L13.1783 10.5087L14.1447 16.1153C14.1678 16.2223 14.1217 16.3292 14.0297 16.3903C13.9837 16.4285 13.9223 16.4438 13.8686 16.4438H13.8533ZM8.66833 13.1669C8.71435 13.1669 8.76037 13.1745 8.79872 13.1974L13.4851 15.6494L12.5877 10.4552C12.5724 10.3635 12.6031 10.2719 12.6721 10.2108L16.4611 6.529L11.2225 5.7728C11.1304 5.75752 11.0537 5.70404 11.0154 5.62002L8.676 0.891791L6.33663 5.62002C6.29828 5.70404 6.21391 5.75752 6.12954 5.7728L0.890897 6.529L4.6799 10.2108C4.74893 10.2719 4.77961 10.3635 4.76427 10.4552L3.86688 15.6494L8.55328 13.1974C8.59163 13.1745 8.63765 13.1669 8.68367 13.1669H8.66833Z" fill="var(--fill-0, #000100)"/>
</g>
</svg>
