<svg preserveAspectRatio="none" width="100%" height="100%" overflow="visible" style="display: block;" viewBox="0 0 16 20" fill="none" xmlns="http://www.w3.org/2000/svg">
<path id="Vector" d="M15 7V10C14.9984 11.3256 14.4711 12.5964 13.5338 13.5338C12.5964 14.4711 11.3256 14.9984 10 15H6C4.67441 14.9984 3.40356 14.4711 2.46622 13.5338C1.52888 12.5964 1.00159 11.3256 1 10V7M8 16V19M5 19H11M7 1H9C9.79565 1 10.5587 1.31607 11.1213 1.87868C11.6839 2.44129 12 3.20435 12 4V9C12 9.79565 11.6839 10.5587 11.1213 11.1213C10.5587 11.6839 9.79565 12 9 12H7C6.20435 12 5.44129 11.6839 4.87868 11.1213C4.31607 10.5587 4 9.79565 4 9V4C4 3.20435 4.31607 2.44129 4.87868 1.87868C5.44129 1.31607 6.20435 1 7 1Z" stroke="var(--stroke-0, #D62E2F)" stroke-width="2" stroke-linecap="round" stroke-linejoin="round"/>
</svg>
