<svg preserveAspectRatio="none" width="100%" height="100%" overflow="visible" style="display: block;" viewBox="0 0 24 24" fill="none" xmlns="http://www.w3.org/2000/svg">
<g id="mdi:announcement" clip-path="url(#clip0_20934_31359)">
<path id="Vector" d="M10.7164 7.47777L3.7882 11.4778C3.32883 11.743 2.99364 12.1798 2.85635 12.6922C2.71907 13.2045 2.79094 13.7505 3.05615 14.2098L5.05615 17.6739C5.32137 18.1333 5.75821 18.4685 6.27057 18.6058C6.78292 18.7431 7.32884 18.6712 7.7882 18.406L8.65423 17.906L10.6542 21.3701C10.7868 21.5998 11.0053 21.7674 11.2614 21.836C11.5176 21.9046 11.7906 21.8687 12.0203 21.7361L13.7523 20.7361C13.982 20.6035 14.1496 20.3851 14.2182 20.1289C14.2869 19.8727 14.2509 19.5998 14.1183 19.3701L12.1183 15.906L14.7164 14.406L21.0465 15.3701L13.0465 1.51367L10.7164 7.47777ZM20.9436 6.19188C21.7986 7.67278 21.7423 9.49512 20.7786 10.906L16.7786 3.97777C18.4786 3.86229 20.0936 4.71963 20.9436 6.19188Z" fill="var(--fill-0, #D62E2F)"/>
</g>
<defs>
<clipPath id="clip0_20934_31359">
<rect width="24" height="24" fill="white"/>
</clipPath>
</defs>
</svg>
