<svg preserveAspectRatio="none" width="100%" height="100%" overflow="visible" style="display: block;" viewBox="0 0 82.4265 33.7073" fill="none" xmlns="http://www.w3.org/2000/svg">
<path id="Vector" d="M3.90402 0.0189811C3.0701 0.0189811 2.08215 -0.0816543 0.982646 0.180517C0.685196 0.252019 0.209808 0.381776 0 0.540668C0 0.540668 2.33445 0.0428051 3.21883 1.78002C3.75796 2.8393 4.02619 5.19619 4.15633 6.37729C4.52548 9.73785 6.79619 30.6427 6.79619 30.6427C6.96616 32.4064 8.46934 33.7411 10.2434 33.7067L79.8068 32.3747C80.3299 32.3641 80.8452 32.2184 81.2754 31.9245C82.1757 31.3101 82.5821 30.2455 82.3723 29.2339L78.1124 2.4818C77.8176 1.05177 76.5534 0.0242665 75.0901 0.0242665H3.90402V0.0189811Z" fill="url(#paint0_linear_20934_30560)"/>
<defs>
<linearGradient id="paint0_linear_20934_30560" x1="47.6636" y1="87.3538" x2="40.3805" y2="5.28256" gradientUnits="userSpaceOnUse">
<stop offset="0.1" stop-color="#21242D"/>
<stop offset="0.31" stop-color="#262832"/>
<stop offset="0.59" stop-color="#363540"/>
<stop offset="0.89" stop-color="#504A58"/>
<stop offset="1" stop-color="#5C5463"/>
</linearGradient>
</defs>
</svg>
