<svg preserveAspectRatio="none" width="100%" height="100%" overflow="visible" style="display: block;" viewBox="0 0 21.75 23.25" fill="none" xmlns="http://www.w3.org/2000/svg">
<path id="Vector" d="M9.1579 13.3688V22.6688H0V13.3688H9.1579ZM6.86842 15.6938H2.28947V20.3438H6.86842V15.6938ZM10.3026 0L16.5987 10.4625H4.00658L10.3026 0ZM10.3026 4.48725L8.10474 8.1375H12.5005L10.3026 4.48725ZM16.5987 12.7875C19.4605 12.7875 21.75 15.1125 21.75 18.0188C21.75 20.925 19.4605 23.25 16.5987 23.25C13.7368 23.25 11.4474 20.925 11.4474 18.0188C11.4474 15.1125 13.7368 12.7875 16.5987 12.7875ZM16.5987 15.1125C15.8397 15.1125 15.1118 15.4187 14.5751 15.9637C14.0384 16.5087 13.7368 17.248 13.7368 18.0188C13.7368 18.7895 14.0384 19.5288 14.5751 20.0738C15.1118 20.6188 15.8397 20.925 16.5987 20.925C17.3577 20.925 18.0856 20.6188 18.6223 20.0738C19.159 19.5288 19.4605 18.7895 19.4605 18.0188C19.4605 17.248 19.159 16.5087 18.6223 15.9637C18.0856 15.4187 17.3577 15.1125 16.5987 15.1125Z" fill="var(--fill-0, #D62E2F)"/>
</svg>
