<svg preserveAspectRatio="none" width="100%" height="100%" overflow="visible" style="display: block;" viewBox="0 0 20.568 17.1429" fill="none" xmlns="http://www.w3.org/2000/svg">
<path id="Vector" d="M3.85371 2.57143C3.51272 2.57143 3.1857 2.70689 2.94458 2.94801C2.70346 3.18912 2.568 3.51615 2.568 3.85714V7.28571C2.568 7.62671 2.70346 7.95373 2.94458 8.19485C3.1857 8.43597 3.51272 8.57143 3.85371 8.57143H8.13943C8.48042 8.57143 8.80745 8.43597 9.04857 8.19485C9.28968 7.95373 9.42514 7.62671 9.42514 7.28571V3.85714C9.42514 3.51615 9.28968 3.18912 9.04857 2.94801C8.80745 2.70689 8.48042 2.57143 8.13943 2.57143H3.85371ZM16.2823 5.57143C16.2823 6.13975 16.0565 6.68479 15.6547 7.08666C15.2528 7.48852 14.7078 7.71429 14.1394 7.71429C13.5711 7.71429 13.0261 7.48852 12.6242 7.08666C12.2223 6.68479 11.9966 6.13975 11.9966 5.57143C11.9966 5.00311 12.2223 4.45806 12.6242 4.0562C13.0261 3.65434 13.5711 3.42857 14.1394 3.42857C14.7078 3.42857 15.2528 3.65434 15.6547 4.0562C16.0565 4.45806 16.2823 5.00311 16.2823 5.57143ZM10.2823 9.85714V10.0714C10.2823 11.0376 10.6661 11.9641 11.3493 12.6473C12.0324 13.3305 12.959 13.7143 13.9251 13.7143H14.3537C15.3199 13.7143 16.2464 13.3305 16.9296 12.6473C17.6128 11.9641 17.9966 11.0376 17.9966 10.0714V9.85714C17.9966 9.51615 17.8611 9.18912 17.62 8.948C17.3789 8.70689 17.0519 8.57143 16.7109 8.57143H11.568C11.227 8.57143 10.9 8.70689 10.6589 8.948C10.4177 9.18912 10.2823 9.51615 10.2823 9.85714ZM3.21429 0C2.3618 0 1.54424 0.338647 0.941442 0.941442C0.338647 1.54424 0 2.3618 0 3.21429V13.9286C0 14.7811 0.338647 15.5986 0.941442 16.2014C1.54424 16.8042 2.3618 17.1429 3.21429 17.1429H17.3537C18.2062 17.1429 19.0238 16.8042 19.6266 16.2014C20.2294 15.5986 20.568 14.7811 20.568 13.9286V3.21429C20.568 2.3618 20.2294 1.54424 19.6266 0.941442C19.0238 0.338647 18.2062 0 17.3537 0H3.21429ZM1.28571 3.21429C1.28571 2.7028 1.4889 2.21226 1.85058 1.85058C2.21226 1.4889 2.7028 1.28571 3.21429 1.28571H17.3537C17.8652 1.28571 18.3557 1.4889 18.7174 1.85058C19.0791 2.21226 19.2823 2.7028 19.2823 3.21429V13.9286C19.2823 14.4401 19.0791 14.9306 18.7174 15.2923C18.3557 15.654 17.8652 15.8571 17.3537 15.8571H3.21514C2.70365 15.8571 2.21311 15.654 1.85144 15.2923C1.48976 14.9306 1.28657 14.4401 1.28657 13.9286L1.28571 3.21429Z" fill="var(--fill-0, #D62E2F)"/>
</svg>
