<svg preserveAspectRatio="none" width="100%" height="100%" overflow="visible" style="display: block;" viewBox="0 0 51.8843 49.5183" fill="none" xmlns="http://www.w3.org/2000/svg">
<path id="Vector" d="M15.0011 47.5706C23.9512 49.8692 35.8916 51.2992 43.4607 44.9436C45.2613 43.4314 47.7923 40.1106 45.7526 37.6663C43.8882 35.4339 40.2684 35.5663 37.8304 36.5355C36.0377 37.2479 33.9237 39.5889 32.1151 39.8749C29.4673 40.2933 29.7036 36.3687 30.3224 34.9572C31.7034 31.7979 36.1731 32.0601 39.0733 32.4096C43.8882 32.9896 49.3512 34.0198 51.0377 29.02C52.7241 24.0202 49.1149 19.1819 44.5788 19.8572C40.842 20.4133 39.7611 24.3459 36.7866 25.7812C34.1441 27.055 34.8054 23.5435 35.5676 21.997C37.2222 18.6364 41.2829 17.3441 44.4646 15.9167C48.0605 14.3013 52.987 10.1357 51.6644 5.58342C50.9049 2.96435 47.1283 0.917293 44.6505 0.321449C32.5241 -2.59157 34.2025 15.2308 31.4565 16.0517C28.7104 16.8727 27.895 13.197 29.6585 8.80628C31.4219 4.41557 32.046 0.904062 26.8832 0.48035C21.7203 0.0566387 16.252 11.1844 19.7364 17.6857C23.2208 24.187 15.7155 26.7769 15.5695 23.0562C15.4659 20.3683 16.9638 14.0365 14.2841 12.2092C9.81966 9.16908 5.89704 19.1766 6.37774 22.0605C7.05232 26.1043 11.2405 28.5909 12.6109 32.3938C13.0093 33.4981 13.8379 36.1701 12.7251 37.1102C11.1715 38.4211 9.40801 35.6563 8.8078 34.5229C7.456 31.9754 6.98592 24.9603 2.54011 27.725C-2.94942 31.1385 0.131308 40.6667 14.9958 47.5732L15.0011 47.5706Z" fill="url(#paint0_linear_20934_30676)"/>
<defs>
<linearGradient id="paint0_linear_20934_30676" x1="53.9982" y1="-19.5115" x2="-35.2708" y2="141.202" gradientUnits="userSpaceOnUse">
<stop stop-color="#FF6B74"/>
<stop offset="1" stop-color="#8B1D3A"/>
</linearGradient>
</defs>
</svg>
