<svg preserveAspectRatio="none" width="100%" height="100%" overflow="visible" style="display: block;" viewBox="0 0 81.7306 33.6901" fill="none" xmlns="http://www.w3.org/2000/svg">
<path id="Vector" d="M3.9837 0.0044364C3.14978 0.0044364 1.98654 -0.0882602 0.719722 0.573789C0.448831 0.714144 0.209808 0.870396 0 1.02929L0.584276 0.84391C1.52177 0.597628 2.81515 0.925997 3.2985 1.76283C3.8934 2.79298 4.10586 5.17901 4.236 6.36011C4.60515 9.72067 6.87586 30.6255 6.87586 30.6255C7.04583 32.3892 8.54902 33.7239 10.3231 33.6895L79.1109 30.5011C79.6341 30.4905 80.1493 30.3448 80.5796 30.0509C81.4799 29.4365 81.8862 28.3719 81.6764 27.3603L78.192 2.46195C77.8972 1.03193 76.6331 0.0044364 75.1697 0.0044364H3.9837Z" fill="url(#paint0_linear_20934_30562)"/>
<defs>
<linearGradient id="paint0_linear_20934_30562" x1="12.3096" y1="16.6272" x2="36.0496" y2="15.703" gradientUnits="userSpaceOnUse">
<stop offset="0.1" stop-color="#21242D"/>
<stop offset="0.55" stop-color="#403D49"/>
<stop offset="1" stop-color="#5C5463"/>
</linearGradient>
</defs>
</svg>
