<svg preserveAspectRatio="none" width="100%" height="100%" overflow="visible" style="display: block;" viewBox="0 0 36.6792 40.7378" fill="none" xmlns="http://www.w3.org/2000/svg">
<path id="Vector" opacity="0.3" d="M5.2452 34.503C9.42012 32.7261 9.39622 29.0504 13.2949 27.5171C18.8588 25.327 25.0044 30.4142 25.9657 29.0027C26.9643 27.5356 19.6237 23.0363 20.5984 18.598C21.3739 15.0706 26.4996 15.6955 29.243 10.8679C31.8457 6.28913 29.3227 2.05466 31.6279 0.463098C32.4539 -0.108913 33.9119 -0.334005 36.6792 0.881517C34.7511 6.88763 33.3675 12.1814 33.2692 18.7463C33.2426 20.4941 33.2612 25.38 32.9717 32.5698C32.7832 37.2307 32.5867 39.9027 31.033 40.5965C29.413 41.3195 28.101 39.0977 24.1757 37.7736C21.2942 36.8017 18.3888 37.0612 12.6974 37.6253C4.20944 38.4647 3.60923 39.6617 1.94405 38.6686C0.860481 38.0225 0.345254 37.0532 0 35.1889C1.70237 35.3716 3.50565 35.2419 5.24254 34.503H5.2452Z" fill="url(#paint0_linear_20934_30628)" style="mix-blend-mode:multiply"/>
<defs>
<linearGradient id="paint0_linear_20934_30628" x1="25.0575" y1="33.8277" x2="-4.31421" y2="-34.234" gradientUnits="userSpaceOnUse">
<stop stop-color="#325087"/>
<stop offset="1" stop-color="#334570"/>
</linearGradient>
</defs>
</svg>
